<svg height="25" viewBox="0 0 44.580685 25" width="44.580685" xmlns="http://www.w3.org/2000/svg"><g transform="matrix(.54667512 0 0 .54667512 -1.294526 -5.673941)"><ellipse cx="75.508003" cy="17.771" fill="#404d63" rx="1.132" ry="2.107"/><path d="m79.82 17.772c0 1.164-.66 2.106-1.283 2.106-.625 0-.383-.944-.383-2.106s-.242-2.106.383-2.106 1.282.942 1.282 2.106z" fill="#404d63"/><path d="m59.06 39.77s3.203.644 3.333 4.103c0 0-7.88 1.22-6.407 7.497 0 0-2.883-.32-3.59-1.348-.704-1.023-1.664-3.395-.704-5.188.96-1.797 4.228-5.77 7.37-5.064z" fill="#fff"/><path d="m56.537 51.858-.598-.066c-.32-.035-3.1-.375-3.9-1.53-.85-1.228-1.74-3.74-.73-5.63.94-1.75 3.88-5.37 6.99-5.37.28 0 .57.03.85.093.02.005 3.52.75 3.66 4.502l.01.377-.38.06c-.04.005-3.84.624-5.48 3.06-.74 1.097-.93 2.415-.58 3.92l.13.584zm1.77-11.747c-2.7 0-5.415 3.39-6.24 4.93s-.02 3.73.68 4.75c.362.53 1.677.91 2.708 1.09-.23-1.5.046-2.84.82-3.98 1.54-2.28 4.585-3.12 5.666-3.35-.31-2.77-2.93-3.33-2.96-3.34-.22-.05-.44-.07-.67-.07z" fill="#404d63"/><path d="m61.944 43.423s3.075 3.202 2.37 6.02l-1.133.577s-.13-4.6-2.6-5.662l1.37-.935z" fill="#fff"/><path d="m62.777 50.702-.02-.67c-.002-.043-.16-4.342-2.354-5.284l-.712-.306 2.309-1.572.25.258c.132.138 3.23 3.407 2.476 6.42l-.047.187-1.91.967zm-1.41-6.372c1.607 1.19 2.064 3.795 2.19 5.02l.385-.193c.382-2.073-1.405-4.397-2.067-5.172l-.507.345z" fill="#404d63"/><path d="m60.57 44.357s1.992.604 2.61 5.662c0 0-.853 2.17-3.095.96 0 0-.48-3.91-2.13-5.26l2.616-1.37z" fill="#fff"/><path d="m61.36 51.776c-.467 0-.964-.142-1.478-.42" fill="#404d63"/><path d="m57.956 45.727s2.386 2.95 2.13 5.256c0 0-1.154 1.604-3.78.387 0-.004-1.377-3.464 1.65-5.643z" fill="#fff"/><path d="m58.146 52.25c-.63 0-1.31-.166-2.02-.495l-.344-.16.075-.224c-.252-.77-1.04-3.9 1.852-5.98l.32-.23.25.32c.1.13 2.49 3.12 2.22 5.57l-.02.11-.07.09c-.04.05-.76 1.02-2.29 1.02zm-1.5-1.193c.537.23 1.04.344 1.5.344.867 0 1.357-.41 1.528-.59.106-1.65-1.227-3.69-1.797-4.48-1.988 1.7-1.442 4.05-1.23 4.73z" fill="#404d63"/><path d="m51.755 44.182s4.037 1.545 8.073-6.408c0 0-2.18.77-4.036 0 0 0-2.01 5.65-4.037 6.408z" fill="#fff"/><path d="m52.615 44.586c-.59 0-.946-.134-.96-.14l-.7-.268.7-.263c1.597-.597 3.373-4.807 3.87-6.234l.098-.28.278.12c.52.22 1.11.32 1.77.32 1.13 0 2.06-.32 2.07-.32l.67-.23-.32.63c-2.95 5.82-5.94 6.69-7.46 6.69zm-.062-.567h.062c1.342 0 3.953-.77 6.662-5.81-.41.09-.98.18-1.614.18-.617 0-1.188-.09-1.7-.26-.402 1.19-1.855 4.58-3.41 5.88zm-23.093.05s-3.588.9-1.794 4.1c1.552 2.76 4.1 2.56 4.1 2.56s-.126-3.34 2.692-4.62c0-.01 1.153-2.82-4.998-2.06z" fill="#404d63"/><path d="m47.784 44.965s-4.292-2.436-8.072-1.86c-3.782.577-9.804 2.692-8.778 7.31 1.025 4.61 7.175 4.353 7.175 4.353s2.88-7.433 9.67-6.854v-2.95z" fill="#fff"/><path d="m37.936 55.195c-1.064 0-6.425-.227-7.417-4.69-.3-1.345-.07-2.588.69-3.693 2.01-2.943 6.96-3.902 8.43-4.126.4-.063.83-.094 1.27-.094 3.5 0 6.92 1.922 7.07 2.003l.21.122v3.66l-.46-.04c-6.41-.546-9.22 6.516-9.25 6.585l-.1.258-.47.015zm2.987-11.753" fill="#404d63"/><path d="m45.093 55.345s1.218-.58 1.73-1.474c0 0 .385-4.26-1.474-5.81 0 0-1.67-.23-2.89 1.51 0 0 2.62 3.48 2.62 5.78z" fill="#fff"/><path d="m45.093 55.345s-5.276 1.18-6.867-.854c0 0 1.088-3.85 3.688-4.8 2.602-.94 2.794 3.61 3.18 5.66z" fill="#fff"/><path d="m41.916 56.11c-1.966 0-3.32-.457-4.025-1.357" fill="#404d63"/><path d="m47.784 47.91s-3.122-.512-1.752.98c1.472 1.605.485 5.387.485 5.387 1.363.67 2.163-.793 2.163-.793 1.09-3.92-.896-5.574-.896-5.574z" fill="#fff"/><path d="m47.22 54.88c-.295 0-.595-.075-.89-.22l-.312-.154.087-.336c.257-.99.69-3.817-.387-4.992-.155-.17-.628-.684-.4-1.205.227-.513.923-.572 1.428-.572.55 0 1.084.09 1.106.09l.114.02.09.08c.09.08 2.183 1.88 1.033 6.02-.07.14-.7 1.28-1.87 1.28zm-.205-.874c.758.16 1.288-.72 1.293-.728.85-3.093-.38-4.618-.718-4.967-.176-.02-.512-.06-.843-.06-.377 0-.555.05-.628.08.03.03.09.13.22.28 1.33 1.46.88 4.36.67 5.41zm-.115-8.208" fill="#404d63"/><path d="m46.776 45.434c-.026-.018-2.733-1.42-6.27-1.42-2.076 0-4.03.48-5.807 1.418l-.12.063h-.13c-.92 0-8.56-1.72-8.56-1.72l-11.179-5.875c-5.98-3.402-13.193-7.953-12.26-9.693.308-.563 1.41-.894 2.567-.64 3.5.768 7.05 2.018 11.15 2.597 3.193-6.128 10.443-16.064 23.923-16.064 11.483 0 13.603 4.23 15.303 7.632.96 1.918 1.79 3.577 4.12 4.284.737-.006 4.712-.166 5.862-2.83.37-.855.662-1.976.98-3.162.86-3.263 1.842-6.966 4.88-6.966.074 0 .16.003.24.007l-.297.825s.3.353.243.755c-.2.852-.3 1.708-.3 2.592 0 3.437 1.58 6.343 3.45 6.343.77 0 1.66-.175 2.28-1.104l.31-.978s.43.802 1.17.993c.63.17 1.53-.27 2.09-.26 1.15.04 4.41 2.58 3.25 4.57-1.45 2.48-2.77 2.48-6.07 3.54-.56.35-3.95 2.36-7.47 2.36h-.27c-.76 1.19-4.17 5.57-12.69 5.57-.47 0-.95-.01-1.45-.04-.56 1.54-2.98 7.05-8.67 7.28l-.14.01-.12-.06z" fill="#404d63"/><path d="m80.946 23.234c-2.412-1.337-3.457-1.02-3.787-.808-.85 1.342-1.82 1.352-2.81 1.352-2.19 0-3.74-2.753-3.74-6.54 0-.947.11-1.847.31-2.667.08-.6.52-.99.52-.99-3.85-.25-4.19 6.54-5.6 9.81s-6.41 3.14-6.41 3.14c-7.05-2.05-1.67-11.91-19.35-11.91-16.029-.011-22.919 14.889-23.729 16.379-5.042-.826-12.26-4.088-13.16-2.42-.894 1.666 11.77 8.876 11.77 8.876l11.554 6.373s7.047 1.15 7.944 1.15c6.278-3.33 12.558 0 12.558 0 6.278-.26 8.328-7.31 8.328-7.31 10.89.77 14.223-5.51 14.223-5.51 3.845.25 7.816-2.31 7.816-2.31" fill="#fff"/><path d="m15.066 33.16s.993-.525 5.127.748c2.39.74 6.106 4.878 9.012 5.648 0 0 2.86 1.922 6.45 0 0 0 1.494-1.498 4.997-1.324 3.5.168 6.236 1.664 7.944 1.576 1.708-.084 3.76-3.117 4.4-6.15.64-3.03 2.645-8.712 5.04-9.567 2.39-.85 2.817 2.1 2.817 2.1s-3.587 2.05-3.802 4.57c0 0-.75 4.85-1.4 6.94-.65 2.1-1.4 7.7-7.86 7.87 0 0-3.36-1.87-7.39-1.72-3.24.13-3.93 1.15-6.23 1.37-2.35.23-5.09-.49-7.64-1.37-5.05-1.74-8.98-4.25-13.66-7 0 .01-4.4-2.7 2.22-3.66z" fill="#fff"/><path d="m47.678 45.986-.102-.057c-.03-.02-3.293-1.82-7.168-1.68-1.776.07-2.748.41-3.688.74-.724.25-1.472.52-2.523.62-2.08.2-4.478-.25-7.825-1.4-4.49-1.55-8.014-3.65-12.094-6.07l-1.65-.98.008-.02c-.506-.25-1.58-1.16-1.647-2.07-.13-1.74 2.88-2.2 3.96-2.35.34-.13 1.41-.47 5.36.75 1.18.36 2.6 1.46 4.1 2.62 1.68 1.29 3.41 2.63 4.89 3.02l.12.06c.01 0 1.2.78 2.94.78 1.02 0 2.03-.26 3.01-.78.31-.28 1.94-1.56 5.27-1.4 1.96.09 3.7.6 5.11 1.01 1.06.31 1.97.57 2.66.57h.12c1.44-.07 3.39-2.9 4-5.81.48-2.24 2.47-8.86 5.31-9.88.33-.12.66-.18.96-.18 1.62 0 2.29 1.71 2.42 2.61l.04.28-.25.15c-.04.02-3.4 1.97-3.59 4.23-.04.23-.77 4.93-1.42 7.03-.07.21-.14.47-.21.75-.68 2.54-1.95 7.26-8.05 7.42h-.12zm-6.818-2.586c3.533 0 6.432 1.42 7.024 1.73 5.37-.193 6.477-4.316 7.14-6.786.078-.292.148-.554.218-.777.632-2.04 1.38-6.83 1.39-6.88.194-2.29 2.87-4.157 3.742-4.71-.135-.52-.537-1.617-1.522-1.617-.205 0-.43.044-.673.13-2.08.74-4.08 5.96-4.77 9.256-.63 2.987-2.76 6.386-4.8 6.486l-.17.004c-.81 0-1.78-.28-2.9-.606-1.43-.414-3.05-.885-4.92-.974-3.25-.173-4.67 1.188-4.68 1.202l-.1.072c-1.12.6-2.29.904-3.47.904-1.8 0-3.06-.705-3.36-.886-1.63-.454-3.41-1.826-5.13-3.155-1.44-1.11-2.8-2.16-3.84-2.48-3.76-1.158-4.82-.77-4.83-.768l-.12.035c-2.8.403-3.23 1.067-3.29 1.334-.11.544.84 1.31 1.21 1.53l1.66.983c4.04 2.398 7.53 4.47 11.94 5.99 1.96.678 4.97 1.596 7.46 1.36.94-.093 1.61-.328 2.32-.578.95-.34 2.03-.72 3.94-.8.16-.01.32-.01.48-.01z" fill="#404d63"/><path d="m21.9 40.583s-1.453-2.647-4.612-3.417c-3.16-.77-3.76 0-3.76 0s-4.27 5.297-3.842 10.08c.427 4.783 3.417 4.27 3.417 4.27s.482-5.295 3.36-5.64c2.876-.338 5.438-.255 5.438-.255v-5.03z" fill="#fff"/><path d="m12.854 51.957c-.745 0-3.204-.337-3.59-4.674-.44-4.897 3.755-10.162 3.934-10.384.088-.12.485-.51 1.71-.51.682 0 1.516.12 2.48.35 3.303.8 4.82 3.51 4.884 3.62l.053.09v5.58l-.438-.02c-.004 0-.275-.01-.737-.01-.902 0-2.704.04-4.638.26-2.08.25-2.86 3.88-2.985 5.25l-.03.32-.32.06c-.002 0-.122.02-.323.02zm2.055-14.71c-.83 0-1.07.206-1.07.21-.03.027-4.14 5.197-3.73 9.75.29 3.323 1.83 3.848 2.61 3.896.17-1.275.95-5.32 3.69-5.647 2.24-.265 4.25-.274 5.06-.267v-4.489c-.28-.45-1.68-2.484-4.29-3.12-.9-.22-1.67-.332-2.28-.332z" fill="#404d63"/><path d="m13.102 51.518s1.622 2.05 5.468 1.537c0 0 1.025-5.242 0-7.36 0 0-2.064-.675-3.682 1.036-1.616 1.71-1.786 4.79-1.786 4.79z" fill="#fff"/><path d="m17.368 53.563c-3.154 0-4.542-1.708-4.6-1.78l-.1-.127.01-.16c.006-.133.197-3.253 1.9-5.057 1.83-1.94 4.08-1.17 4.123-1.15l.18.05.08.16c1.08 2.22.08 7.41.04 7.63l-.06.3-.3.04c-.42.05-.85.08-1.25.08zm-3.828-2.193c.345.345 1.533 1.342 3.828 1.342.272 0 .553-.015.84-.043.187-1.1.755-4.85.056-6.62-.485-.1-1.892-.28-3.067.96-1.278 1.35-1.592 3.69-1.656 4.34z" fill="#404d63"/><path d="m20.192 45.624s1.535 3.586.938 6.92c0 0-.318.507-2.563.513 0 0 1.28-6.095 0-7.36z" fill="#fff"/><path d="m18.043 53.483.108-.515c.48-2.27.93-6.168.12-6.97l-.69-.686 2.89-.127.12.27c.07.15 1.58 3.743.97 7.162l-.06.15c-.13.213-.68.707-2.92.713l-.52.003zm1.238-7.393c.62 1.695.09 5.065-.19 6.53 1.06-.048 1.5-.223 1.65-.306.42-2.61-.51-5.39-.83-6.252l-.62.028z" fill="#404d63"/><path d="m21.13 52.54s2.136-.394 2.564-1.01c0 0-.256-4.285-1.794-5.91l-1.706.002c-.002.002 1.706 3.845.937 6.92z" fill="#fff"/><path d="m20.558 53.08.16-.643c.688-2.748-.744-6.245-.91-6.635l-.112-.265.322-.34 2.064-.003.126.134c1.626 1.717 1.9 5.995 1.91 6.177l.01.147-.085.12c-.49.705-2.293 1.086-2.835 1.186l-.65.12zm.26-7.033c.436 1.182 1.19 3.656.854 5.94.673-.17 1.324-.405 1.583-.61-.066-.783-.398-3.937-1.547-5.33z" fill="#404d63"/><path d="m16.35 29.975s-.715 2.226-.573 3.003" fill="#fff"/><path d="m15.492 33.034c.13-1.945.783-2.823.86-3.06l.276.09c-.193.6-.672 2.286-.564 2.866zm56.728-5.544" fill="#404d63"/><path d="m76.805 12.873c-.005.008-.013.015-.02.022-.15-.23-.31-.436-.48-.617l.015-.02c-.51-.538-1.107-.853-1.75-.853-1.866 0-3.382 2.622-3.382 5.853 0 1.01.148 1.96.408 2.792.572 1.824 1.69 3.062 2.974 3.062.562 0 1.088-.24 1.554-.657.07-.063.137-.145.206-.215l-.016-.02" fill="none"/><g fill="#404d63"><path d="m78.887 10.727c-.786-.14-1.796.182-2.336.814.17.18.36.3.48.49.43-.44.93-.62 1.86-.62 1.6 0 3 3.12 3 5.87 0 1.93-.63 3.6-1.56 4.43-.4.36-.85.56-1.32.56-.53 0-1.03-.26-1.47-.71-.06.49-.43.53-.43.53.55.64 1.2 1.02 1.91 1.02.85 0 1.61-.54 2.21-1.42.72-1.07 1.18-2.65 1.18-4.42.01-3.22-1.44-6.16-3.49-6.53z"/><path d="m77.262 22.234c.778-1.25 1.273-3.014 1.273-4.995 0-1.67-.356-3.16-.927-4.35-.294-.52-.798-1.25-.948-1.46-.607-.66-1.318-1.05-2.086-1.05-1.642 0-3.05 1.72-3.652 4.19-.2.82-.31 1.72-.31 2.66 0 3.78 1.77 6.53 3.96 6.53.828 0 1.593-.13 2.228-.88l.462-.66zm-.324-.02c.004.006-.392.235-.387.245-.06.07-.35-.07-.42-.01-.46.41-.99.66-1.55.66-2.53 0-3.15-4.87-3.15-5.88 0-3.23 1.29-5.84 3.15-5.84.64 0 1.87.65 2.22 1.49s1.17 2.61 1.17 4.36-.44 3.31-1.15 4.38c0-.01.28.42.13.57zm.324.02s.004-.004 0 0c.018.02.035.032.052.05.007-.048.016-.09.017-.142l-.06.092z"/></g></g></svg>