<svg height="25" viewBox="0 0 43.935326 25" width="43.935326" xmlns="http://www.w3.org/2000/svg"><path d="m20.172618 24.465957c-3.104872-.75166-7.805949-3.061191-10.6875564-5.250268-1.733138-1.316594-2.7096368-1.825512-3.2377025-1.687115-2.3551887.615826-5.68640007-1.612426-6.15643467-4.117837-.75129356-4.004703 3.29873597-6.7883707 6.78434337-4.6633664 1.2995331.7923 2.6793218 2.7474214 2.6815548 3.8000374.0018.806213.4630784.815733 2.0922364.04393 1.952778-.926668 2.4785-2.296718 2.244984-5.8507178-.108008-1.6457433-.314504-3.3705694-.458758-3.8329894-.244207-.783879-.09153-.744337 2.235538.575919l2.497686 1.4169134 2.086414-.7179754c4.636603-1.595584 9.802003-1.098383 13.33272 1.2832763l1.612608 1.0877649 1.536857-.9061656c.845279-.4986657 2.785645-1.9928316 4.311921-3.3207766 1.526276-1.32794498 2.815374-2.37433698 2.864692-2.32490998.200638.20137-1.043903 6.89527988-1.755179 9.44242918-2.271309 8.13389-7.269316 13.808134-13.410265 15.224681-2.212802.510382-6.001746.421413-8.575659-.20137zm6.989375-7.727853c1.423503-.594957 2.772391-2.498454 2.772391-3.912805 0-1.176734-1.196652-3.1574838-2.247218-3.7198557-.444113-.2379829-1.361445-.447774-2.038488-.4668126-4.40338-.1244834-5.898645 6.0605093-1.937071 8.0130673 1.513461.745802 1.85158.754223 3.450386.08787zm-3.509003-2.227886c-.767697-.924838-.30828-1.859196.97551-1.984045.919309-.08787 1.222463.05126 1.41706.666352.472378 1.488309-1.396704 2.517859-2.39257 1.317693zm-15.9188968 1.307808c1.8354344-1.835398 1.2377674-5.283221-1.1279658-6.5064529-1.8092924-.935822-3.6089924-.7274954-4.903656.5671316-1.01882307 1.0189333-1.11020847 1.2982883-.93432077 2.8587243.41559127 3.68727 4.53683277 5.509487 6.96594257 3.080597zm11.6599178-2.420103c.573282-.573356.909461-1.333071.909461-2.054708 0-1.4066622-1.440566-2.9641687-2.741453-2.9641687-1.442726 0-2.939968 1.5095438-2.939968 2.9641687 0 .877974.288142 1.476592 1.008755 2.096446 1.298215 1.116689 2.619386 1.102044 3.763205-.04027zm-3.412419-1.153302c-.122652-.318531-.04503-.758616.17208-.97573.576358-.576285 1.556225-.06956 1.556225.80365 0 .913854-1.390442 1.052251-1.728195.17208z"/></svg>