<svg height="25" viewBox="0 0 23.25 25" width="23.25" xmlns="http://www.w3.org/2000/svg"><g transform="scale(.125)"><path d="m14 156.1 78.8 43.9 78.9-43.9 14.3-122.8-93.2-33.3-92.8 33.3z" fill="#3dbeae"/><path d="m92.8 123.2v76.8l78.9-43.9 14.3-122.8-93.2-33.3v22.2z" fill="#349b8b"/><g fill="#fff"><path d="m140.1 59.9-40.2 59.3v20.7h-7.5l-15.8-55.7v-24.3h23.1v22.3l15.8-22.3z"/><path d="m143 139.9-28.6-42.1-12.6 18.6 16.4 23.5z" opacity=".5"/><path d="m39 84.2 12.3 44.2 18.3-32.8-11.9 10.7z"/><path d="m80.7 139.1-11.1-43.5-18.3 32.8 11.5-11.1z" opacity=".5"/></g></g></svg>