<svg height="20pt" viewBox="0 0 23.936391 20" width="23.936392pt" xmlns="http://www.w3.org/2000/svg"><path d="m22.171619 2.728757c-.532848 0-.963984-.431896-.963984-.963984 0-.532848.431136-.963984.963984-.963984.532088 0 .963984.431136.963984.963984 0 .532088-.431896.963984-.963984.963984m-9.573798 16.470453c-.532848 0-.963983-.43189-.963983-.96398 0-.53285.431135-.96399.963983-.96399.532089 0 .963225.43114.963225.96399 0 .53209-.431136.96398-.963225.96398m9.573798-19.19921c-.974611 0-1.764772.790162-1.764772 1.764773 0 .207977.05237.401532.118409.586739l-8.278872 14.189533c-.800029.167748-1.413335.844055-1.413335 1.694185 0 .97461.790161 1.76477 1.764772 1.76477.973852 0 1.764013-.79016 1.764013-1.76477 0-.19584-.05237-.37497-.110819-.55107l8.320619-14.235832c.775741-.185966 1.364758-.850887 1.364758-1.683555 0-.974611-.790164-1.764773-1.764773-1.764773" fill="#0c544c"/><g fill="#073551"><path d="m14.950851 2.728757c-.532846 0-.963982-.431896-.963982-.963984 0-.532848.431136-.963984.963982-.963984.532088 0 .963224.431136.963224.963984 0 .532088-.431136.963984-.963224.963984m-9.5745556 16.470453c-.5320902 0-.9639839-.43189-.9639839-.96398 0-.53285.4318937-.96399.9639839-.96399.5328461 0 .963982.43114.963982.96399 0 .53209-.4311359.96398-.963982.96398m9.5745556-19.19921c-.975369 0-1.764773.790162-1.764773 1.764773 0 .207977.05237.401532.118412.586739l-8.2788725 14.189533c-.8007906.167748-1.4140967.844055-1.4140967 1.694185 0 .97461.7901636 1.76477 1.7647746 1.76477.9746091 0 1.7647727-.79016 1.7647727-1.76477 0-.19584-.052374-.37497-.1108216-.55107l8.3206205-14.235832c.77574-.185966 1.364757-.850887 1.364757-1.683555 0-.974611-.790922-1.764773-1.764773-1.764773"/><path d="m1.7647726 5.679152c.5320883 0 .963984.431896.963984.963984 0 .532089-.4318957.963982-.963984.963982-.532848 0-.96398392-.431893-.96398392-.963982 0-.532088.43113592-.963984.96398392-.963984m0 2.728757c.9746091 0 1.7647727-.790163 1.7647727-1.764773 0-.195074-.053133-.374967-.1115795-.551065-.233784-.700596-.8744165-1.213707-1.6531932-1.213707-.1244838 0-.2337859.0463-.3514377.07135-.80002888.166989-1.4133349.843295-1.4133349 1.693422 0 .97461.79016161 1.764773 1.7647726 1.764773"/><path d="m.80078868 12.809593c0-.532848.43189572-.963983.96398392-.963983.5320883 0 .963984.431135.963984.963983 0 .532089-.4318957.963225-.963984.963225-.5320882 0-.96398392-.431136-.96398392-.963225m2.72875662 0c0-.195832-.053133-.374967-.1115795-.551065-.233784-.700594-.8736567-1.213707-1.6531932-1.213707-.1244838 0-.2337859.0463-.3514377.07059-.80002888.167749-1.4133349.844055-1.4133349 1.694182 0 .973852.79016161 1.764773 1.7647726 1.764773.9746091 0 1.7647727-.790921 1.7647727-1.764773"/></g></svg>