<svg height="25.00049" viewBox="0 0 25.951134 25.00049" width="25.951134" xmlns="http://www.w3.org/2000/svg"><path d="m13.242906 21.442951c-.172492-.039-.340193-.0929-.508518-.1427l-.12687-.0385c-.164575-.0504-.327693-.10354-.489977-.15937l-.06729-.0244c-.14541-.051-.289153-.105-.432064-.1602l-.121244-.0477c-.15666-.0619-.312486-.12645-.466229-.19395l-.09312-.0413c-.132286-.06-.263113-.12041-.393524-.18311l-.113745-.0546c-.102287-.0498-.203532-.1027-.304361-.15478-.0675-.0356-.1362445-.0692-.2031165-.10625-.123328-.066-.244364-.13457-.364775-.20457l-.123119-.0688c-.160201-.0942-.318527-.19186-.474979-.29102l-.128119-.0854c-.113745-.0731-.226656-.1477-.338109-.22478l-.108954-.0764c-.1074949-.076-.2137401-.15291-.3195686-.23103l-.1414519-.10708c-.096662-.074-.1931162-.14854-.2883201-.22541l-.1285349-.1031c-.1210361-.0998-.2408223-.19978-.3591503-.30269l-.039165-.0331c-.1279107-.11231-.2535299-.22752-.3774826-.34314l-.1062452-.10228c-.091871-.0875-.1822833-.17562-.2712376-.26603l-.1062452-.10604c-.1131198-.11583-.2241564-.23311-.3331098-.35207l-.016249-.0175c-.1152033-.12582-.2274899-.25436-.3376932-.38415l-.088329-.10499c-.082288-.099-.1635342-.19916-.2431139-.3004l-.088954-.11083c-.095621-.12416-.1891581-.2477-.2806122-.37374-2.5311347-3.45276-3.4406765-8.21462-1.4174354-12.12528l-1.7938766 2.27511c-2.29760356 3.30214-2.01157496 7.59882-.2564466 11.10783.041665.0842.085621.16686.1285358.24957l.082288.15812.051039.091.091454.16375c.054581.096.1104116.19165.1677007.28727l.095412.1575c.06333.10228.1281192.20332.1945745.30415l.082913.12791c.091246.13645.1849915.2727.2816538.40644l.00812.0104.047498.0642c.08333.1152.1695757.22895.256655.34144l.096454.12291c.077705.0977.1566595.19479.2372808.29145l.090621.10833c.1079117.12707.218115.25353.3304016.37748l.00667.007.012916.0142c.1095784.11979.2220732.23686.3358181.35394l.1077034.10854c.088121.0888.1777002.17603.2681128.2629l.1095783.10417c.1208278.11395.2429056.22561.3674832.33477l.00583.005.063955.0546c.1095784.095.2212399.18936.3339431.28186l.1383271.1102c.091871.0738.1847832.14625.2783206.21749l.1487432.11312c.1031203.076.2072823.15083.3122775.22395l.1137448.0806.031249.0223c.099579.0685.2014491.13458.3033195.20062l.131244.0875c.1560346.0987.314569.19645.4745617.29082l.131244.074c.117703.0679.2362393.13458.3564421.19978.064997.035.1316607.0681.1970744.10166.084788.0444.1689506.0894.2551967.1325l.058956.0285.1043703.0504c.1335361.0637.2681131.12645.4041481.18687l.08541.0383c.155827.0681.312903.13354.471437.19603l.114787.0452c.14666.0565.295403.11229.444771.16478l.05583.0194c.1637425.0573.3293605.11041.4960195.16228l.119786.0358c.169576.051.337068.11208.51206.14437 11.111785 2.02637 14.339555-6.6774 14.339555-6.6774-2.711127 3.53192-7.522991 4.46354-12.082158 3.4263zm-4.0027345-9.00605c.248947.35686.524976.78143.8551695 1.06808.119786.13187.244989.26061.3729.38706l.09833.0969c.124161.12042.250405.23874.380816.35374l.01542.0133.0038.004c.144368.12666.293319.24812.444771.36811l.100829.0787c.151868.11645.306652.23061.465187.33977l.01354.0102c.07.0483.141452.0933.21249.13999l.100412.0665c.113328.0727.228323.14353.344985.21145l.04875.0283c.100621.0579.202699.11499.304778.17041l.108537.0564c.07062.0369.141243.0746.213323.11042l.03229.0146c.146243.0721.293945.14166.444979.20728l.09833.0404c.120411.0512.242281.10124.364567.14791l.156243.0573c.111036.0413.22249.0787.334985.11646l.151451.0485c.159784.0496.317694.11228.484145.13999 8.5794 1.42139 10.559935-5.18435 10.559935-5.18435-1.785335 2.57134-5.243094 3.79837-8.932718 2.8405-.163951-.0431-.325402-.0898-.486019-.14041l-.145827-.0473c-.114162-.0369-.22749-.076-.339985-.11708l-.153326-.0571c-.123119-.0475-.244989-.0962-.365817-.14749l-.09854-.0417c-.151451-.0658-.300611-.13541-.447479-.20811-.07583-.0369-.150202-.0758-.224574-.11416l-.129577-.0667c-.09541-.0517-.190408-.10541-.283945-.16041l-.06791-.0385c-.116245-.0677-.230406-.1377-.343734-.20999l-.103746-.0692c-.07458-.0483-.149368-.0977-.222698-.14729-.158118-.10916-.311861-.22332-.463729-.33915l-.10437-.0823c-1.614926-1.27494-2.895076-3.01777-3.5037985-4.99373-.637888-2.04907-.500186-4.34938.6047645-6.21638l-1.3576475 1.91658c-1.6617991 2.39114-1.5713865 5.59225-.275196 8.12109.217282.42456.461646.836.734967 1.22744zm9.0427135-2.95799c.07062.026.141243.0494.212907.0738l.09395.0298c.100828.0317.201241.0685.305611.0883 4.737076.91537 6.022225-2.43093 6.364085-2.92362-1.125574 1.62055-3.016946 2.00949-5.337882 1.44619-.183325-.0444-.384982-.11062-.561641-.17333-.226656-.0808-.449979-.17291-.666845-.27686-.412272-.19812-.804963-.43832-1.169113-.7133-2.07678-1.57597-3.36693-4.58188-2.011783-7.029891l-.7333 1.010581c-.979539 1.4416-1.075785 3.23193-.396024 4.82394.716842 1.68993 2.185734 3.01549 3.900031 3.64442z" fill="#0868ac"/></svg>