<svg height="25" viewBox="0 0 24.999949 25" width="24.999949" xmlns="http://www.w3.org/2000/svg"><g clip-rule="evenodd" fill-rule="evenodd" transform="matrix(.3231742 0 0 .3231742 -4.718343 -2.958184)"><path d="m49.4 58 .8.7 26.9 26.9c.3.3.6.5.7.9 3.7.2 6.5-2.4 6.5-6.1 0-19.1 0-38.1 0-57.2 0-.4 0-.8-.2-1.2v1.3 55.4c0 .4-.8-3.8-1-3.4-.4-.1-.2 1.4-.5 1.2-13.3-13.3-26-23.9-39.3-37.2-.3-.3-.6-.5-.9-.8-1.6 2.6-3.5 4.9-5.3 7.4.1.4.3.7.6 1l4.3 4.3c.3.3.6.6 1 .5 2.2 2 4.3 4.1 6.4 6.3z" fill="#cbcbc8"/><path d="m49.4 58 .8.7 26.9 26.9c.3.3.6.5.7.9 3.7.2 6.5-2.4 6.5-6.1 0-19.1 0-38.1 0-57.2 0-.4 0-.8-.2-1.2v1.3 55.4c0 .4-.8-3.8-1-3.4-.4-.1-.2 1.4-.5 1.2-13.3-13.3-26-23.9-39.3-37.2-.3-.3-.6-.5-.9-.8-1.6 2.6-3.5 4.9-5.3 7.4.1.4.3.7.6 1l4.3 4.3c.3.3.6.6 1 .5 2.2 2 4.3 4.1 6.4 6.3z" fill="#cbcbc8"/><path d="m49.4 58 .8.7 26.9 26.9c.3.3.6.5.7.9 3.7.2 6.5-2.4 6.5-6.1 0-19.1 0-38.1 0-57.2 0-.4 0-.8-.2-1.2v1.3 55.4c0 .4-.8-3.8-1-3.4-.4-.1-.2 1.4-.5 1.2-13.3-13.3-26-23.9-39.3-37.2-.3-.3-.6-.5-.9-.8-1.6 2.6-3.5 4.9-5.3 7.4.1.4.3.7.6 1l4.3 4.3c.3.3.6.6 1 .5 2.2 2 4.3 4.1 6.4 6.3z" fill="#fff"/><path d="m14.7 22c.4-2.8 2.5-4.8 5.3-5h.9 35.3.9c.4.5 0 .8-.2 1.2-1.5 2.4-2.5 4.9-2.9 7.7-.4 3.4-.1 6.6 1.4 9.7.4.7.7 1.5 1.1 2.2l.2.7c-.4.6-.9 1.1-1.4 1.6-12.9 13-39.7 39.6-40.1 39.9l-.6.4v-.8-.5c0-18.7 0-37.4 0-56.1.1-.4 0-.7.1-1z" fill="#1d9858"/><path d="m56.5 38.5c-3.9-6-4.1-12.2-1.1-18.6.5-1 1.1-1.9 1.7-2.9 1.1-1 1.9-2.2 3.1-3.2 5.8-4.7 12.3-5.9 19.2-3.3 7 2.6 11.1 7.8 12.3 15.1.8 4.6-.3 8.9-2.8 12.8-1.4 2.2-3 4.3-4.6 6.4l-.1.5c-.6 1.4-1.6 2.5-2.4 3.7-3.7 5.3-6.2 11-7.3 17.4-.1.6-.2 1.3-.4 1.9-.1.4-.4.7-.9.7-1.3 0-1.5-.1-1.8-1.7-.7-1-.8-2.1-1-3.2-1.2-5.6-3.7-10.7-7-15.3-.6-.9-1.3-1.7-1.9-2.7-1.7-2-3.3-4.2-4.8-6.3-.1-.5-.4-.8-.2-1.3z" fill="#d63f35"/><path d="m49.5 58 .7.6c9 9 18 18 26.9 27 .2.2.6.4.6.8l-.6.1c-18.5 0-37.1 0-55.6 0h-.3c-.3-.3-.2-.6 0-.8l.6-.7c8.8-8.8 17.6-17.6 26.4-26.3.4-.4.6-1.1 1.3-.7z" fill="#3e7bf1"/><path d="m14.7 80.5c0 3.7 2.8 6.2 6.5 6 .1-.4.4-.7.7-.9 9-9 17.9-17.9 26.9-26.9l.8-.7c2.1-2.2 4.1-4.3 6.3-6.3.4 0 .7-.3 1-.5 1.4-1.4 2.9-2.9 4.3-4.3.3-.3.5-.6.6-1-1.8-2.5-3.7-4.8-5.3-7.4-.3.3-.6.5-.9.8-13.2 13.2-40.5 40.6-40.9 40.7" fill="#fed73d"/><path d="m73.2 69c.5-.4.6-1 .7-1.6 1.1-8.4 4.9-15.6 10.1-22.2l.2-.2.1.7v33.4s-5.1-4.2-7.6-6.6c-1.2-1.1-2.4-2.2-3.5-3.5z" fill="#cbcbc8"/><path d="m55.9 51.7c1.8-2 3.7-3.8 5.6-5.7l.4-.2c4.4 5.6 7.8 11.8 9.2 18.9.2.8.3 1.7.4 2.5-4.9-4.9-9.9-9.9-14.8-14.8z" fill="#cbcbc8"/><path d="m36.2 29.5h4.3c.4 0 .7.1.8.6.4 3.6-.3 6.9-3 9.4-4.1 3.9-13.5 3.7-16.9-4.1-1.9-4.4-.5-9.5 3.2-12.4 3.9-3 9.1-3 12.9-.1.7.5.7.9.1 1.3l-.4.4c-1 1.3-1.9 2-3.8.9-2.5-1.4-5.7-.3-7.4 2s-1.7 5.5.1 7.8c1.8 2.2 4.9 3.1 7.5 2 1.4-.6 2.3-1.5 3-2.9.3-.6.2-.9-.5-.9-1.3 0-2.7 0-4 0-.6 0-1-.1-.9-.9s0-1.7 0-2.5c0-.6.2-.8.7-.7 1.4.1 2.8.1 4.3.1z" fill="#fdfdfd"/><path d="m79.4 28.5c0 3.8-2.9 6.7-6.7 6.7s-6.7-2.9-6.7-6.8c0-3.8 2.9-6.6 6.8-6.6 3.7 0 6.6 2.9 6.6 6.7z" fill="#752622"/></g></svg>