<svg enable-background="new 0 0 612 792" height="25" viewBox="0 0 24.68014 25" width="24.68014" xmlns="http://www.w3.org/2000/svg"><path d="m-66.987999-168.75101h612.099v259.58099h-612.099z" fill="none"/><g fill="#f49700" transform="matrix(.1963541 0 0 .1963541 -13.06658 -22.861508)"><path d="m161.646 204.169c-1.888.558-3.391.766-5.365.766-16.171 0-39.915-56.509-39.915-75.317 0-6.922 1.638-9.233 3.951-11.216-19.792 2.311-43.539 9.572-51.134 18.805-1.641 2.314-2.637 5.938-2.637 10.56 0 29.362 31.339 95.984 53.445 95.984 10.226-.001 27.467-16.813 41.655-39.582"/><path d="m151.323 116.43c20.449 0 40.915 3.298 40.915 14.841 0 23.42-14.854 51.801-22.433 51.801-13.527 0-30.352-37.614-30.352-56.422 0-8.576 3.298-10.22 11.87-10.22"/></g></svg>