<svg height="25" viewBox="0 0 29.129494 25" width="29.129494" xmlns="http://www.w3.org/2000/svg"><path d="m29.4 38.7c-2.6 0-4.6 2.1-4.6 4.6v9.3c0 2.6 2.1 4.6 4.6 4.6h37.1c2.6 0 4.6-2.1 4.6-4.6v-9.3c0-2.6-2.1-4.6-4.6-4.6zm37.2 8.1-5.8 5.8h-7l-5.8-5.8-5.8 5.8h-7l-5.8-5.8v-3.5h3.5l5.8 5.8 5.8-5.8h7l5.8 5.8 5.8-5.8h3.5zm-27.9 15.1h18.6v4.6h-18.6zm9.3-41.8c-17.9 0-32.5 13.5-32.5 30.2v20.9c0 2.6 2.1 4.6 4.6 4.6h55.7c2.6 0 4.6-2.1 4.6-4.6v-20.9c.1-16.6-14.5-30.2-32.4-30.2zm27.9 51.1h-55.8v-20.9c0-14.3 12.3-26 27.9-26s27.9 11.6 27.9 26z" fill="#333" transform="matrix(.44883303 0 0 .44883303 -6.956912 -9.021544)"/></svg>