<svg height="20pt" width="19.781534pt" xmlns="http://www.w3.org/2000/svg" xmlns:xlink="http://www.w3.org/1999/xlink"><linearGradient id="a" gradientTransform="matrix(.12651452 0 0 .12773594 -3.371478 101.74989)" gradientUnits="userSpaceOnUse" x1="150.96111" x2="112.03144" y1="192.35176" y2="137.27299"><stop offset="0" stop-color="#ffd43b"/><stop offset="1" stop-color="#ffe873"/></linearGradient><linearGradient id="b" gradientTransform="matrix(.12651452 0 0 .12773594 -3.371478 101.74989)" gradientUnits="userSpaceOnUse" x1="26.648937" x2="135.66525" y1="20.603781" y2="114.39767"><stop offset="0" stop-color="#5a9fd4"/><stop offset="1" stop-color="#306998"/></linearGradient><g transform="matrix(.98907665 0 0 .98907665 0 -103.24154)"><path d="m12.351142 104.38194c-1.030856.005-2.0153.0927-2.8815096.24599-2.5517448.45081-3.0150427 1.39439-3.0150429 3.13452v2.29818h6.0300855v.76606h-6.0300855-2.2630393c-1.7525108 0-3.28705953 1.05336-3.76704672 3.05721-.55365916 2.29688-.57821696 3.73017 0 6.12848.42864005 1.78521 1.45229052 3.05721 3.20480092 3.05721h2.0732813v-2.75501c0-1.99033 1.7220788-3.74596 3.7670467-3.74596h6.0230576c1.676606 0 3.015044-1.38046 3.015043-3.06424v-5.74193c0-1.63419-1.378622-2.86178-3.015043-3.13452-1.035878-.17244-2.110692-.25078-3.141548-.24599zm-3.2610255 1.84839c.6228665 0 1.1315195.51696 1.1315195 1.1526 0 .63339-.508653 1.14558-1.1315195 1.14558-.6250994 0-1.1315196-.51219-1.1315196-1.14558-.0000002-.63564.5064202-1.1526 1.1315196-1.1526z" fill="url(#b)"/><path d="m19.259737 110.82669v2.67769c0 2.07598-1.760031 3.82327-3.767047 3.82327h-6.0230576c-1.6498164 0-3.0150427 1.41202-3.0150429 3.06424v5.74194c0 1.63418 1.4210397 2.59539 3.0150429 3.06424 1.9087866.56125 3.7392126.66269 6.0230576 0 1.518099-.43954 3.015044-1.32412 3.015043-3.06424v-2.29818h-6.023058v-.76606h6.023058 3.015044c1.752511 0 2.405569-1.22242 3.015041-3.05721.629564-1.8889.602777-3.70538 0-6.12848-.433105-1.74464-1.260301-3.05721-3.015041-3.05721zm-3.387531 14.54108c.6251 0 1.13152.51218 1.13152 1.14557-.000001.63564-.506421 1.15261-1.13152 1.15261-.622867 0-1.131519-.51697-1.131519-1.15261 0-.63339.508651-1.14557 1.131519-1.14557z" fill="url(#a)"/></g></svg>