<svg height="25.000084" width="22.631092" xmlns="http://www.w3.org/2000/svg"><path d="m14.935828 24.95876c-.784347-.0797-.955205-.19388-1.010324-.67519-.02352-.20534-.01178-.38467.02608-.39851.03786-.0139.0087-.11694-.06479-.22909-.103671-.15822-.136471-.39582-.146319-1.0599-.007-.47079-.05058-.95416-.09688-1.07416s-.08419-.40886-.08419-.6419c0-.23305-.05454-.55339-.1212-.71188-.323824-.76988-.435822-1.22082-.379564-1.52822.09247-.50525.04584-1.22827-.08563-1.32786-.08487-.0643-.102896-.16901-.06736-.39126.03632-.22712.01741-.32931-.07513-.40611-.06801-.0564-.123663-.16385-.123663-.23866 0-.0748-.05124-.17856-.113862-.23053-.08566-.0711-.119255-.31822-.135633-.99767l-.02177-.90318-.484404-.0231c-.38761-.0185-.484404-.00002-.484404.0923 0 .0635.03583.13752.07961.16459.04607.0285.07505.33468.0688.72688-.0088.54979.01987.73783.151795.99642.08944.17531.199661.34165.244943.36963.05154.0319.06274.1815.02995.40018-.02881.19212-.05664.57015-.06185.84007-.01107.57381-.134957.78496-.703808 1.19953-.68841.50171-1.5487547 1.25606-1.7597167 1.54293-.205772.27981-.207328.29068-.09178.64166.148811.45202.47171.78427.8815387.90706.249817.0748.344157.15373.430232.35973.06064.14513.11025.3492.11025.45351 0 .17912-.03116.19242-.561908.23988-.6500607.0581-1.7039845-.11439-1.9259384-.31525-.087021-.0788-.1482671-.26158-.162786-.48592l-.023276-.35967-.1060744.31002c-.058341.17051-.2152877.42657-.3487708.56903-.2266224.24185-.2676225.25615-.6190492.21581-.2069941-.0238-.4249758-.0835-.4844039-.13286-.1288498-.10694-.1501097-1.12639-.032073-1.53796.080016-.279.4329837-.70286.5852993-.70286.049359 0 .1479553-.0643.219102-.14294.1191375-.13165.1196584-.16616.00659-.43676-.174993-.41882-1.1463738-1.9833-1.4918921-2.40281-.1821236-.22112-.187423-.2579-.1228649-.85255.037107-.3418.065343-1.03998.062745-1.55152-.00423-.83325-.027423-.98652-.2228062-1.47258-.1199457-.2984-.2569851-.59125-.304532-.6508-.047547-.0596-.1597434-.30369-.2493258-.54253l-.162877-.43427-.054455.46503c-.06105.52134-.2629594 1.29719-.3529766 1.35633-.1116034.0733-.3131265.5351-.3131265.71751 0 .26444-.5132417 1.2446-.6849743 1.30813-.1693987.0627-.2500239.50268-.2820953 1.53957-.011207.36233-.064184.76342-.1177259.8913-.1540126.36786-.1747675 1.95349-.032075 2.45043.065896.22948.1685658.69219.2281558 1.02824.05959.33604.1565553.66738.2154786.73629.058923.0689.1532111.29584.2095285.50428.093982.34784.09055.38764-.041781.48441-.079297.058-.2874814.10542-.4626324.10542s-.3565802.0381-.4031761.0847c-.1316109.13161-.9123074-.0598-1.1871311-.29103-.2576204-.21677-.3012128-.50912-.113017-.75793.063722-.0842.113792-.31581.113792-.52625 0-.22146.062964-.49922.1533108-.67631.3350475-.65675.3977483-2.18712.1162424-2.8372-.087081-.20109-.1348122-.5296-.1400471-.96386-.00674-.55948.017301-.69383.1595117-.8913.1519644-.21101.1596951-.27033.083578-.64133-.083975-.4093-.044119-.83208.1843053-1.95507.147787-.72656.120289-2.65447-.048367-3.39103-.1506684-.658-.231386-.76797-.2134471-.29079.00562.14939-.023604.27161-.064933.27161s-.075145.16903-.075145.37562-.053801.48346-.119558.61527c-.1735276.34785-.078252.94906.2073513 1.30845.2524268.31763.284973.63992.1003745.99395-.066493.12753-.120341.37167-.1196628.54254.00291.73376-.1972657.97174-.4080145.48506-.059992-.13854-.1999681-.37202-.3110586-.51884-.1110904-.14682-.2019827-.31823-.2019827-.38091 0-.0627-.1395083-.36816-.3100184-.67884-.1705102-.31067-.3100185-.6309-.3100185-.71162 0-.0807-.057451-.26191-.1276692-.40267-.1086983-.21789-.1131085-.29618-.029679-.5269.084968-.23498.081335-.28031-.02734-.34113-.1633087-.0914-.1614623-.47852.00293-.61485.2128938-.17656.3605872-.60432.2532915-.7336-.1224243-.14752-.037829-.64291.1734606-1.0158.091807-.16202.3660511-.50385.6094306-.75962.2433794-.25576.5819674-.65773.7524178-.89325.3052198-.42174.9508077-1.70065.9508077-1.88355 0-.12248.400777-.68912.9109872-1.28802.4217426-.49505 1.1816376-1.91573 1.1816376-2.20916 0-.51238 1.0342335-1.82525 1.4378653-1.82525.112512 0 .3145798-.0573.4490395-.12732.4550313-.23699.513396-.2602.654195-.2602.077308 0 .1766028.036.2206548.0801.044053.0441.3824032.0812.7518902.0826.6119981.002.6935511.0208.9162161.20816.288933.24312.9244577.48171 1.2831297.48171.219008 0 .254865.0268.254865.19045 0 .12759.09293.26191.281492.4069.696603.53563.768562.6237.915513 1.12054.07987.27005.224579.59562.321576.7235.404945.53389 1.010114 1.19046 1.143227 1.24034.258096.0967.816599.50625.982011.72008.476499.61599.606696.80685.693708 1.01691.09402.227.09819.22842.25119.0859.146744-.13672.152393-.20444.09946-1.19268-.05253-.98074-.04578-1.06445.105498-1.30922.08889-.14382.232494-.32564.319124-.40404.09352-.0846.15763-.24.157802-.38243.000155-.13193.06777-.35054.150241-.4858.159122-.26096.877644-.83063 1.204331-.95484.107377-.0408.195231-.10996.195231-.15365 0-.0437.076-.0794.168882-.0794.09289 0 .286112-.0424.429393-.0942.204455-.0739.292966-.0739.41135 0 .08296.0518.199898.0942.259857.0942.05996 0 .129092.0523.153629.11626.02454.0639.09213.11625.150205.11625.107199 0 .221936.17842.359958.55975.08606.23776.08036.236 1.316913.40568.988674.13567 1.052824.17147 1.402547.78272.241613.4223.303285.91538.150255 1.20132-.126502.23637-.496594.38323-.96575.38323-.281153 0-.540525.0548-.738943.15598l-.305732.15597.242051.52219c.133128.28721.272001.5826.308605.65643.144041.29053.376925.95774.376963 1.08.000021.071-.03196.1408-.07106.15501-.09363.034-.124664.65366-.04932.98495.03887.17091.02914.28033-.02808.31569-.04816.0298-.102032.31879-.119714.64228-.04352.79614-.147636 1.13842-.449518 1.47775-.239756.26949-.442985.39424-.321178.19716.03433-.0555.02125-.0684-.03446-.034-.05092.0315-.06975.13521-.04352.23972.06645.26475-.191493.67824-.398545.63888-.227337-.0432-.344667.12077-.344667.48169 0 .22111-.03286.31329-.111683.31329-.06143 0-.131491-.032-.1557-.0712-.06607-.1069-.466754.11978-.569075.32194-.04887.0966-.09864.29762-.110603.44682-.01717.21418-.05844.27648-.196133.29603-.128426.0182-.174385-.0141-.174385-.12271 0-.23926-.0879-.25852-.248429-.0544-.173048.22-.484536.25257-.59128.0618-.06417-.11467-.106101-.1015-.370282.11626-.335505.27655-.432792.29778-.57566.12564-.07137-.086-.115174-.0946-.154817-.0305-.08759.14172-.512843.009-.652024-.20329-.125513-.19155-.381658-.25257-.468744-.11166-.02624.0424-.0096.48671.03698.98725.05826.62608.05963.91841.0044.93683-.04417.0147-.08031.17526-.08031.35676s-.05194.50121-.115418.71046c-.06348.20926-.115795.57674-.116257.81663-.000543.28289-.0398.4685-.111725.52819-.07329.0608-.125576.32023-.154217.76516-.02383.37022-.06381.98267-.08884 1.361-.05217.78843.08302 1.49021.434844 2.2573.117304.25577.282331.62548.366726.82159.138193.32111.18938.36561.51495.44758.209322.0527.481233.20076.645919.35168.260192.23845.276643.27771.193151.46095-.101422.2226-.532063.43856-.949091.47597-.149196.0134-.541241-.003-.871211-.0366zm1.158207-.24973c.119231-.0509.27836-.14395.35362-.20686.130037-.10869.128684-.12305-.02723-.28901-.09024-.0961-.369753-.23625-.621148-.31156-.445155-.13334-.461085-.14761-.610451-.54683-.08435-.22545-.187335-.47172-.22885-.54727-.458145-.83369-.720981-2.38331-.535979-3.16003.05077-.21314.09498-.654.09826-.97968.0047-.46379.03738-.62695.150895-.75268.120664-.13364.136111-.23117.09223-.58234-.03588-.28717-.02411-.4395.03687-.47719.05906-.0365.07223-.17106.03865-.39496-.03815-.25438-.02542-.33961.0507-.33961.06482 0 .108736-.11932.121248-.3294.05914-.99299.0577-1.28023-.0074-1.48089-.10994-.33867.06994-1.05738.264646-1.05738.0822 0 .149451.0272.149451.0605s.104631.10001.232513.14828c.127883.0483.232514.1361.232514.19519 0 .0774.07681.0985.274724.0754.181851-.0212.321804.0105.413992.094.129425.11713.153043.11327.334182-.0546.107203-.0993.211412-.23013.231576-.29063.03026-.0908.07319-.0933.24582-.0147.115037.0524.228538.1458.252226.20753.03199.0834.103275.0437.277119-.15434.128731-.14662.282757-.26657.342282-.26657.05953 0 .108229-.0523.108229-.11626 0-.0646.06889-.11626.155009-.11626.08612 0 .155009-.0517.155009-.11625 0-.0639.04804-.11626.106767-.11626.05872 0 .152512-.0551.208424-.12249.05907-.0712.176335-.10821.279928-.0884.167225.032.175307.0155.130441-.26503-.0322-.20139-.01873-.29912.04124-.29912.04899 0 .1288-.0872.177355-.19376.109873-.24114.292874-.25277.304908-.0194.0068.13122.01776.14081.04443.0388.01949-.0746.06776-.13564.107266-.13564.0395 0 .07182-.13523.07182-.30052 0-.30508.157519-.53002.306624-.43787.04449.0275.0809-.004.0809-.0708 0-.0665.04393-.12083.09761-.12083.204831 0 .300111-.33295.328639-1.1484.01696-.48467.0626-.83591.110698-.85194.0572-.0191.0574-.073.000698-.17897-.04465-.0834-.05764-.22585-.02887-.3165.116403-.36676.05776-1.27639-.102085-1.58333-.243677-.46788-.63921-1.3877-.63921-1.48642 0-.17385.598272-.40218 1.062601-.40555.525421-.004.908282-.17857 1.068744-.48786.09936-.19152.09454-.24338-.04802-.51688-.08715-.16721-.286379-.44529-.442727-.61797-.282902-.31244-.288556-.31452-1.175572-.43343-1.23855-.16602-1.235625-.16513-1.32192-.40354-.1648-.45531-.234817-.53698-.428597-.49994-.10744.0205-.187099-.001-.187099-.0508 0-.0476-.05232-.0865-.116257-.0865-.06394 0-.116257-.0523-.116257-.11626 0-.15087-.109366-.14838-.236985.005-.05553.0669-.164428.10505-.242004.0848-.07758-.0203-.141047-.005-.141047.0334 0 .0386-.0794.0702-.176437.0702-.218229 0-1.19722.76832-1.347101 1.05722-.06333.12206-.09017.30215-.06329.42455.03535.16096.01052.23191-.102322.2923-.408651.21871-.581508.86408-.479739 1.79115.0351.3197.03699.7264.0042.90376-.04545.24589-.03643.31359.03798.28504.102708-.0394.144313.0598.224589.53567.03108.18425.09141.29065.164795.29065.09557 0 .111856.11831.09337.67816l-.02239.67817-.25189.0243c-.225722.0218-.25189.003-.25189-.17687 0-.11064-.05232-.32637-.116257-.4794-.06394-.15304-.116257-.38302-.116257-.51108 0-.24033-.682263-1.58987-.89159-1.7636-.06378-.0529-.115966-.14067-.115966-.19498 0-.11349-.479578-.55362-.725527-.66585-.09118-.0416-.236182-.11774-.322234-.16919-.193161-.1155-1.122368-1.06431-1.122368-1.14604 0-.0327-.08268-.15803-.183728-.27852-.10105-.1205-.208283-.34116-.238293-.49035-.0823-.40915-.268977-.77505-.395414-.77505-.06194 0-.112621-.0292-.112621-.0648s-.172986-.20131-.384414-.36815c-.254301-.20066-.385467-.36286-.387523-.47919-.0025-.14343-.03543-.16775-.178394-.13187-.09641.0242-.314389-.0165-.484404-.0904-.1700157-.0739-.3420617-.12568-.3823257-.11499-.11595.0308-.45369-.16599-.6386-.37202-.1427654-.15907-.1882723-.17284-.2905722-.0879-.097509.0809-.1666147.0819-.352377.005-.1270937-.0526-.3230501-.0726-.435459-.0444-.1404569.0353-.2500113.01-.3502754-.0807-.085775-.0776-.1458952-.0951-.1458952-.0425 0 .0492-.082922.0895-.1842715.0895-.1013494 0-.2276897.0523-.2807562.11625-.053067.0639-.1965486.11626-.3188491.11626-.1685618 0-.3415325.1172-.7148833.4844-.5347794.52597-.7098023.82579-.8160343 1.39788-.037884.20402-.119553.43072-.1814867.50378-.061934.0731-.1745641.30072-.2502897.50591-.1404227.3805-.4837374.88484-.9331207 1.37078-.3304176.3573-.7380718.96845-.7380718 1.1065 0 .0604-.048828.21103-.108506.33481-.059678.12377-.2053367.43431-.3236855.69007-.225799.48798-.8240865 1.28447-1.3098973 1.74385-.4661773.44082-.6888387.95167-.6944895 1.59335-.00429.48736-.029383.57613-.2300167.8138l-.2251994.26676.2058232.0245c.2327119.0277.2517599.11969.099696.48135-.1074939.25565-.087648.54044.037662.54044.037656 0 .068465.13829.068465.30732 0 .20889.075089.42573.2344231.67698.1289327.2033.2712274.50632.3162104.67338.044983.16705.1747531.42024.2883778.56265l.2065902.25891.091775-.48395c.050476-.26618.073062-.54934.05019-.62926-.022872-.0799-.0007673-.17054.049115-.20137.062901-.0389.024118-.13518-.126534-.31422-.1850861-.21997-.2214062-.34078-.2454222-.81637-.020758-.41107.0065-.63129.1034181-.83553.094049-.19819.1165075-.3667.078698-.59049-.034869-.20639-.024161-.31316.03141-.31316.046374 0 .084317-.0849.084317-.18871 0-.35585.1401273-.59923.3295196-.57233.1304176.0185.179598.0832.1954755.25726.011668.12789.075653.46465.1421883.74836.1414974.60335.1970582 2.80887.076819 3.04937-.042624.0853-.1035425.3294-.1353735.54253-.031831.21314-.089072.55319-.127203.75567-.04146.22017-.040525.51613.00233.7363.1131932.58155.094189.78549-.091631.98328-.1540648.164-.1686454.24402-.1371971.75299.019353.31322.091982.76019.1613975.99328.2491206.8365.1408618 2.40034-.2135948 3.08545-.090194.17433-.1155755.3386-.080888.5235.03516.18742.01251.3275-.074398.46014-.068721.10488-.1249469.23883-.1249469.29767 0 .18432.2684359.36042.66129.43381.3142076.0587.3937384.0494.4700039-.0549.075295-.10298.1267581-.10962.2862502-.0369.1069481.0487.2694914.069.3612073.045.1411541-.0369.1588977-.0807.1155706-.28543-.028152-.133-.1378433-.35714-.2437583-.4981-.1237-.16463-.1779447-.31708-.1516716-.42628.042889-.17825-.015713-.50761-.2156889-1.21226-.1747534-.61577-.1804206-2.16135-.010073-2.74733.078224-.26908.1433115-.8101.1584922-1.31742.026484-.88504.1175087-1.28711.291394-1.28711.05459 0 .1484774-.11335.2086376-.25189.06016-.13853.1907438-.37333.2901859-.52177.099442-.14843.1808038-.36822.1808038-.48841s.117998-.45215.2622178-.73768c.1607077-.31817.2993998-.74835.3582655-1.11122.052826-.32564.1231322-.6359.1562356-.68946.1089078-.17622.2684692-.0232.4170431.39997.080437.22909.1935179.4716.25129.5389.057772.0673.1050404.14768.1050404.17863 0 .031.070679.21143.1570647.40106.3377464.7414.4157033 1.88984.2168764 3.19498-.085906.5639-.085797.56455.1429363.85255.4773383.60102 1.3281632 1.98795 1.525171 2.48618.1132373.28637.1184805.37198.034411.5619-.06326.14292-.1572485.22406-.2595203.22406-.3939963 0-.7306127.66991-.7314424 1.45565-.000341.3219.02854.41859.1352009.45268.074598.0238.2145295.0812.3109585.12742.1491014.0715.2096529.0512.4048275-.1358.1262261-.12093.2863789-.39112.3558952-.60041.069516-.20929.1767555-.39986.2383096-.42348.1812702-.0696.3450343.21388.308325.53364-.044657.38899.091192.49084.8424558.6316.739406.13854 1.3563307.0946 1.3563307-.0965 0-.23588-.229895-.45886-.600703-.58266-.3695957-.12339-.7168757-.48953-.7168757-.75581 0-.0662-.06975-.20906-.155009-.31745-.08526-.10838-.155009-.22141-.155009-.25118 0-.0978.484596-.69041.823096-1.00649.3517187-.32843.8578887-.73264 1.4118907-1.12749.404742-.28847.687065-.83496.556949-1.07809-.05402-.10094-.05901-.30124-.01457-.58464.03718-.23711.03877-.44893.0035-.47071-.06457-.0399-.203853-.32974-.375649-.78166-.0717-.18862-.07207-.28411-.0016-.41576.09656-.18042.04282-.8145-.07521-.88745-.0359-.0222-.06527-.15813-.06527-.30208v-.26174l.670414.01.670415.01.06075.50353c.03341.27695.04035.70449.01542.9501-.0366.36061-.02218.45545.07489.4927.06611.0254.120209.0961.120209.15723 0 .0611.07458.21198.165738.33528.121743.16466.153117.28727.118194.46189-.03707.18536-.02047.23771.0754.23771.09846 0 .112842.0539.07221.27045-.02791.14874-.01229.4016.03471.56191.06641.22652.0614.35966-.02246.59755-.09613.27271-.09217.35725.03639.77505.07936.25792.199318.58667.266571.73055.06725.14387.134784.48437.150068.75665.01529.27229.06166.62541.10306.78472s.07756.60956.08035 1.00055c.0053.7485.03713.91388.215702 1.12245.09119.10651.09351.18262.0137.44899-.113125.37758-.04122.48876.395466.61142.385466.10827 1.271012.10693 1.52707-.002zm-7.8633822-5.04219c-.042579-.0533-.2299546-.40934-.4163889-.79123-.3306676-.67735-.3396118-.7159-.3651273-1.57396-.017318-.58238.013428-1.06797.090987-1.43703.123282-.58662.1971716-1.12862.2503351-1.83624.050924-.67782.1061689-.85255.2695502-.85255.1957294 0 .3272105.2591.3932964.77505.1202353.93869.1568213 1.06767.2927675 1.03212.1018977-.0267.1478858.0557.2180945.3904.04893.23329.06994.49694.04668.58589-.03.1147-.0059.16172.08301.16172.137309 0 .171618.19474.04779.27126-.105496.0652-.09809.32691.01117.39443.04877.0301.188279.052.310019.0485.184533-.005.221344.0251.221344.18228 0 .12786.04367.18864.135633.18877.08514.00007.2160587.15411.3516567.41364.257513.49286.227299.63026-.2457797 1.11774-.175458.1808-.319014.37699-.319014.43597 0 .16371-.350586.3576-.646573.3576-.1454763 0-.3079206.0523-.3609872.11626-.1175218.1416-.2646023.14934-.368457.0194zm.6397232-.33227c.3121173-.0559.5812843-.22686.5812843-.36924 0-.0423.157046-.24473.34899-.44993l.3489877-.3731-.128736-.26996c-.1141897-.23946-.1544167-.26483-.3559937-.22451-.219112.0438-.226311.036-.200876-.21748.02338-.23302-.000057-.27174-.206133-.34048-.4038474-.13471-.4472104-.1899-.4037574-.51387.022127-.16497.00868-.31946-.029895-.34329-.03857-.0238-.070128-.21567-.070128-.4263 0-.36191-.011201-.38294-.2039665-.38294-.1916976 0-.2015725-.0179-.164168-.29672.023026-.17168-.0065-.40683-.070061-.558-.060423-.1437-.089936-.35199-.065584-.46286.024351-.11087-.00615-.32149-.067764-.46805l-.1120392-.26646-.041991.27037c-.023095.14871-.062375.58427-.087289.96792s-.1171025.98949-.2048641 1.34632c-.1163683.47314-.1523276.82983-.132828 1.31757.024592.61513.057316.73248.4077168 1.46207.2566395.53437.408409.77061.4650277.72385.046227-.0382.2235574-.0944.3940676-.12491zm7.30838-11.28957c.02018-.3778.0038-.43455-.135633-.47102-.127438-.0333-.158579-.10426-.158579-.36118 0-.23343-.03661-.33344-.135633-.3706-.0746-.028-.18223-.10537-.239181-.17195-.05695-.0666-.03079.005.05813.15935.08892.15423.161677.38539.161677.51369s.05232.35849.116256.51152c.06394.15303.116257.36946.116257.48095 0 .12754.03593.19086.09688.17075.05799-.0191.106092-.20438.119827-.46151z"/><path d="m7.4534946.15263c-.3683728.0617-.6843863.25522-1.0317802.37057-.7340516.47175-1.3239137 1.19613-1.4750098 2.06841-.4594981 1.47581-1.8105079 2.44598-2.2822793 3.90939-.3884623.93846-1.0839331 1.67785-1.7334288 2.43145-.4476197.55887-.3985988 1.3084-.5958168 1.96184-.1971141.17781-.3370535.58558.031486.62972-.00999.33225-.237643.70204.00242 1.01968.1864901.69394.5162843 1.3584.8428627 2.00058.064927.23391.464798.50535.5255782.12837.048596-.53795.2813553-1.17741-.096881-1.65182-.2423734-.60831-.043-1.2505.070239-1.85769-.054787-.37459.078893-.80208.2809543-1.09959.2086174.11232.1376457.48943.2203253.69176.1992813 1.45548.2595965 2.96882-.1089125 4.40417-.1371879.56231.088291 1.15747-.043596 1.70994-.4733659.51432-.1066877 1.25278-.065395 1.85042.2300449 1.10885.1041224 2.26058-.2276698 3.32059-.00736.38068-.1404588.72817-.2204038 1.09233.1326074.45806.7622549.61905 1.1819454.51105.261316-.17632.7594613.15972.8840371-.25916.037786-.45474-.4065426-.79487-.3705689-1.25702-.2769282-1.26777-.4850509-2.58843-.2160416-3.88135.1386995-.75101.084455-1.55415.2959682-2.27785.4668419-.58607.7866258-1.27934.9857619-2.00543.2775359-.60348.4493462-1.33652.6176149-1.91097.7245588 1.16468 1.1600089 2.56027.9705518 3.95011.02447.5421-.314587 1.17713.1409384 1.60518.5522902.86391 1.2492733 1.67862 1.5285109 2.67473.022125.41646-.5391608.4231-.6878535.76051-.3297861.47944-.2948407 1.09024-.3318166 1.64455.3112989.12086.7683455.44261 1.0317802.0557.2572231-.27129.3669139-.74583.6345691-.95428.1649756.31236.011084.81841.4359635.97123.6095254.21859 1.3126174.27935 1.9448811.12837.324784-.28166-.11935-.67887-.394789-.78716-.4569217-.13532-.7251487-.49151-.8816147-.92279-.143662-.23822-.246303-.51669.03391-.69996.6593237-.7998 1.5663707-1.32929 2.2645877-2.07809.421351-.58534.310285-1.40059.150165-2.06114-.197426-.38534-.340204-.78973-.232514-1.22796.07337-.37722-.185269-.7669-.169541-1.10202.369576-.024.801496-.0105 1.131083.11383.08937.59633-.04322 1.23221.128367 1.80925.279761.26716.412278.68917.431119 1.07295.261246.32149.0963.79435.167119 1.18679-.167206.63937.07055 1.27016.266423 1.87707.358359 1.15483.206846 2.39958.513468 3.55795.232914.32895-.157814.87802.297908 1.09475.704864.26335 1.649053.33876 2.250056-.19134.183161-.36604-.357474-.57639-.617615-.6927-.365591-.0795-.642998-.33495-.720646-.71314-.55624-1.14765-.827766-2.43485-.633414-3.71385.02826-.61632.112833-1.22565.271417-1.81213.07444-.59948.08385-1.21584.259157-1.78503.10301-.8021-.07183-1.64716.152587-2.42686.36278.23047.751986.46358 1.181945.49651.279447.21197.579778.00054.73145-.25431.224202-.30799.493716.51462.698712.0975.254344-.28839.582453-.49418.870757-.71998.163412-.26629.498825-.25815.733871-.38026.163183-.21323-.105217-.55048.196184-.71449.102828-.27311.364879.087.484404-.17197.127036-.28165.106725-.66959.445652-.792.615301-.48872.431131-1.38.541286-2.07059-.0071-.68873.129345-1.41855-.03906-2.08229-.197277-.52537-.521561-1.05945-.652388-1.58246.599742-.47865 1.660413-.082 2.068405-.8695.176817-.57615-.379319-1.06804-.745982-1.43384-.356606-.33601-.919018-.17599-1.355016-.34119-.338445-.11481-.864651.0123-.953169-.44839-.141914-.36424-.585934-.36131-.823486-.63699-.380315-.1958-.725336.25168-1.099597.28822-.416569.29083-.894121.57449-1.160147 1.01725-.113817.28875-.01543.66586-.326973.84529-.519807.59766-.301517 1.48427-.351193 2.2113.0066.33216-.0021.66851.186496.93974.02853.40762.399218.67515.3332 1.09474-.05177.27553.190602.86387-.265384.73631-.138853-.23169-.118149-.62582-.247518-.89772-.381339-1.1726-.959248-2.44346-2.113951-3.0308-.814565-.59658-1.39602-1.46365-1.734165-2.40506-.319868-.47762-.908658-.77186-1.160148-1.28852-.33054-.14079-.7295387-.0921-1.0584217-.27611-.408438-.18119-.7777275-.50926-1.2666476-.45134-.3224324.0237-.6197037-.0887-.9252804-.11299zm.5958168 13.15399c.2824757.0938.1953705.53398.2979084.76294.1322825.32129.020531.8913.3947891 1.05358.2111964.34962.080185.82269.2930644 1.14561-.04919.22919-.1240756.65743.232514.66363.31976-.0276.407331.3297.632147.48925.2079887.29084.4402857.70296.1186787 1.00998-.3117927.37831-.5252407.97221-1.0995966.98819-.2366426.0254-.563533.39398-.6708994.0145-.4092663-.6906-.7574241-1.42562-.6781654-2.24763.00618-1.29077.3002436-2.55906.4480736-3.83164-.00712-.0356.00516-.0507.031486-.0484z" stroke="#000" stroke-width=".075472"/></svg>