<svg height="45" viewBox="0 0 45.201298 45" width="45.201298" xmlns="http://www.w3.org/2000/svg"><g transform="matrix(.06898916 0 0 .06898916 5.329434 5.239748)"><path d="m431.6 196.1c-.2-1.3-.4-2.7-.6-4-.3-1.3-.5-2.6-.9-4.1l-1-1.6c-4.2-3.3-8.7-5.8-13.3-8-3.8-1.8-7.6-3.3-11.5-4.8-10.8-30.1-29.5-56.8-54-75.4-25.5-19-55.3-29.2-86.3-29.2s-60.8 10.2-86.2 29.4c-24.5 18.6-43.2 45.3-54 75.4-3.9 1.4-7.7 3-11.5 4.8-4.6 2.2-9.1 4.7-13.3 8l-1 1.6c-.4 1.5-.7 2.7-.9 4.1-.3 1.3-.5 2.6-.6 4-.4 2.6-.6 5.3-.8 7.9-.3 5.3-.1 10.6.5 15.9s1.5 10.5 3 15.7c.7 2.6 1.6 5.1 2.6 7.7.5 1.3 1 2.5 1.6 3.8.3.6.6 1.2.9 1.9.7 1.3.9 1.5 1.2 2l1.4 1.3c.9.5 1.6.8 2.5 1.2l2.4 1.1c.4.2.9.4 1.3.5-10.8 9.9-22.4 22.9-32.6 38.8l-12.8 20.2 17.9-15.7c.3-.3 15.3-13.3 40.4-28l.4 2.9c-1.6.9-9.5 5-11.9 7-3.9 3.2-4.1 8.2-3 17.6.5 4.8 2.3 14.1 4.8 22.6 4.2 14.7 7.2 17.3 9.9 17.9 1.2.3 2.8.4 4.5.4 4.8 0 11-.9 15-2.1 4.7 14.7 11.4 27.9 19.5 39.5-.4.1-.8.2-1.2.3-4.9-2.3-22-10.2-27.8-12.8l-12-5.4 7.1 11.1c.5.8 12.8 19.9 22.8 32.8 9.4 12 22.2 24.3 46.4 24.3 2.9 0 6-.2 9.1-.5 7.2-.8 12.6-1.5 16.8-2 25.4 9.3 53.4 9.9 80-.2 7.3-2.8 13.9-6.1 20-9.9 10.3-2.5 21.5-5.1 27-6.7.9-.2 2-.5 3.2-.8 7.7-1.8 20.6-4.8 27.5-18.5 6.9-13.9 18.2-35.2 18.4-35.4l5.3-9.9-10.3 4.5c-.6.3-13.6 5.9-20.4 9.5 4.7-10.8 7.5-19.8 8.5-23.3 3.8.9 9.4.8 13.6.8 2 0 4.1-.4 5.5-.7 2.7-.7 4.8-2.5 8.7-17.6 2.3-8.8 3.9-18.4 4.4-23.3.9-9.6.6-14.7-3.3-18-1.9-1.6-7.7-4.7-10.6-6.2 1.6-.7 2.4-.5 2.5-.5l2.6-10c.9-.4 1.9-.8 3-1.2 1.6-.6 3.2-1.3 4.8-2l2.4-1.1c.8-.4 1.6-.7 2.5-1.2l1.4-1.3c.3-.5.5-.7.6-1 .9-1.6 1.2-2.2 1.5-2.8.6-1.3 1.1-2.5 1.6-3.8 1-2.5 1.8-5.1 2.6-7.7 1.4-5.2 2.4-10.4 3-15.7s.7-10.6.5-15.9c-.7-2.9-.9-5.5-1.3-8.2z" fill="#0e0f0d"/><path d="m280.6 402.3c-1.9.3-3.9.5-5.8.7-1.3.1-2.6.2-3.8.2h-.4c1.5-3.3 2.6-5.9 3.5-7.9 1.8 2 4 4.4 6.5 7" fill="#e1c5a2"/><path d="m278.3 252.7c-3 2.5-6.2 4.8-9.6 6.8l-11.1 6.7c-7 .9-13 2.6-13.4 2.7-.2 0-.4.1-.6.2-.5.3-1 .8-1.2 1.5l-11.3 37.4-60.6 13.5-19.1-13.4-5.5-45c10.8-2 25.3-4.3 42.7-6.2-1.9 2.2-3.7 4.6-5.4 7l-10.4 14.9 15.1-10.1c.2-.2 9.8-6.5 25.5-14.2 15.7-1.2 32.9-1.9 51.4-1.9 4.7 0 9.1.1 13.5.1zm-94.3 50.7c4.3-2.3 9.2-2 16.8-2h2.5 2.3c7.8-.1 14.4.7 14.2-11.6-.1-12.3-5.6-22.3-13.4-22.2s-15.4 10.2-15 22.5c.1 3.2.6 5.5 1.4 7.2-6.8 1.6-8.7 5.8-8.8 6.1z" fill="#a89983"/><path d="m383.3 263-5.5 38.2-19.2 13.5-60.5-6.9-11.3-37.2c-.3-.8-.9-1.5-1.7-1.7-.4-.1-7.9-2.3-15.8-2.9l1.5-.1c1.3-.1 22.1-2.6 47-11.2 27.5 2.1 50.1 5.5 65.5 8.3zm-38.7 35.3c-.1-.3-1.7-5.2-9-4.4.8-1.8 1.2-4.3.9-7.7-1-12.3-8.1-22-15.9-21.8-7.8.3-12.9 10.5-12.4 22.8.4 12.3 7 12.2 14.8 11.9 10.5-.1 16.3-3.3 21.6-.8z" fill="#a89983"/><path d="m323.9 276.2c0 2.2-1.7 4-3.9 4.1-2.2 0-4-1.7-4.1-3.9 0-2.2 1.7-4 3.9-4.1 2.3 0 4.1 1.7 4.1 3.9" fill="#fff"/><path d="m211.6 279.2c.1 2.2-1.7 4-3.9 4.1s-4.1-1.7-4.1-3.9c-.1-2.2 1.7-4.1 3.9-4.1 2.2-.1 4.1 1.7 4.1 3.9" fill="#fff"/><path d="m409.7 279.8c-.9-.8-4.1-2.6-7.2-4.3l-5.1 35.5c-.1.7-.5 1.3-1.1 1.7l-7.3 5.1c-.2.9-.3 1.6-.4 2.2 7.1 1.8 14-3.4 17.9-7.1 1.8-7 3.4-15.3 3.9-21.3.9-9.1.2-11.1-.7-11.8" fill="#e1c5a2"/><path d="m297.6 414.8c-4.7-1.7-9-4.4-12.8-8.1-.3-.3-.6-.6-.9-.9-2.9.6-5.9 1-8.9 1.3-1.3.1-2.5.2-3.8.2h-2-.8c-4.5 6.7-12.1 10.4-18 12.3 17.7 2.9 37.1-1.7 47.2-4.8" fill="#e1c5a2"/><path d="m142.7 327.7c-.2-.5-.3-1.1-.5-1.6l-9.4-6.6c-.6-.4-1-1.1-1.1-1.8l-4.6-37.3c-3.4 1.8-7.3 4.1-8.4 4.9-.9.8-1.6 2.7-.6 11.6.7 6.7 3.1 17 5.5 24.6 4.8 3.7 11.8 7.6 19.1 6.2" fill="#e1c5a2"/><path d="m283.6 326c-1-.1-1.8-.8-2.1-1.8l-11.6-38.3c-2-.3-3.7-.4-5.1-.4-1.5 0-3.2.1-5.1.4l-11.3 37.2c-.3.9-1 1.5-1.9 1.7l-5.4 1.2c-.5 1.9-2 4.7-7 6.2-8.1 2.5-59.3 17.7-65.1 16.9-3.4-.5-9.9-4.1-14.7-7-1.9-4.5-3-7.6-3.2-8.3.7 2 7.4 21.2 20.9 40 14.6-4.3 27.1-8.3 31.1-9.6 8.2-12.6 19.8-25.1 28.1-25.6 1.4-.1 2.9-.1 4.4-.1 4.1 0 7.9.3 11.5.7-3.1-2.8-3.7-6-4.1-7.5 0 0 10.6 8.3 24 6.5 13.5-1.7 21.8-9.5 21.8-9.5l.3-2.4z" fill="#e1c5a2"/><path d="m294.5 330.9c-2.8-.7-4.5-1.9-5.7-3.1l-.1 1.2s0 5.7-5.9 10c11.3-3.4 15.9-4.6 19.1-4.6 3.5 0 5.3 1.5 6.8 2.8.3.2.6.5.9.8 8.7 6.8 19.1 15.1 22.2 17.6 3.5.4 14.7 1.7 21.8 2.3 4.1.4 7.7.7 11.3.7 1.2 0 2.2 0 3.3-.1 3.7-7.1 7.1-15 10.2-23.7-4.2 2.9-13.7 9.3-18.1 10.2-5.8 1-57.6-12-65.8-14.1" fill="#e1c5a2"/><path d="m424.9 196.9c-.1-1.2-.2-2.5-.4-3.7-.1-.9-.2-1.8-.4-2.6-3.3-2.8-7-5.2-10.9-7.4-4.2-2.5-8.6-4.7-13.1-6.7-4.4-2.1-9-4-13.6-5.9-2.3-.9-4.6-1.8-6.9-2.7s-4.6-1.7-7-2.6c4.9.8 9.8 1.9 14.6 3.2 3.1.8 6.3 1.7 9.4 2.7-22.1-57.8-75-95.4-132.7-95.4s-110.5 37.6-132.6 95.4c3.1-1 6.2-1.9 9.4-2.7 4.8-1.2 9.7-2.4 14.6-3.2-2.4.9-4.7 1.7-7 2.6s-4.6 1.8-6.9 2.7c-4.6 1.9-9.2 3.8-13.6 5.9-4.5 2-8.9 4.2-13.1 6.7-3.9 2.2-7.6 4.7-10.9 7.4-.1.8-.3 1.7-.4 2.6-.1 1.2-.3 2.4-.4 3.7-.2 2.5-.3 4.9-.3 7.4-.1 5 .3 9.9.9 14.8.7 4.9 1.6 9.8 2.9 14.5.7 2.4 1.4 4.7 2.3 6.9.4 1.1.9 2.2 1.4 3.3.2.5.5 1.1.8 1.6l.3.6c.4.2.7.4 1.1.5l2.2 1c1.2.6 2.9 1.4 4.3 2l.2-.2-4.1-15.5c.9-.2 8.6-2.2 22-4.8-1.1-.2-2.2-.4-3.2-.7-3-.8-6-1.7-8.9-2.9-1.4-.6-2.9-1.3-4.2-2-1.4-.8-2.7-1.7-3.7-2.8 14.7 4.8 45 2.6 71.9-.2 24.6-2.5 49.3-4.2 74.2-4.2 24.8.1 49.5 1.7 74.1 4.2 26.9 2.8 57.3 5 71.9.2-1 1.2-2.4 2-3.7 2.8-1.4.8-2.8 1.4-4.2 2-2.9 1.2-5.9 2.1-8.9 2.9-.5.1-.9.2-1.4.3 14.6 2.7 23.2 4.9 24.1 5.2l-3.9 14.8c.8-.3 1.6-.7 2.4-1l2.2-1c.4-.2.7-.4 1.1-.5l.3-.6c.3-.5.5-1 .8-1.6.5-1.1 1-2.2 1.4-3.3.9-2.3 1.6-4.6 2.3-6.9 1.3-4.7 2.2-9.6 2.9-14.5.6-4.9 1-9.8.9-14.8-.2-2.6-.3-5-.5-7.5" fill="#e0d896"/><g fill="#d7c184"><path d="m324.7 168.2c.2 6.6.1 18.6-3 29.8-.1.4-.1.9 0 1.3-3.9-.4-7.8-.8-11.8-1.1 4.4-9.2 5.4-19 5.6-22.5 3.4-2.4 6.7-5.3 9.2-7.5"/><path d="m212.5 175.7c.2 3.5 1.2 13.3 5.6 22.5-3.9.3-7.8.7-11.8 1.1.1-.4.1-.8 0-1.3-3.1-11.2-3.2-23.2-3-29.8 2.5 2.2 5.8 5.1 9.2 7.5"/><path d="m372.9 208.4-.1.3c.4.1.9.3 1.3.4 3.6 1.2 7.3 2.4 10.7 4-5.8-3.8-9.5-14.6-11.5-22.9.6 10.9-.4 17.8-.4 18.2"/><path d="m198.5 166.1-37.5 10.6c-2.2 14.6-1.6 25.7-1.2 29.5l.2-.1s1.2-15.9 3.7-22c1.3-3.1 9.1-5.1 15.1-6.5s15.5-4.3 17.4 4.1c1.1 5.2 2.7 9.5 4.2 12.7-2.4-11.5-2.2-22.8-1.9-28.3"/><path d="m329.5 166.1c.3 5.8.4 17.8-2.3 29.8 1.7-3.3 3.6-8.1 4.9-14 1.9-8.4 11.4-5.6 17.4-4.1 6 1.4 13.8 3.4 15.1 6.5 2.1 5.2 3.3 17.3 3.6 20.9.4-4.6.7-15.1-1.3-28.4z"/><path d="m212.2 169.3c1.3 1.1 2.7 2.1 4.1 3 .7.5 1.1 1.2 1.1 2 0 .1.3 12.5 5.7 23 .1.2.1.3.2.5 13.6-.9 27.2-1.3 40.7-1.3 13.6 0 27.2.4 40.7 1.3.1-.2.1-.4.2-.5 5.4-10.5 5.7-22.8 5.7-23 0-.8.4-1.5 1.1-2 1.3-.9 2.6-1.9 3.9-2.9l.2-.5c2.8-27.6-2.4-53-5.7-65.6-.2 8.6-2.2 82.2-20.5 82.2h-23.3-3.9-23.3c-19.4 0-21-83-21-83l-1 2.9c-3.1 13.3-7.6 37.7-4.9 63.9"/><path d="m155.2 208.7-.1-.3c-.1-.4-1-7.3-.4-18.2-2 8.3-5.7 19.2-11.5 22.9 3.5-1.6 7.1-2.9 10.7-4 .4-.1.9-.2 1.3-.4"/></g><path d="m388.7 320.1c-.3 1.6-.6 2.9-1.1 4.9 4.2 1 11 1.7 14.2 1.1 1.4-1.5 3.2-6.8 4.8-13.1-3.9 3.7-10.8 8.8-17.9 7.1" fill="#9f8f78"/><path d="m239.7 421.9c9.9 2.7 20.1 3.9 30.1 3.2s23-2.8 36.9-8.5c-3.1-.2-6.1-.9-8.9-1.9-10.2 3.1-29.5 7.7-47.1 4.7-4.7 1.5-8.3 2-8.7 2.1-.9.1-1.5.2-2.3.4" fill="#9f8f78"/><path d="m143.3 330c-.2-.7-.4-1.5-.7-2.2-7.3 1.3-14.3-2.5-19.1-6.2 1.5 4.9 3.1 8.8 4.3 10 3.7.6 11.6-.5 15.5-1.6" fill="#9f8f78"/><path d="m154.1 342.3c4.8 2.9 11.3 6.5 14.7 7 5.8.8 57-14.4 65.1-16.9 5-1.5 6.6-4.3 7-6.2l-73.9 16.4c-.2 0-.4.1-.6.1-.5 0-1-.2-1.5-.5l-2.9-2-8.6-6-3.5-2.4c.1.2.1.4.2.6.2.6.4 1.2.6 1.7.4.6 1.5 3.7 3.4 8.2" fill="#9f8f78"/><path d="m380.6 328.1c.5-1.7.9-3.5 1.4-5.3l-2.6 1.8-6.9 4.8-7.5 5.2c-.4.3-.8.4-1.3.5-.2 0-.3 0-.5 0l-74.4-8.5-.1 1.2c1.1 1.2 2.9 2.4 5.7 3.1 8.2 2.1 60 15.1 65.8 14.1 4.5-.8 14-7.2 18.1-10.2l.1-.3c.3-.9.6-1.9 1-2.8.5-1.2.9-2.4 1.2-3.6" fill="#9f8f78"/><path d="m302 227.9c-.6.8-1.2 1.6-1.9 2.5-3.5 4.5-8.4 10.2-14.2 15.7-6.8-.2-13.7-.3-20.8-.3-11.8 0-23.1.3-33.8.8 15.2-6.3 33.4-12.4 53.1-16.1 5.7-1.1 11.6-2 17.6-2.6" fill="#6e6a67"/><path d="m213.2 234.7c-5.4 3.8-11.5 8.7-17.5 14.5-15.2 1.5-28.4 3.4-39.4 5.1 16.9-7.7 36-14.8 56.9-19.6" fill="#6e6a67"/><path d="m398.7 266-6.2 43.2-29.6 20.8-77.2-8.8-11.6-38.3c-.3-.9-1.1-1.6-2-1.8-2.9-.5-5.4-.7-7.5-.7s-4.6.2-7.5.7c-.9.2-1.7.8-2 1.8l-11.3 37.3-76.8 17.1-30.4-21.3-6-48.5c1.3-.7 2.6-1.5 4-2.2 1.9-.4 4-.8 6.3-1.3l5.6 45.8c.1.7.5 1.3 1.1 1.8l20.9 14.7c.4.3.9.5 1.4.5.2 0 .4 0 .6-.1l63.1-14c.2-.1.4-.1.6-.2.6-.3 1-.8 1.2-1.5l11.4-37.4c3-.8 10.9-2.6 17.7-2.6s14.7 1.8 17.7 2.6l11.4 37.4c.3 1 1.1 1.7 2.1 1.8l63.1 7.2c.6.1 1.2-.1 1.7-.4l20.9-14.6c.6-.4 1-1 1-1.7l5.6-39.1c4.4.5 7.9 1.2 10.7 1.8" fill="#6e6a67"/><path d="m406.5 238.9-5.4 20.6c-11.1-2.5-35.5-7.3-68.7-10.5 10.8-4.6 21.9-10.4 32-17.7 19.7 2.8 34.2 5.8 42.1 7.6" fill="#6e6a67"/><path d="m123.5 238.9 1.5 5.7c4.2-3.4 8.1-6.2 11.4-8.4-5.3 1.1-9.7 2-12.9 2.7" fill="#6e6a67"/><path d="m336.6 227.4c-8.3-.5-16.6-.9-24.9-1.2-.5.7-1.5 2.1-2.9 4.1-4.5 6-13.2 17-24.5 26.5 8.5-2.7 42.1-14 59.1-28.9-2.3-.2-4.6-.3-6.8-.5" fill="#93232c"/><path d="m275.6 225.2c-4.2-.1-8.4-.1-12.6-.1-6.2 0-12.4.1-18.6.2l-11.4 5.4-.2.1c-1.7.8-16.7 8.4-30.9 21.9 1.2-.7 2.5-1.3 3.9-2 7.7-5.2 28.4-17.5 60.4-25.6 3.2.1 6.3.1 9.4.1" fill="#93232c"/><path d="m205.3 226.6c-5.3.2-10.6.5-15.9.8-6.1.3-12.3.8-18.4 1.2-3 .2-6.1.5-9.1.8-.9.1-1.7.2-2.6.3-8 4.8-38.6 24-59.6 49.1.4-.4.7-.9 1.1-1.3 39-33.1 81.6-46 104.5-50.9" fill="#93232c"/><path d="m381.2 363c-.2.1-.5.2-.7.4-3.9 2-9 3.1-15.6 3.1-3.9 0-7.8-.3-12.1-.7-8.5-.8-23-2.5-23.1-2.5l-1.1-.1-.9-.7c-.1-.1-12.8-10.2-23-18.2-.4-.3-.8-.7-1.1-.9-1.1-.9-1.1-.9-1.7-.9-3.3 0-12.8 3-33.7 9.4l-1.3.4-1.3-.5c-.1 0-13.8-5.1-30.3-5.1-1.3 0-2.7 0-4 .1-1.6.1-10.9 4.5-22.7 23.1l-.6 1.1-1.4.4c-.2.1-20.5 6.6-42.1 12.8l-1.4.4-1.3-.6c-.1 0-8.6-4-16.6-7.6.6.3 1.2.5 1.8.8 7.9 6.8 23.1 20 24.8 21.8.2.3.6.6.9.9-.4-.4-.8-.9-1.1-1.4 3.5 3.3 7.4 6.2 11.6 8.2 2.1 1 4.4 1.8 6.6 2.1 1.1.2 2.3.3 3.4.3 1.2 0 2.4 0 3.6-.1 4.7-.2 9.5-.6 14.3-1.1 4.8-.4 9.5-.9 14.3-1.5 4.8-.5 9.5-1.1 14.2-1.8 2.4-.3 4.7-.7 7-1.2 1.1-.3 2.3-.6 3.2-1 .8-.4 1.8-1.2 2.7-1.9 1.8-1.5 3.5-3.2 5.2-4.9s3.4-3.4 5-5.2c2.8-2.9 5.2-6 7.9-9 .3-.4.7-.8 1.1-1.2.6.4 1.1.8 1.7 1.2 3.3 2.4 6.6 5 9.8 7.3 4.2 2.9 8.4 5.9 12.8 8.3 1.1.6 2.2 1.2 3.3 1.5.1.1.3.1.4.1l.4.1c.2 0 .5 0 .8.1h1.8c2.5-.2 5-.5 7.5-.9 5-.8 10-1.7 15-2.7s10-2 14.9-3.1c5-1.1 9.9-2.2 14.9-3.5 2.4-.7 4.9-1.3 7.1-2.3s4.3-2.5 6.2-4.1c3.8-3.3 7.1-7.3 9.8-11.8 1.4-2.8 2.5-5.5 3.1-7.4" fill="#93232c"/><path d="m288 128.1h8.8v-17.9h-64.3v17.9h8.8v-9.1h18.2v55.2h-7.5v10.2h25.3v-10.2h-7.4v-55.2h18.1z" fill="#93232c"/><path d="m354.6 228.6c-3.7-.3-7.3-.5-11-.8h-.2c-17 14.9-50.7 26.2-59.1 28.9-.2.1-.3.3-.5.4 10.9-2 27.2-5.9 44.1-13.4 8.3-3.7 16.8-8.2 24.8-13.9.7-.3 1.3-.7 1.9-1.2" fill="#731b2a"/><path d="m266.3 225.1c-32.1 8.1-52.7 20.4-60.4 25.6 6.2-3.2 13.5-6.6 21.8-10.1l.1-.1c.8-.3 1.7-.7 2.6-1.1.3-.1.6-.2.8-.3.7-.3 1.5-.6 2.2-.9.4-.2.8-.3 1.3-.5.7-.3 1.4-.5 2.1-.8.5-.2 1-.4 1.6-.6s1.3-.5 1.9-.7 1.2-.4 1.8-.7c.6-.2 1.2-.4 1.8-.6.7-.2 1.4-.5 2.1-.7.5-.2 1.1-.4 1.6-.6.8-.3 1.6-.5 2.4-.8.5-.1.9-.3 1.3-.4l3.9-1.2c2.8-.9 5.8-1.7 8.7-2.5 3.9-1 7.8-2 11.8-2.9-3.2 0-6.3 0-9.4-.1" fill="#731b2a"/><path d="m205.3 226.6c-22.9 4.8-65.5 17.7-104.4 50.9-.4.4-.7.9-1.1 1.3 19.8-13.7 53.7-34.2 95.7-46.6 1.4-.4 2.7-.8 4.1-1.2 7-2 14.2-3.7 21.5-5.1-5.2.3-10.5.5-15.8.7" fill="#731b2a"/><path d="m388.8 359.4c-.1.1-.3.1-.4.2-.3.1-.5.3-.8.4-.2.1-.4.2-.6.3s-.3.2-.5.2c-.3.1-.5.3-.8.4l-.3.2c-.3.1-.6.3-.9.4l-.2.1c-.3.2-.6.3-.9.5h-.1c-.7.3-1.3.7-1.9 1-.6 1.8-1.7 4.6-3.4 7.6-2.7 4.4-5.9 8.5-9.7 11.7-1.9 1.6-4 3.1-6.2 4.1s-4.6 1.7-7.1 2.3c-4.9 1.2-9.9 2.4-14.9 3.5s-9.9 2.1-14.9 3.1-10 1.9-15 2.7c-2.5.4-5 .8-7.5.9-.6 0-1.2.1-1.8 0-.3 0-.6 0-.8-.1l-.4-.1c-.1 0-.2 0-.4-.1-1.1-.4-2.2-.9-3.3-1.5-4.4-2.4-8.6-5.4-12.8-8.3-3.2-2.3-6.6-4.9-9.8-7.3l-.4.4c.2.2.4.4.6.5-.1-.1-.3-.2-.4-.3l2.7 3.2s.1.1.3.4c1.4 1.6 7.2 8.4 14.1 15.2 5.3 5.2 11.6 7.8 18.9 7.8 2.5 0 5.1-.3 7.7-1 2.4-.6 5.1-1.2 7.8-1.9 8.1-1.9 17-4.1 22.9-5.6.4-.1.8-.2 1.1-.3.8-.2 1.6-.4 2.3-.6 1.1-.3 2.2-.6 3.5-.9 7.2-1.7 17-4 22.2-14.4 1.4-2.9 3.1-6.1 4.7-9.3 2.3-4.5 4.7-9.2 6.9-13.3.3-.7.7-1.3 1-1.9.2-.3.4-.7.5-1-.2.4-.6.6-1 .8" fill="#731b2a"/><path d="m271 381.9-.5-.4c-2.7 3-5.1 6.1-7.9 9-1.7 1.8-3.3 3.5-5 5.2s-3.4 3.4-5.2 4.9c-.9.7-1.9 1.5-2.7 1.9-.9.4-2.1.7-3.2 1-2.3.5-4.6.9-7 1.2-4.7.7-9.5 1.3-14.2 1.8-4.8.6-9.5 1.1-14.3 1.5-4.8.5-9.5.8-14.3 1.1-1.2.1-2.4.1-3.6.1s-2.3-.1-3.4-.3c-2.3-.4-4.5-1.2-6.6-2.1-4.3-2-8.2-4.9-11.6-8.2.5.6 1 1.1 1.5 1.7l-.3-.3c-.4-.4-.7-.7-.9-.9-1.7-1.8-16.8-15-24.8-21.8-.6-.3-1.2-.5-1.8-.8 1.4 2.1 2.9 4.3 4.5 6.6 2.3 3.3 4.8 6.8 7.1 10 1.1 1.5 2.2 2.9 3.2 4.2 8.6 11.1 19.4 21.3 40.2 21.3 2.6 0 5.4-.2 8.2-.5.7-.1 1.3-.1 1.9-.2s1.2-.1 1.8-.2c18.1-2.1 23-3 25.8-3.4.7-.1 1.3-.2 2-.3.3 0 .5-.1.8-.1.1 0 6.2-.8 12.2-3.7 4.1-2 8.2-5 10.1-9.4 5-11.2 6-13.9 6.1-14z" fill="#731b2a"/><path d="m320 280.3c2.2 0 4-1.9 3.9-4.1 0-2.2-1.9-4-4.1-3.9-2.2 0-4 1.9-3.9 4.1 0 2.2 1.9 4 4.1 3.9zm24.6 18c-5.3-2.6-11.1.7-21.6.9-7.8.3-14.4.4-14.8-11.9s4.6-22.5 12.4-22.8 15 9.5 15.9 21.8c.3 3.4-.1 5.9-.9 7.7 7.3-.9 8.9 4 9 4.3z" fill="#0e0f0d"/><path d="m207.8 283.3c2.2-.1 3.9-1.9 3.9-4.1-.1-2.2-1.9-4-4.1-3.9-2.2 0-4 1.9-3.9 4.1 0 2.2 1.8 3.9 4.1 3.9zm12.1 6.4c.1 12.3-6.4 11.6-14.2 11.6-.8 0-1.5 0-2.3 0-.9 0-1.7 0-2.5 0-7.6 0-12.5-.4-16.8 2 .1-.3 2-4.5 8.8-6.2-.8-1.7-1.2-4-1.4-7.2-.5-12.3 7.1-22.4 15-22.5 7.8.1 13.2 10 13.4 22.3z" fill="#0e0f0d"/><path d="m368.3 205.1c-.1 1.1-.2 1.9-.2 2.3-3.1-.8-6.2-1.6-9.4-2.3-10.4-2.3-20.8-4-31.4-5.2-.4 0-.7-.1-1.1-.1.1-.2.1-.3.2-.5.3-1.1.6-2.3.9-3.5 2.7-12 2.6-24 2.3-29.8l37.4 10.6c2 13.4 1.6 23.9 1.3 28.5zm-46.6-7.1c-.1.4-.1.9 0 1.3-3.9-.4-7.8-.8-11.8-1.1 4.4-9.2 5.4-19 5.6-22.5 3.4-2.4 6.7-5.3 9.2-7.5.2 6.6.1 18.6-3 29.8zm-115.4 1.2c.1-.4.1-.8 0-1.3-3.1-11.2-3.2-23.2-3-29.8 2.5 2.2 5.8 5.1 9.2 7.5.2 3.5 1.2 13.3 5.6 22.5-4 .4-7.9.7-11.8 1.1zm-5.6.7c-5.3.6-10.5 1.3-15.7 2.2s-10.4 1.8-15.6 3c-3.1.7-6.2 1.5-9.4 2.3 0-.2-.1-.6-.1-1.1-.4-3.9-1-15 1.2-29.5l37.4-10.6c-.3 5.6-.4 16.9 2 28.4.3 1.6.7 3.2 1.2 4.8 0 .2.1.3.2.5-.5-.1-.9-.1-1.2 0zm187.6 15.1c-.3-.2-.6-.3-.9-.5-.5-.2-1-.5-1.6-.8h-.1c-.3-.2-.7-.4-1-.6-3.5-1.6-7.1-2.8-10.7-4-.4-.1-.9-.3-1.3-.4l.1-.3c.1-.4 1-7.3.4-18.2-.2-4.6-.8-10-1.7-15.9-.2-.9-.8-1.7-1.7-2l-5.3-1.5c-1.1-41.3-18.2-60.7-18.7-61.3 15.2 24.5 15.1 53.4 14.8 60.2l-33.1-9.4h-.1c-.1 0-.3 0-.4-.1h-.1c-.2 0-.4 0-.5 0h-.1c-.1 0-.3.1-.4.1l-.1.1-.3.2-.1.1-.1.1-.1.1s-.9.9-2.3 2.2c.1-3.1.1-7.8-.2-13.6 0-.5-.1-1.1-.1-1.7-1-14.5-4.5-34.9-14.7-52.8.1.3 1.1 3.2 2.4 8.2 3.3 12.6 8.5 38 5.7 65.6v.4l-.1.1c-1.3 1-2.6 2-3.9 2.9-.7.5-1.1 1.2-1.1 2 0 .1-.3 12.5-5.7 23-.1.2-.1.3-.2.5-13.5-.9-27.1-1.3-40.7-1.3s-27.2.4-40.7 1.3c-.1-.2-.1-.3-.2-.5-5.5-10.5-5.7-22.8-5.7-23 0-.8-.4-1.5-1.1-2-1.4-.9-2.7-2-4.1-3-2.8-26.2 1.8-50.6 5.1-63.8 1.6-6.3 2.9-10.1 3-10.4-14.9 25.9-15.4 57.2-15.1 68.1-1.4-1.3-2.3-2.2-2.3-2.2l-.1-.1-.1-.1-.1-.1-.3-.2-.2-.1c-.1-.1-.3-.1-.4-.1h-.1c-.2 0-.4-.1-.5 0h-.1c-.1 0-.3 0-.4.1h-.1l-33.1 9.4c-.3-6.8-.4-35.8 14.8-60.2-.5.6-17.5 20-18.7 61.3l-5.3 1.5c-.9.3-1.6 1-1.8 2-1 5.9-1.5 11.2-1.7 15.9-.6 10.9.4 17.8.4 18.2l.1.3c-.4.1-.9.3-1.3.4-3.6 1.2-7.3 2.4-10.7 4-.3.2-.6.4-1 .6h-.1c-.6.3-1.1.5-1.6.8-.3.1-.5.3-.8.4-.2.1-.3.2-.5.3 2.5-1 5-1.7 7.5-2.3s5.1-1.2 7.7-1.7c5.2-1 10.3-1.8 15.5-2.4 5.2-.7 10.4-1.2 15.6-1.7 5.2-.4 10.4-.9 15.6-1.2 20.9-1.2 41.8-1.6 62.8-1.6s41.9.3 62.8 1.6c5.2.3 10.4.7 15.7 1.2 5.2.4 10.4 1 15.6 1.7 5.2.6 10.4 1.5 15.5 2.4 2.6.5 5.1 1 7.7 1.7 2.6.6 5.1 1.3 7.5 2.3-.4-.1-.5-.1-.7-.2z" fill="#0e0f0d"/><path d="m269.9 119v55.2h7.5v10.2h-25.4v-10.2h7.5v-55.2h-18.2v9.1h-8.8v-17.9h64.3v17.9h-8.8v-9.1zm33.6 15.7v-31.1h-77.5v31.1h22v-9.1h4.9v41.9h-7.5v23.5h38.6v-23.4h-7.5v-41.9h5v9.1h22z" fill="#0e0f0d"/></g></svg>