<svg height="25" viewBox="0 0 25 25" width="25" xmlns="http://www.w3.org/2000/svg"><path d="m12.5 0a12.5 12.5 0 1 0 12.5 12.5 12.5 12.5 0 0 0 -12.5-12.5zm-7.8125 5.729167 7.291667 14.583333h-7.291667zm.6432292-1.041667h14.3385418l-7.169271 14.338542zm14.9817708 1.041667v14.583333h-7.291667zm1.041667-.494792a11.4375 11.4375 0 0 1 0 14.53125zm-1.588542-1.588542h-14.53125a11.4375 11.4375 0 0 1 14.53125 0zm-16.1197917 1.588542v14.53125a11.4375 11.4375 0 0 1 0-14.53125zm1.5885417 16.119792h14.53125"/></svg>