<svg height="25" width="44.030411" xmlns="http://www.w3.org/2000/svg" xmlns:xlink="http://www.w3.org/1999/xlink"><clipPath id="a"><path d="m76 2v46h-22v23h-18.419263c-.07818.665694-.141485 1.332869-.205737 2-1.151162 12.530963 1.036422 24.087546 6.0625 33.96875l1.6875 3.03125c1.011403 1.81678 2.191241 3.52297 3.4375 5.1875 1.244725 1.66248 1.685716 2.58262 2.46875 3.6875 13.288661 14.93583 33.098223 22.125 55.96875 22.125 50.64836 0 93.63299-22.43799 112.65625-72.84375 13.49677 1.38497 26.44343-2.075892 32.34375-13.59375-9.39863-5.423665-21.47837-3.685274-28.4375-.1875l18.4375-52.375-72 46h-23v-46z"/></clipPath><g transform="matrix(.17262864 0 0 .17262864 0 -.00008)"><path d="m147.4876 45.732h22.866v23.37473h11.56177c5.33905 0 10.83073-.95117 15.887-2.66444 2.48448-.84244 5.27317-2.01479 7.72392-3.4892-3.22785-4.21436-4.87579-9.53574-5.36101-14.78106-.65874-7.13426.78032-16.42042 5.60897-22.004216l2.40362-2.780117 2.8642 2.302393c7.21138 5.79374 13.27612 13.88934 14.3451 23.11819 8.68312-2.55411 18.87759-1.95 26.53135 2.46735l3.14002 1.81182-1.65276 3.2257c-6.47289 12.633374-20.00501 16.546746-33.23507 15.854261-19.79715 49.308389-62.89781 72.652589-115.15715 72.652589-26.998899 0-51.769845-10.09272-65.875552-34.04693-.827018-1.48798-1.535233-3.0439-2.286326-4.57212-4.768134-10.544203-6.351799-22.095263-5.277456-33.636683l.32241-3.457072h19.552937v-23.37473h22.866v-22.866h45.731997v-22.866h27.43967v45.732" fill="#394d54"/><g clip-path="url(#a)"><g id="b"><g id="c" transform="translate(0 -22.866)"><path d="m123.85901 3.8110794h19.81751v19.8169706h-19.81751z" fill="#00acd3"/><path d="m123.85901 26.676485h19.81751v19.818043h-19.81751z" fill="#20c2ef"/><path id="d" d="m126.29235 21.976904v-16.5157492m2.97185 16.5157492v-16.5157492m3.00184 16.5157492v-16.5157492m3.00344 16.5157492v-16.5157492m3.00292 16.5157492v-16.5157492m2.97131 16.5157492v-16.5157492" stroke="#394d54" stroke-width="1.56"/><use height="100%" transform="translate(0 22.866)" width="100%" xlink:href="#d"/></g><use height="100%" transform="matrix(1 0 0 -1 22.866 4.572651)" width="100%" xlink:href="#c"/></g><use height="100%" transform="translate(-91.464 45.732)" width="100%" xlink:href="#b"/><use height="100%" transform="translate(-45.732 45.732)" width="100%" xlink:href="#b"/><use height="100%" transform="translate(0 45.732)" width="100%" xlink:href="#b"/></g><path clip-path="url(#a)" d="m221.57014 54.379649c1.53332-11.915247-7.38383-21.274779-12.91407-25.71836-6.37269 7.367765-7.36295 26.677556 2.63498 34.807431-5.57952 4.956117-17.33731 9.448435-29.37574 9.448435h-147.91531c-1.170745 12.567029 0 73.082845 0 73.082845h217l-.98657-91.424c-9.39863-5.423665-21.48419-3.694326-28.44332-.196552" fill="#17b5eb"/><path clip-path="url(#a)" d="m34 89v57h217v-57" fill-opacity=".17"/><path clip-path="url(#a)" d="m111.23736 140.88997c-13.539619-6.42517-20.971653-15.15916-25.106749-24.69435l-41.130611 1.80438 21 28z" fill="#d4edf1"/><path clip-path="url(#a)" d="m222.5 53.9375v.03125c-20.86119 26.889144-50.78312 50.37872-82.90625 62.71875-28.65478 11.00767-53.638381 11.06039-70.875 2.21875-1.85607-1.04832-3.675701-2.21152-5.5-3.3125-12.636653-8.832-19.754476-23.441442-19.15625-42.6875h-10.0625v73.09375h217v-96h-25z" fill-opacity=".085"/><path d="m45.625 117.03125c14.165153.77531 29.28245.91433 42.46875-3.21875" fill="none" stroke="#394d54" stroke-linecap="round" stroke-width="3.4"/><path d="m102.17024 106.95926c0 3.01898-2.447529 5.46651-5.466508 5.46651-3.019514 0-5.467581-2.44753-5.467581-5.46651 0-3.01897 2.448067-5.46758 5.467581-5.46758 3.018979 0 5.466508 2.44861 5.466508 5.46758z" fill="#d4edf1"/><g fill="#394d54"><path d="m98.121372 103.30778c-.477188.27582-.800133.79264-.800133 1.3839 0 .88261.715514 1.59706 1.598125 1.59706.604653 0 1.130046-.3358 1.401576-.83174.19173.4622.29831.96991.29831 1.50226 0 2.16208-1.752907 3.91498-3.915518 3.91498-2.162075 0-3.91605-1.7529-3.91605-3.91498 0-2.16314 1.753975-3.91658 3.91605-3.91658.500218 0 .977406.0943 1.41764.2651z"/><path d="m0 90.162343h254.32743c-5.53774-1.404786-17.521-3.302293-15.54477-10.559732-10.06915 11.651749-34.35274 8.174326-40.4812 2.428786-6.82471 9.89831-46.55451 6.135967-49.32553-1.575096-8.55565 10.04077-35.06718 10.04077-43.62336 0-2.77209 7.711063-42.501357 11.473406-49.326595 1.575096-6.128469 5.74554-30.409908 9.222963-40.480134-2.428786 1.976234 7.257439-10.0070293 9.154946-15.545841 10.559732"/></g></g></svg>