<svg height="25.000002" viewBox="0 0 31.089691 25.000002" width="31.089691" xmlns="http://www.w3.org/2000/svg"><path d="m212.4 116.1c.3 2-.7 3.7-4 5.3-4.3-2.3-13.6-3.7-21.2-3-8.3.7-15.3 3.3-14.3 9 1.3 5.6 9.3 9 23.6 7.6 34.9-3 34.5-26.6 85.7-31.2 39.8-3.7 62.1 8.6 65.1 23.6 2.3 11.6-7.3 22.9-36.2 25.2-25.6 2.3-40.5-4.6-41.8-11.6-.7-3.7 1.3-9 13.6-10.3 1.3 5.6 8.3 11.6 24.9 10 12-1 21.9-5.3 20.6-12-1.3-7-13.9-11-33.9-9.3-40.5 3.7-50.5 25.9-85 28.9-24.6 2.3-44.5-6.6-47.1-19.9-1-5-1-16.6 24.9-18.9 13.1-1 23.8 1.3 25.1 6.6zm-129.5 138.8c-11.3 14.3-16.3 30.9-15.3 47.1 1 16.3 9 29.5 21.6 39.8 13.3 10.3 27.6 13.3 43.8 10.3 6.3-1 13.3-4.3 19.6-6.3-13.3 0-24.6-4.3-35.9-13.3-12.3-9-20.6-21.6-22.6-36.9-3-14.3 0-27.6 8-39.2 9-11.3 20.6-17.6 35.9-19.6 15.3-1 28.6 3 41.8 12.3-3-4.3-7.3-7.3-11.3-11.3-13.3-9-27.6-13.3-45.2-9-15.8 3.5-29.1 11.8-40.4 26.1zm178-76.7c-42.8 0-81-4.3-108.6-10.3-29.5-7.3-45.2-15.3-45.2-25.6 0-4.3 2-8 8-12.3-18.6 7.3-28.6 13.3-28.6 22.6 1 10.3 17.6 20.6 51.5 28.6 31.9 8 72.7 12.3 121.8 12.3 50.1 0 90-4.3 121.8-12.3 33.9-8 50.1-18.6 50.1-28.6 0-7.3-7.3-14.3-20.6-19.6 3 2 5.3 5.3 5.3 9 0 10.3-15.3 18.6-46.1 25.6-28.4 6.3-65 10.6-109.4 10.6zm122.1 28.5c-31.8 7.3-72.7 12.3-121.8 12.3-50.1 0-91-5.3-122.8-12.3-28.6-7.3-43.8-15.3-49.1-23.6 5.3 35.9 17.6 69.7 33.9 99.6 12.3 18.6 24.6 34.9 36.9 52.5 5.3 10.3 9 20.6 11.3 30.9 8 11.3 19.6 18.6 33.9 22.6 17.6 6.3 35.9 9 54.4 8h2c18.6 1 38.2-2 56.1-8 13.3-4.3 24.6-11.3 32.9-22.6h1c2-10.3 5.3-20.6 10.3-30.9 12.3-17.6 24.6-33.9 36.9-52.5 16.3-29.5 27.6-63.4 33.9-99.6-6.9 9.4-22.2 17.3-49.8 23.6z" fill="#28334c" transform="matrix(.0851015 0 0 .0851015 -5.742238 -8.777035)"/></svg>