<svg height="25.000002" preserveAspectRatio="xMidYMid" viewBox="0 0 25.978657 25.000002" width="25.978657" xmlns="http://www.w3.org/2000/svg" xmlns:xlink="http://www.w3.org/1999/xlink"><radialGradient id="a" cx="151.77396" cy="81.943092" gradientTransform="scale(1.1823389 .84578121)" gradientUnits="userSpaceOnUse" r="163.14816"><stop offset="0" stop-color="#f80090"/><stop offset="1" stop-color="#4d008e"/></radialGradient><radialGradient id="b" cx="157.55128" cy="84.430176" gradientTransform="scale(1.1497598 .86974688)" gradientUnits="userSpaceOnUse" r="170.05354"><stop offset="0" stop-color="#57008e"/><stop offset=".291746283" stop-color="#5c008e"/><stop offset="1" stop-color="#f80090"/></radialGradient><linearGradient id="c" gradientTransform="scale(1.1201283 .89275487)" gradientUnits="userSpaceOnUse" x1="96.622093" x2="138.85931" y1="194.1638" y2="250.77782"><stop offset="0" stop-color="#f70090"/><stop offset=".669712865" stop-color="#e50090"/><stop offset=".827147533" stop-color="#d6008f" stop-opacity=".2"/><stop offset="1" stop-color="#c10090" stop-opacity="0"/></linearGradient><linearGradient id="d" gradientTransform="scale(1.353324 .73892134)" gradientUnits="userSpaceOnUse" x1="77.849937" x2="69.585899" y1="69.943253" y2="61.30151"><stop offset="0" stop-color="#b2008f" stop-opacity=".15134"/><stop offset=".400350765" stop-color="#f70090" stop-opacity=".4"/><stop offset=".648995536" stop-color="#f60090" stop-opacity=".891668"/><stop offset="1" stop-color="#ff0090"/></linearGradient><g transform="matrix(.1015059 0 0 .1015059 -.000022 -.015382)"><path d="m16.685221 157.12533c-13.118314-69.745498 21.551081-137.010822 101.123489-145.95911-10.97309-11.72502173-25.963501-11.81312563-32.86054-10.38683991-12.177882 3.88106361-11.795577 11.76147491-25.609155 21.94058691-13.732571 7.843464-20.629599 1.836851-30.63327 9.967984-9.98226 8.070436-3.016892 26.597222-7.203463 30.199135-4.155844 7.203463-17.0472725 13.62064-19.3939391 22.719169-1.93939398 11.635809 5.2640692 19.947495 4.9870129 29.921525.8311689 8.31169-8.2745627 13.01167-6.96630299 19.74802 3.91868399 11.00522 11.47179219 17.62909 15.03251919 20.68225.816536.57548 1.678916 1.99278 1.523649 1.16728z" fill="#ff0090"/><path d="m158.27549 60.578542c-2.907 0-5.26407-2.357064-5.26407-5.264069s2.35707-5.264069 5.26407-5.264069c2.90701 0 5.26407 2.357064 5.26407 5.264069s-2.35706 5.264069-5.26407 5.264069zm-138.51885 104.154268c-12.6066142-60.61604 26.403595-111.265194 101.94742-86.330129 44.32734 25.931909 100.08922 24.243419 102.60336 7.480519 6.20664-20.095323-28.25974-61.506494-79.79221-72.311688-102.233762-19.9480523-157.348804 90.545258-124.75857 151.161298z" fill="url(#a)"/><path d="m187.4586 171.49326c15.18047 1.6446 29.59017-1.99869 42.94373-12.88312-20.17413 22.50251-45.39955 33.81638-74.34307 36.89503 13.81957 11.74885 27.14653 17.04118 39.89611 14.77597-35.42664 9.77565-65.10742-.98461-101.212943-36.94047-1.890692 9.67935 8.332313 24.76 18.869323 34.38659-61.137459-26.50542-66.497387-109.072804 8.05356-129.383036-77.280869-37.129583-120.9789365 35.013466-99.509466 94.141706 21.006493 45.54076 76.984423 80.59929 138.336316 72.88937 29.80077-3.6502 74.30185-24.19637 92.4815-72.88937-12.81274 11.49784-35.71572 21.51191-45.93604 22.28005 34.59103-17.2872 53.26397-46.66208 48.02272-86.81059-7.16523 17.05835-16.61895 30.15923-28.44426 39.15691 25.11957-39.15691 20.80914-59.395874 2.21645-81.63906 13.2987 36.57143-3.90428 77.16073-41.37393 106.02002z" fill="url(#b)"/><path d="m169.70707 213.62554c-2.62466-.49041 5.94986 3.4733-10.6277-.91522-16.57757-4.38853-33.45687-8.61758-64.336943-39.36965-1.890692 9.67935 8.332313 24.76 18.869323 34.38659 28.44452 19.83767 9.10012 10.55954 52.4402 25.54222 3.47781-6.92262 3.65512-13.07413 3.65512-19.64394z" fill="url(#c)"/><path d="m114.60137 57.851011s3.76808-5.561648 5.23485-8.069986c1.79742-3.073793 4.55772-8.676407 4.55772-8.676407s-29.004329-9.462843-36.122295-10.617452c-22.126624 5.743714-22.207143 15.01379-9.83658 29.20295 1.376416 1.579221 36.166305-1.839105 36.166305-1.839105z" fill="url(#d)"/></g></svg>