<?xml version="1.0" encoding="utf-8"?>
<!-- Generator: Adobe Illustrator 15.1.0, SVG Export Plug-In . SVG Version: 6.00 Build 0)  -->
<!DOCTYPE svg PUBLIC "-//W3C//DTD SVG 1.1//EN" "http://www.w3.org/Graphics/SVG/1.1/DTD/svg11.dtd">
<svg version="1.1" id="Layer_1" xmlns="http://www.w3.org/2000/svg" xmlns:xlink="http://www.w3.org/1999/xlink" x="0px" y="0px"
	 width="25px" height="25px" viewBox="0 0 50 50" enable-background="new 0 0 50 50" xml:space="preserve">
<polygon fill="#E44F26" points="8.494,43.89 4.749,2.103 45.909,2.103 42.159,43.882 25.304,48.53 "/>
<polygon fill="#F1662A" points="25.329,44.977 38.949,41.222 42.153,5.52 25.329,5.52 "/>
<polygon fill="#EBEBEB" points="25.329,21.018 18.511,21.018 18.039,15.77 25.329,15.77 25.329,10.645 25.312,10.645 12.408,10.645
	12.531,12.02 13.797,26.142 25.329,26.142 "/>
<polygon fill="#EBEBEB" points="25.329,34.327 25.307,34.333 19.567,32.793 19.2,28.706 16.412,28.706 14.027,28.706 14.75,36.752
	25.305,39.666 25.329,39.66 "/>
<polygon fill="#FFFFFF" points="25.312,21.018 25.312,26.142 31.657,26.142 31.057,32.789 25.312,34.331 25.312,39.663
	35.875,36.752 35.953,35.887 37.164,22.394 37.289,21.018 35.9,21.018 "/>
<polygon fill="#FFFFFF" points="25.312,10.645 25.312,13.828 25.312,15.758 25.312,15.77 37.742,15.77 37.742,15.77 37.757,15.77
	37.86,14.618 38.095,12.02 38.219,10.645 "/>
</svg>
