<svg height="25" viewBox="0 0 25 25" width="25" xmlns="http://www.w3.org/2000/svg"><path d="m12.5 0c6.903125 0 12.5 5.596875 12.5 12.5s-5.596875 12.5-12.5 12.5-12.5-5.596875-12.5-12.5 5.596875-12.5 12.5-12.5zm-2.484375 16.664583c.182292.671875.1625 1.3-.025 1.866667l-.067708.1875c-.025.06354-.054167.125-.08125.183333-.1458334.302084-.3395834.583334-.578125.84375-.7270837.790625-1.741667 1.090625-2.1770837.838542-.46875-.272917-.2354166-1.390625.6083334-2.28125.9072916-.95625 2.2083333-1.571875 2.2083333-1.571875v-.0031l.1125-.06354zm10.323958-11.3135413c-.564583-2.221875-4.246875-2.9520834-7.73125-1.7135417-2.071875.7364583-4.3166663 1.89375-5.930208 3.403125-1.9197917 1.7927083-2.225 3.355208-2.0989583 4.008333.4447916 2.303125 3.6010416 3.809375 4.8989583 4.927084v.0062c-.3822917.1875-3.1833333 1.592708-3.8395833 3.046875-.703125 1.53125.109375 2.626041.640625 2.765625 1.640625.454166 3.328125-.375 4.2343753-1.717709.875-1.313541.797916-3.001041.420833-3.829166.516667-.140625 1.125-.203125 1.90625-.108334 2.188542.25 2.626042 1.625 2.53125 2.1875-.09375.561459-.544792.889584-.702083.983334-.15625.09479-.203125.125-.188542.188541.01563.09375.09479.09375.21875.07813.171875-.03125 1.141667-.46875 1.188542-1.532291.04687-1.34375-1.235417-2.842709-3.515625-2.8125-.9375.01667-1.532292.09479-1.953125.266666-.03125-.04687-.06354-.07813-.109375-.109375-1.4062503-1.51558-4.0156253-2.57808-3.9062503-4.593705.03125-.734375.296875-2.670833 5.0000003-5.014583 3.859375-1.9229167 6.938541-1.390625 7.469791-.21875.763542 1.6708333-1.641666 4.78125-5.657291 5.233333-1.53125.171875-2.328125-.420833-2.532292-.640625-.217708-.2343747-.248958-.2499997-.327083-.202083-.125.0625-.04687.265625 0 .390625.125.3125.609375.859375 1.454166 1.140625.733334.234375 2.53125.373958 4.6875-.46875 2.420834-.936458 4.311459-3.546875 3.764584-5.734375l.07604.069792z" fill="#c69"/></svg>