<svg height="25.000002" viewBox="0 0 25.001004 25.000001" width="25.001003" xmlns="http://www.w3.org/2000/svg"><path d="m24.529634 11.3865-10.916336-10.914999c-.628098-.628668-1.647643-.628668-2.276531 0l-2.2666569 2.266876 2.8751799 2.875181c.66841-.225679 1.43454-.07437 1.967091.45829.535316.535975.685549 1.308644.454209 1.979293l2.771163 2.771162c.670429-.231032 1.443954-.08177 1.979292.454517.748442.74822.748442 1.96064 0 2.70906-.748552.74866-1.960968.74866-2.709937 0-.562769-.56321-.701964-1.39008-.416925-2.08346l-2.584415-2.584418-.000219 6.800848c.182469.0903.354668.21089.506722.36228.748223.74814.748223 1.96033 0 2.70972-.748442.74811-1.961407.74811-2.709059 0-.748332-.74932-.748332-1.96152 0-2.70972.184938-.18461.398931-.32434.627264-.418v-6.864046c-.228443-.093265-.442183-.231954-.627396-.418044-.566828-.56639-.703346-1.39831-.412646-2.09437l-2.8343629-2.834802-7.48442153 7.484202c-.62886609.62915-.62886609 1.6487 0 2.27741l10.91567743 10.91502c.628449.62867 1.647644.62867 2.276971 0l10.865205-10.86345c.628668-.62898.628668-1.64883 0-2.27763" fill="#f05133"/></svg>