<svg height="25" viewBox="0 0 23.645737 25" width="23.645737" xmlns="http://www.w3.org/2000/svg"><path d="m22.448277 10.145242h-7.385228c-.590601-.070453-1.040325-.590722-1.040325-1.2031217v-7.7498376c0-.661175-.536419-1.1922827-1.192041-1.1922827h-2.584559c-.6610399 0-1.1920395.5365272-1.1920395 1.1922827v7.8311296c-.0325101.5907217-.5201629 1.0676357-1.1053461 1.1218297h-1.9343556c-.5689281-.070453-1.0078154-.547367-1.045744-1.1218297v-7.8311296c0-.661175-.5364179-1.1922827-1.1920398-1.1922827h-2.5845592c-.66104023 0-1.1920398.5365272-1.1920398 1.1922827v10.1452423 12.470193c0 .661175.53641793 1.192282 1.1920398 1.192282h2.5845592 6.469525 2.584559 9.623012c.661041 0 1.192041-.536527 1.192041-1.192282v-12.470193c-.0054-.661175-.536418-1.192283-1.197459-1.192283zm-3.402731 8.551918c0 .661176-.536418 1.192283-1.19204 1.192283h-2.584559c-.66104 0-1.19204-.536527-1.19204-1.192283v-2.438759c0-.661175.536418-1.192283 1.19204-1.192283h2.584559c.66104 0 1.19204.536527 1.19204 1.192283z" fill="#f60"/></svg>