<svg height="25" preserveAspectRatio="xMidYMid" viewBox="0 0 24.99407 25" width="24.99407" xmlns="http://www.w3.org/2000/svg"><path d="m21.60246 3.957909-12.30763 13.306038 15.46771-7.136186c-.45762-2.360827-1.57799-4.483707-3.16008-6.169852zm-9.13177-3.957909c-1.70517 0-3.32978.342003-4.81117.959249l-1.65146 13.916571 8.25245-14.746403c-.5848-.08392-1.1819-.129417-1.78982-.129417zm12.41448 10.894414-14.65652 8.202102 13.75097-1.631694c.65194-1.516075 1.01445-3.186183 1.01445-4.941325 0-.552725-.0395-1.095379-.1089-1.629083zm-5.40365 12.007397c1.63766-1.108433 2.99747-2.595045 3.95783-4.333404l-12.88907 2.559613zm-4.46636-22.642605-7.1746 15.550502 13.30902-12.309866c-1.66899-1.605586-3.77994-2.754671-6.13442-3.240636zm-1.49773 24.740794c1.38666-.114871 2.70917-.45389 3.93098-.983864l-7.21973-.856686zm-12.46233-17.624859c-.56317 1.2468-.92829 2.601012-1.0551 4.024967l1.94498 3.475973zm5.51919-5.901023c-1.76708.945077-3.2798 2.301154-4.41285 3.941052l1.81519 9.138973z" fill="#c7402b"/></svg>