<svg height="25.000008" viewBox="-11.9 -2 10.147548 10.138496" width="25.270315" xmlns="http://www.w3.org/2000/svg"><g transform="translate(4.92436)"><path d="m-16.777141 1.5354482s-.249606-.17992.04992-.42017l.697857-.62401s.199685-.21009.41081-.027l6.4398356 4.87563v2.33798s-.0031.36713-.474252.32657z" fill="#2489ca"/><path d="m-15.117261 3.0424482-1.65988 1.50907s-.170564.12689 0 .35361l.770659.70098s.183044.19656.453451-.027l1.759722-1.33435z" fill="#1070b3"/><path d="m-12.203111 3.0549282 3.0441536-2.32446-.01976-2.32549s-.130004-.50754-.563694-.24337l-4.0508976 3.68689z" fill="#0877b9"/><path d="m-9.6529692 8.0075282c.1768038.18096.3910498.12168.3910498.12168l2.372297-1.16899c.303687-.20696.261046-.46385.261046-.46385v-6.98065c0-.3068-.314087-.41289-.314087-.41289l-2.05613-.99114c-.449291-.27769-.743618.0499-.743618.0499s.378569-.27249.563694.24337v9.23022c0 .0634-.01352.12584-.04056.182-.05408.10921-.171604.21113-.4534513.16849z" fill="#3c99d4"/></g></svg>