<svg height="25" viewBox="0 0 25 24.999999" width="25" xmlns="http://www.w3.org/2000/svg" xmlns:xlink="http://www.w3.org/1999/xlink"><linearGradient id="a" gradientTransform="matrix(255.7156 0 0 -255.7156 -62914.422 58691.93)" gradientUnits="userSpaceOnUse" x1="248.6619" x2="248.6619" y1="229.2744" y2="228.314"><stop offset="0" stop-color="#fdfdfd"/><stop offset="1" stop-color="#cbcbcb"/></linearGradient><linearGradient id="b" gradientTransform="matrix(233.8133 0 0 -233.8133 -57493.781 53687.422)" gradientUnits="userSpaceOnUse" x1="248.7708" x2="248.7708" y1="229.30389" y2="228.34351"><stop offset="0" stop-color="#b2e198"/><stop offset="1" stop-color="#04a171"/></linearGradient><g transform="matrix(.0977326 0 0 .0977326 -53.205626 -5.150509)"><circle cx="672.29999" cy="180.60001" fill="url(#a)" r="127.9"/><circle cx="672.20001" cy="180.8" fill="url(#b)" r="116.9"/><g transform="translate(45.511111 52.622222)"><path d="m599.2 110.1c-1.4 2.1-2.7 4.2-4 6.4-1.4-3.9-2.6-7.7-3.7-11.4 3.7-.5 7.7-1 11.9-1.2-1.4 2-2.8 4.1-4.2 6.2zm103.2 7.5c-4.1-4-10-7.6-17.6-10.8-14.9-6.4-34.9-10.5-56.3-11.6-2.6-.1-5.1-.2-7.5-.3 16.3-19.5 32.1-29.8 41.3-30.2 1.9-.1 3.6.3 4.9 1.1 4.3 2.8 5.5 11.5 3.2 23.2-.5 2.3 1.1 4.6 3.4 5 2.3.5 4.6-1.1 5-3.4 4-20.1-1.6-28.5-6.9-32-2.8-1.8-6.1-2.7-9.8-2.5-14.3.6-34.1 15.7-52.1 38.9-7.1.2-14 .9-20.5 1.8-.7-3.3-1.3-6.5-1.6-9.5-1.6-13.3.4-22.8 5.3-25.3.8-.4 1.7-.6 2.7-.7 4.4-.3 10.7 2.6 17.5 8.4 1.8 1.5 4.5 1.3 6-.6 1.5-1.8 1.3-4.5-.6-6-8.8-7.3-16.8-10.8-23.6-10.3-2.1.2-4.1.7-5.9 1.6-4.6 2.3-7.7 6.8-9.3 13.3-1.4 5.6-1.6 12.5-.6 20.6.4 3.2 1 6.6 1.7 10-5 1.1-9.7 2.4-13.9 3.9-18.3 6.6-22.5 15.3-22.9 21.5-.3 5.9 2.7 14.6 18.8 22.9 2.1 1.1 4.7.3 5.7-1.8 1.1-2.1.3-4.7-1.8-5.7-9.2-4.8-14.4-10.2-14.2-14.9.3-6.6 11.4-13.6 30.3-17.5 1.7 6.3 4 12.9 6.7 19.5-6.8 12.7-11.7 25.3-14.3 36.4-1.8 8-2.4 14.9-1.6 20.6.9 6.6 3.6 11.4 7.9 14.2 2.2 1.4 5.2 2.6 9.1 2.6 5.7 0 13.3-2.4 23.3-9.5 1.9-1.4 2.4-4 1-6-1.4-1.9-4-2.4-6-1-9.9 7.1-18.5 9.6-22.8 6.8-4.7-3-5.6-12.6-2.6-25.7 2-8.7 5.6-18.3 10.4-28.2 1 2.2 2.1 4.5 3.3 6.7 9.7 19.1 21.6 35.7 33.5 46.8 6 5.6 11.7 9.5 17 11.7 3.2 1.3 6.2 2 9 2 2.6 0 5-.6 7.2-1.7 4.4-2.3 7.5-6.5 9.2-12.7 1.4-5.3 1.7-11.8.9-19.5-1.5-15.1-7.3-33.5-16.1-51.9-1-2.1-3.6-3-5.7-2s-3 3.6-2 5.7c8.4 17.5 13.8 34.9 15.3 49.1 1.3 12.4-.8 21.3-5.5 23.7-4.9 2.5-13.8-1.4-23.6-10.6-11.2-10.4-22.4-26.2-31.7-44.4-2.1-4.2-4.1-8.3-5.9-12.5 2.2-3.9 4.6-7.9 7.1-11.8 2.6-4 5.2-7.8 7.9-11.3h2.1c3.7 0 7.6.1 11.7.3 20.4 1.1 39.4 5 53.4 10.9 12.3 5.3 19.5 11.7 19.2 17.2-.2 4.7-6 9.6-15.7 13.4-2.2.9-3.3 3.3-2.4 5.5.7 1.7 2.3 2.7 4 2.7.5 0 1-.1 1.5-.3 16.9-6.6 20.8-15 21.1-20.9.5-5.3-1.8-10.3-6.6-14.9z" fill="#f2f8f6"/><path d="m618 129.1c0 5.2 4.2 9.3 9.3 9.3s9.3-4.2 9.3-9.3-4.2-9.3-9.3-9.3-9.3 4.2-9.3 9.3" fill="#f1f8f3"/></g></g></svg>