<svg height="24.999998" viewBox="0 0 53.723824 49.999996" width="26.861912" xmlns="http://www.w3.org/2000/svg" xmlns:xlink="http://www.w3.org/1999/xlink"><defs><linearGradient id="a" gradientTransform="scale(1.2198451 .81977622)" gradientUnits="userSpaceOnUse" x1="357.80527" x2="357.80527" y1="268.96548" y2="983.32874"><stop offset="0" stop-color="#5c24ae"/><stop offset="1" stop-color="#30135a"/></linearGradient><path id="b" d="m355.967 242.807-322 216.395c-44.275 29.754-44.275 78.443 0 108.197l322 216.395c44.275 29.754 116.725 29.754 161 0l322-216.395c44.275-29.754 44.275-78.443 0-108.197l-322-216.395c-44.275-29.754-116.725-29.754-161 0z"/><filter id="c" height="1.12" width="1.08" x="-.04" y="-.043"><feOffset dy="10" in="SourceAlpha" result="shadowOffsetOuter1"/><feGaussianBlur in="shadowOffsetOuter1" result="shadowBlurOuter1" stdDeviation="10"/><feColorMatrix in="shadowBlurOuter1" values="0 0 0 0 0 0 0 0 0 0 0 0 0 0 0 0 0 0 0.25 0"/></filter><linearGradient id="d" gradientTransform="scale(1.2198451 .81977622)" gradientUnits="userSpaceOnUse" x1="357.80527" x2="357.80527" y1="11.17625" y2="849.14575"><stop offset="0" stop-color="#7331d4"/><stop offset="1" stop-color="#461b84"/></linearGradient><path id="e" d="m355.967 132.807-322 216.395c-44.275 29.754-44.275 78.443 0 108.197l322 216.395c44.275 29.754 116.725 29.754 161 0l322-216.395c44.275-29.754 44.275-78.443 0-108.197l-322-216.395c-44.275-29.754-116.725-29.754-161 0z"/><filter id="f" height="1.12" width="1.08" x="-.04" y="-.043"><feOffset dy="10" in="SourceAlpha" result="shadowOffsetOuter1"/><feGaussianBlur in="shadowOffsetOuter1" result="shadowBlurOuter1" stdDeviation="10"/><feColorMatrix in="shadowBlurOuter1" values="0 0 0 0 0 0 0 0 0 0 0 0 0 0 0 0 0 0 0.25 0"/></filter><linearGradient id="g" gradientTransform="scale(1.2198451 .81977622)" gradientUnits="userSpaceOnUse" x1="357.80527" x2="357.80527" y1=".599554" y2="714.96283"><stop offset="0" stop-color="#905bdd"/><stop offset="1" stop-color="#5521a0"/></linearGradient><path id="h" d="m355.967 22.807-322 216.395c-44.275 29.754-44.275 78.443 0 108.197l322 216.395c44.275 29.754 116.725 29.754 161 0l322-216.395c44.275-29.754 44.275-78.443 0-108.197l-322-216.395c-44.275-29.754-116.725-29.754-161 0z"/><filter id="i" height="1.12" width="1.08" x="-.04" y="-.043"><feOffset dy="10" in="SourceAlpha" result="shadowOffsetOuter1"/><feGaussianBlur in="shadowOffsetOuter1" result="shadowBlurOuter1" stdDeviation="10"/><feColorMatrix in="shadowBlurOuter1" values="0 0 0 0 0 0 0 0 0 0 0 0 0 0 0 0 0 0 0.25 0"/></filter></defs><g fill="none" transform="matrix(.05708465 0 0 .05708465 -2.335005 .096477)"><g transform="translate(75 23)"><g><use fill="#000" filter="url(#c)" height="100%" width="100%" xlink:href="#b"/><use fill="url(#a)" height="100%" width="100%" xlink:href="#b"/></g><g><use fill="#000" filter="url(#f)" height="100%" width="100%" xlink:href="#e"/><use fill="url(#d)" height="100%" width="100%" xlink:href="#e"/></g><g><use fill="#000" filter="url(#i)" height="100%" width="100%" xlink:href="#h"/><use fill="url(#g)" height="100%" width="100%" xlink:href="#h"/></g></g><path d="m558.273 447.667-250.237-168.167 97.982-65.847c42.83-28.784 96.789-31.483 134.245-6.311 26.044 17.502 31.214 46.615 11.444 65.724l1.389.934c38.324-19.932 84.107-18.527 117.396 3.845 44.046 29.6 38.671 68.419-14.561 104.193zm-111.161-116.657 49.942-33.562c36.935-24.822 42.31-48.249 15.224-66.451-24.798-16.665-55.49-14.453-85.851 5.95l-59.641 40.081zm176.532 35.663c37.63-25.289 42.136-48.832 13.203-68.276-28.932-19.444-64.163-15.614-104.042 11.186l-58.789 39.508 87.92 59.084z" fill="#fff"/></g></svg>