<?xml version="1.0" encoding="UTF-8" standalone="no"?>
<!-- Generator: Adobe Illustrator 19.0.0, SVG Export Plug-In . SVG Version: 6.00 Build 0)  -->

<svg
   xmlns:dc="http://purl.org/dc/elements/1.1/"
   xmlns:cc="http://creativecommons.org/ns#"
   xmlns:rdf="http://www.w3.org/1999/02/22-rdf-syntax-ns#"
   xmlns:svg="http://www.w3.org/2000/svg"
   xmlns="http://www.w3.org/2000/svg"
   xmlns:sodipodi="http://sodipodi.sourceforge.net/DTD/sodipodi-0.dtd"
   xmlns:inkscape="http://www.inkscape.org/namespaces/inkscape"
   version="1.1"
   id="Layer_1"
   x="0px"
   y="0px"
   viewBox="0 0 64.080055 25"
   xml:space="preserve"
   inkscape:version="0.91 r13725"
   sodipodi:docname="Npm-01.svg"
   width="64.080055"
   height="25"><metadata
     id="metadata4763"><rdf:RDF><cc:Work
         rdf:about=""><dc:format>image/svg+xml</dc:format><dc:type
           rdf:resource="http://purl.org/dc/dcmitype/StillImage" /><dc:title></dc:title></cc:Work></rdf:RDF></metadata><defs
     id="defs4761" /><sodipodi:namedview
     pagecolor="#ffffff"
     bordercolor="#666666"
     borderopacity="1"
     objecttolerance="10"
     gridtolerance="10"
     guidetolerance="10"
     inkscape:pageopacity="0"
     inkscape:pageshadow="2"
     inkscape:window-width="1639"
     inkscape:window-height="888"
     id="namedview4759"
     showgrid="false"
     fit-margin-top="0"
     fit-margin-left="0"
     fit-margin-right="0"
     fit-margin-bottom="0"
     inkscape:zoom="1.542"
     inkscape:cx="182.5"
     inkscape:cy="71.2"
     inkscape:window-x="0"
     inkscape:window-y="0"
     inkscape:window-maximized="0"
     inkscape:current-layer="Layer_1" /><style
     type="text/css"
     id="style4752">
	.st0{fill:#CB3837;}
	.st1{fill:#FFFFFF;}
</style><g
     id="XMLID_1_"
     transform="matrix(0.1755618,0,0,0.1755618,-11.850421,-31.39045)"><polygon
       id="XMLID_2_"
       class="st0"
       points="250,321.2 250,300.7 432.5,300.7 432.5,178.8 67.5,178.8 67.5,300.7 169,300.7 169,321.2 "
       style="fill:#cb3837" /><polygon
       id="XMLID_3_"
       class="st1"
       points="128.1,280.3 128.1,219.7 148.5,219.7 148.5,280.3 169,280.3 169,219.7 169,199.3 128.1,199.3 87.9,199.3 87.9,219.7 87.9,280.3 "
       style="fill:#ffffff" /><path
       id="XMLID_4_"
       class="st1"
       d="m 189.4,199.3 0,76.8 0,4.2 0,20.4 40.9,0 0,-20.4 40.2,0 0,-81 -81.1,0 z m 60.6,60.6 -19.7,0 0,-40.2 19.7,0 0,40.2 z"
       inkscape:connector-curvature="0"
       style="fill:#ffffff" /><polygon
       id="XMLID_7_"
       class="st1"
       points="331,280.3 331,219.7 351.5,219.7 351.5,280.3 371.9,280.3 371.9,219.7 392.3,219.7 392.3,280.3 412.8,280.3 412.8,219.7 412.8,200.7 412.8,199.3 331,199.3 290.9,199.3 290.9,219.7 290.9,280.3 "
       style="fill:#ffffff" /></g></svg>