<svg height="24.999998" viewBox="0 0 23.394971 24.999998" width="23.394972" xmlns="http://www.w3.org/2000/svg"><path d="m23.379805 18.263828c-.13209-1.04198-1.01264-1.7611-2.14268-1.74643-1.68772.022-3.10394.89523-4.0432 1.47493-.36689.22747-.68242.39625-.95393.52099.0587-.8512.007-1.96656-.43294-3.192-.53566-1.46758-1.25478-2.37015-1.76844-2.89114.59438-.86588 1.40889-2.128 1.79046-4.0798901.3302-1.66571.22747-4.256-.52833-5.70891-.1541-.29352-.41093-.50632-.7338-.59437-.13208-.0367-.38157-.11007-.87321.0293-.74113-1.53362996-.99796-1.69505996-1.19608-1.82713996-.41093-.26417-.89523-.32287-1.35018-.1541-.60905.22014-1.13004.80717-1.6216805 1.84915996-.0734.15409-.13942.30085-.19813.44761-.93191.066-2.3995.40359-3.63961 1.74643-.1541.16877-.45495.29352-.77048.41092h.007c-.64573.22748-.93925.75581-1.29881 1.70974-.49898 1.3355.0147 2.64899.52099 3.50019-.68976.6163901-1.607 1.5996701-2.09131 2.7517201-.60171 1.42356-.66775 2.81777-.64574 3.57358-.51364996.543-1.30614996 1.56297-1.39419996 2.70769-.11741 1.59967.46229 2.68568.71912 3.08193.0734.11741.15409.2128.24215.30819-.0293.19813-.0367.41093.007.63107.0954.51365.41825996.93191.90990996 1.19608.9686.51365 2.31878.73379 3.36077.2128.37423.39625 1.05666.77782 2.29677.77782h.0734c.31553 0 4.3220405-.2128 5.4887705-.49898.52099-.12474.88055-.34488 1.11536-.54301.74847-.23481 2.81777-.93925 4.76966-2.20137 1.37953-.89523 1.85649-1.08602 2.8838-1.33551.99796-.24215 1.62169-1.15205 1.49694-2.15735zm-1.74643 1.07868c-1.17407.27884-1.76844.53567-3.22135 1.48226-2.26742 1.46758-4.74764 2.15001-4.74764 2.15001s-.20546.30819-.79983.44762c-1.02732.24948-4.8944005.46228-5.2466205.46962-.9466.007-1.52629-.24215-1.68773-.63106-.49164-1.17407.70444-1.68772.70444-1.68772s-.26416-.16144-.41826-.3082c-.13942-.13942-.28618-.41826-.33021-.31553-.18344.44762-.27884 1.54097-.77048 2.03261-.67509.68243-1.95189.45495-2.70769.0587-.82919-.44027.0587-1.47492.0587-1.47492s-.44761.26416-.80717-.27884c-.32287-.49898-.62373-1.35018-.54301-2.3995.0881-1.19609 1.42356-2.35548 1.42356-2.35548s-.23481-1.76844.53567-3.58091c.6971-1.65103 2.57561-2.9792001 2.57561-2.9792001s-1.57765-1.74643-.99062-3.31674c.38157-1.02731.53567-1.01997.66041-1.064.44028-.16877.86588-.35222 1.18141-.69711 1.57766-1.70239 3.5882505-1.37953 3.5882505-1.37953s.95393-2.89847996 1.83448-2.33346c.2715.17611 1.24745 2.34814 1.24745 2.34814s1.04198-.60905 1.15939-.38157c.63106 1.22543.70444 3.56623.4256 4.98979-.46963 2.3481401-1.6437 3.6102601-2.11332 4.4027601-.11007.18344 1.26212.76314 2.128 3.16264.79983 2.19404.0881 4.03586.2128 4.24133.022.0367.0294.0514.0294.0514s.91724.0734 2.75906-1.064c.98328-.60905 2.15001-1.29147 3.47818-1.30615 1.28414-.022 1.35018 1.48226.38157 1.71708z" fill="#2c8ebb"/></svg>