<svg height="24.999998" viewBox="0 0 11.220435 24.999998" width="11.220435" xmlns="http://www.w3.org/2000/svg"><g transform="matrix(.05725278 0 0 .05725278 -.588885 -.338364)"><path d="m202.8 179.68c-23-101.47-71-128.49-83.18-147.59-6.62-10.39-13.37-26.18-13.37-26.18-.66 9-1.83 14.7-9.51 21.54-15.38 13.71-80.74 66.97-86.23 182.27-5.12 107.5 79 173.8 90.18 180.65 8.54 4.2 19 .08 24-3.77 40.54-27.84 96-102.07 78.06-206.92" fill="#10aa50"/><path d="m109.73 333.11c-2.11 26.62-3.63 42.11-9 57.29 0 0 3.54 25.33 6 52.17h8.77a488.62 488.62 0 0 1 9.57-56.2c-11.36-5.57-14.91-29.91-15.34-53.26z" fill="#b8c4c2"/><path d="m125.06 386.39c-11.48-5.3-14.8-30.13-15.31-53.28a1090.8 1090.8 0 0 0 2.45-114.71c-.6-20.07.3-185.92-4.94-210.2 2.12 4.75 7.24 15.91 12.36 23.88 12.23 19.11 60.19 46.13 83.17 147.61 17.91 104.58-37.22 178.68-77.73 206.7z" fill="#12924f"/></g></svg>