<svg height="25.000002" viewBox="0 0 24.021123 25.000002" width="24.021124" xmlns="http://www.w3.org/2000/svg"><g transform="scale(.09907661)"><path d="m224.74 109-84.11-84.1h84.11z" fill="#ffca20" opacity=".7"/><path d="m81.72 0h47.68l36.44 36.43h-84.12z" fill="#ffca20" opacity=".7"/><path d="m84.45 84.12-84.11-84.12h101.13v84.11zm73.89 84.1 84.11 84.11h-84.11z" fill="#ffcf39" opacity=".9"/><path d="m101.47 168.23-84.1-84.12h84.11v84.11zm90.58-42.57-67.05-67.09h67.08zm7.84 118.84-76.28-76.27h76.28z" fill="#ffe490" opacity=".7"/><path d="m101.47 67-67-67h67z" fill="#fcbc7c" opacity=".9"/><path d="m123.95 168.22 84.11 84.11h-84.11z" fill="#f9a040" opacity=".8"/><path d="m209.08 201.8-84-84h84z" fill="#f9a040" opacity=".7"/><path d="m125 58.57 83.09 83.09h-83.09z" fill="#ffcf39" opacity=".9"/><path d="m101.47 252-101.47-101.49h101.47z" fill="#ffc737" opacity=".7"/></g></svg>