<svg enable-background="new 0 0 841.89 595.28" height="25" width="27.44162" xmlns="http://www.w3.org/2000/svg"><g transform="matrix(.05455585 0 0 .05455585 -10.607621 -3.541711)"><path d="m668.459 523.165v-212.817-245.429h-105.218v31.624h66.119v213.805 181.193h-66.118v31.624z" fill="#d1d3d4"/><path d="m311.133 301.979c5.015-2.616 9.365-5.247 13.111-7.881.018-.019.035-.037.053-.056-3.762 2.65-8.129 5.295-13.172 7.925-8.136 5.127-26.689 8.981-42.492 12.034-.001.003-.001.007-.002.012 15.805-3.053 34.366-6.909 42.502-12.034z" fill="#fff"/><path d="m335.687 492.352c-1.526-4.638-2.3-9.508-2.3-14.473 0-5.005.773-9.906 2.3-14.567 1.538-4.688 3.493-9.031 5.815-12.905l.515-.86-5.75-3.007-.461.757c-1.161 1.906-2.266 3.922-3.285 5.989-1.017 2.065-2.047 4.446-3.062 7.076-1.024 2.654-1.85 5.528-2.455 8.543-.607 3.021-.915 6.019-.915 8.914 0 2.933.308 5.974.914 9.034.605 3.056 1.441 5.972 2.486 8.671 1.033 2.665 2.079 5.073 3.108 7.153 1.03 2.076 2.14 4.107 3.298 6.032l.505.839 5.574-3.631-.477-.782c-2.319-3.815-4.275-8.114-5.81-12.783z" fill="#d1d3d4"/><path d="m386.035 469.369v-6.521h-9.763v-12.082h-6.833v12.082h-9.171v-12.082h-6.833v12.082h-9.826v6.521h9.826v8.987h-9.764v6.524h9.764v12.604h6.833v-12.604h9.171v12.604h6.833v-12.604h9.763v-6.524h-9.763v-8.987zm-16.597 8.987h-9.171v-8.987h9.171z" fill="#8a5e8c"/><g fill="#d1d3d4"><path d="m424.028 478.381c-.741-1.463-1.739-2.673-2.965-3.591-1.157-.863-2.486-1.672-3.951-2.393-1.462-.721-2.969-1.321-4.478-1.785-1.443-.442-2.883-.94-4.281-1.478-1.379-.528-2.628-1.071-3.715-1.616-.977-.49-1.774-1.127-2.362-1.893-.555-.721-.823-1.525-.823-2.453 0-1.702.887-3.068 2.711-4.186 3.74-2.271 9.085-2.401 16.628-.222l.854.247 2.327-6.561-.947-.286c-6.964-2.101-13.305-2.384-18.514-.723-2.264.723-4.186 1.715-5.712 2.946-1.536 1.243-2.757 2.707-3.626 4.358-.88 1.673-1.328 3.453-1.328 5.291 0 2.066.49 3.896 1.458 5.442.951 1.524 2.202 2.755 3.716 3.648 1.425.845 3.025 1.604 4.756 2.253 1.691.633 3.39 1.223 5.089 1.772 1.655.536 3.176 1.114 4.523 1.725 1.253.568 2.288 1.316 3.069 2.224.73.853 1.087 1.841 1.087 3.016 0 1.771-.824 3.159-2.517 4.242-1.799 1.152-4.204 1.736-7.137 1.736-2.863 0-6.855-.948-11.874-2.815l-.901-.335-2.415 6.86.844.338c2.52.997 4.833 1.759 6.872 2.263 2.075.511 4.37.77 6.825.77 2.463 0 4.734-.282 6.753-.836 2.04-.563 3.76-1.313 5.116-2.23 1.357-.92 2.514-2.006 3.437-3.226.927-1.226 1.599-2.486 1.998-3.743.398-1.253.602-2.527.602-3.792.002-1.83-.375-3.502-1.119-4.967z"/><path d="m478.844 496.56h7.142v-45.794h-7.142z"/><path d="m466.123 456.813c-.429-.829-.996-1.596-1.698-2.275-.667-.646-1.323-1.178-1.954-1.583-.639-.411-1.412-.771-2.288-1.073-.866-.292-1.592-.503-2.218-.643-.638-.146-1.409-.254-2.29-.332-.87-.073-1.532-.114-1.991-.126-.448-.009-1.016-.015-1.701-.015h-15.437v45.794h7.142v-18.348c3.499.222 5.943.169 7.933.056 1.109-.064 2.379-.208 3.769-.427 1.427-.226 2.69-.546 3.753-.946 1.071-.405 2.168-.983 3.258-1.724 1.123-.763 2.055-1.693 2.771-2.761.701-1.048 1.279-2.353 1.714-3.879.435-1.523.654-3.252.654-5.143 0-1.322-.133-2.561-.397-3.675-.265-1.125-.609-2.101-1.02-2.9zm-6.174 10.226c-.256.791-.574 1.445-.95 1.944-.371.486-.874.919-1.5 1.283-.672.394-1.32.695-1.918.892-.602.198-1.374.354-2.297.472-.952.119-1.757.188-2.413.208-1.666.052-4.439.053-7.184-.146v-14.402h6.719c.919 0 1.716.025 2.385.076.665.049 1.438.147 2.322.299.806.135 1.494.357 2.049.667.575.317 1.131.732 1.659 1.231.473.448.845 1.063 1.102 1.829.272.812.415 1.775.415 2.863 0 1.045-.131 1.984-.389 2.784z"/><path d="m531.067 459.714c-.265-1.126-.608-2.102-1.019-2.901-.426-.829-.997-1.596-1.698-2.275-.668-.646-1.325-1.178-1.954-1.583-.641-.411-1.41-.771-2.289-1.073-.866-.292-1.591-.503-2.215-.643-.64-.146-1.412-.254-2.292-.332-.869-.073-1.532-.114-1.992-.126-.447-.009-1.017-.015-1.702-.015h-15.436v45.794h7.142v-18.348c3.497.222 5.939.169 7.933.056 1.109-.064 2.379-.208 3.768-.427 1.428-.226 2.69-.546 3.754-.946 1.072-.405 2.168-.983 3.259-1.724 1.123-.763 2.055-1.693 2.771-2.761.702-1.048 1.278-2.353 1.715-3.879.434-1.523.654-3.252.654-5.143-.001-1.322-.135-2.56-.399-3.674zm-7.196 7.325c-.252.791-.569 1.445-.946 1.944-.372.486-.875.919-1.5 1.283-.674.394-1.321.695-1.919.892-.602.198-1.373.354-2.297.472-.952.119-1.758.188-2.412.208-1.665.052-4.438.053-7.185-.146v-14.402h6.719c.919 0 1.715.025 2.386.076.663.049 1.438.147 2.321.299.806.135 1.494.357 2.049.667.574.317 1.133.732 1.66 1.231.473.448.843 1.063 1.101 1.829.274.812.415 1.775.415 2.863 0 1.045-.132 1.984-.392 2.784z"/><path d="m549.985 468.904c-.607-3.019-1.435-5.893-2.456-8.543-1.014-2.627-2.043-5.01-3.062-7.076-1.013-2.055-2.114-4.069-3.287-5.989l-.459-.757-5.743 3.006.508.856c2.304 3.879 4.255 8.229 5.802 12.928 1.535 4.67 2.314 9.565 2.314 14.55 0 4.965-.775 9.836-2.302 14.473-1.532 4.663-3.487 8.965-5.809 12.783l-.478.782 5.568 3.627.507-.832c1.165-1.917 2.277-3.942 3.301-6.022 1.028-2.093 2.07-4.51 3.094-7.187 1.033-2.705 1.868-5.624 2.484-8.677.618-3.067.931-6.097.931-9.008.001-2.893-.306-5.892-.913-8.914z"/></g><path d="m362.497 223.097c2.657 1.474 4.578 3.339 4.985 4.691.724-.193 1.175-.469 1.175-.469s1.542-3.178-1.569-6.049c-3.112-2.871-8.009-2.626-8.009-2.626s.046 1.42.569 3.177c.902.307 1.87.734 2.849 1.276z" fill="none"/><path d="m249.36 277.736v-80.678-45.718-54.797h66.12v-31.624h-105.218v70.772c1.184-.001 2.335.629 2.717 2.123 2.532 9.891 5.687 18.047-1.525 26.719-.331.398-.746.638-1.192.768v112.435 2.203 243.226h105.218v-31.625h-66.12v-211.601z" fill="#d1d3d4"/><path d="m494.783 91.916c-32.236 19.589-51.728 41.699-62.605 66.54-.989 2.259-1.906 4.538-2.756 6.843-2.381 4.304-3.194 9.743-4.305 14.093-.59 2.396-1.12 4.814-1.587 7.256-6.095 31.734-2.257 67.39 4.702 107.315 8.526 48.917-21.202 87.541-65.979 95.823 1.866-4.272 3.47-8.717 4.841-13.294-.061-.13-.127-.256-.191-.384 8.359-32.614 6.825-71.286 6.881-104.34 0-.353.002-.699.004-1.051-4.989.107-10.22-.412-15.565-1.548-3.438-.731-6.925-1.722-10.422-3.037-5.22-1.878-10.134-4.537-14.645-7.806 8.207 4.641 16.629 7.856 24.786 9.593 5.458 1.162 10.788 1.649 15.853 1.475 1.251-.043 2.487-.117 3.705-.243 1.198-.125 2.373-.295 3.533-.5 4.376-1.199 8.096-4.179 8.096-4.179l-1.139-2.163s.678.265 1.693.495c.209.047.434.091.668.132 1.403.245 3.219.335 4.854-.303 3.228-1.267 5.056-6.646 5.056-6.646s-2.397-9.449-1.992-14.544c.403-5.09.427-17.428-.713-27.348-.486-4.221-2.763-9.723-5.829-15.226-1.021-1.833-2.131-3.669-3.293-5.455-4.281-4.765-5.949-7.548-5.978-11.98-.012-1.477.127-2.99.332-4.522.057-.279.108-.587.164-.877.219-1.156.432-2.375.6-3.658.257-1.745.288-3.786.042-5.845-.927-5.447-4.695-11.871-9.923-13.164.187 2.761-.479 8.381-2.189 13.673-.15.468-.308.936-.476 1.399-.774 1.896-1.691 3.712-2.879 5.434-1.601-.703-3.184-1.29-4.652-1.777-1.474-.485-2.835-.87-3.992-1.167-1.562-.382-3.674-.477-4.729-.523-1.041-3.659-1.562-8.664-2.504-13.498-1.537-7.906-4.19-15.353-12.047-15.706-3.167-.143 1.921 4.316-4.363 2.977-.122 2.741-.289 5.479-.59 8.166-1.014 9.037-3.572 17.463-11.193 23.357-.273.21-.537.425-.823.629-1.234.883-2.587 1.708-4.083 2.457-.75.612-1.485 1.245-2.215 1.877-1.068.928-2.118 1.866-3.108 2.802-3.015 2.845-5.568 5.62-7.145 7.726 1.435-3.23 3.444-6.25 6.119-8.979.844-.798 1.724-1.602 2.627-2.396-20.539-11.361-43.969-20.892-66.067-28.479v45.718c.917 1.013 1.709 2 2.361 2.955 12.719 17.221 16.191 36.681 12.446 54.383-5.436 25.676-26.062 47.65-55.718 53.689-.612.193-1.151.312-1.713.423-.813.029-1.606.135-2.377.307-5.82 2-8.856 7.346-9.697 13.049-.12.816-.195 1.637-.228 2.46 1.48 6.1 3.131 13.534 8.056 15.442 1.97.765 4.482-2.794 6.271-5.141.653-.718 1.338-1.427 2.048-2.089 2.13-1.993 4.431-3.584 7.089-3.479.701-.214 1.418-.377 2.152-.494 4.402-.711 9.362.155 14.327.453.726.064 1.442.149 2.152.248 5.876 1.038 12.549 1.356 18.332.138.633-.126 1.271-.263 1.913-.405 1.926-.425 3.89-.853 5.881-1.293 25.621-5.656 55.699-12.74 68.734-21.442 8.065-4.484 15.042-8.962 21.037-13.42-.004.004-.012.01-.019.014-12.859 15.369-46.818 29.121-89.858 36.068l-9.236 66.265c3.726-12.524 9.026-23.941 15.727-33.574 12.752-18.327 28.986-28.01 45.712-27.258 3.236.146 6.453.689 9.6 1.614.05.114.101.233.153.349-2.87-.8-5.79-1.279-8.731-1.414-16.896-.755-33.223 9.507-45.974 28.9-12.617 19.195-20.254 45.099-21.502 72.937-.269 6.005-.218 12.125.148 18.226.005.072.009.274.009.274s-6.49-2.533-6.509-2.448c-1.601-.66-4.887-1.752-4.909-1.644-4.998-1.955-8.798-1.445-12.113.279-.669.378-1.318.8-1.957 1.29-5.091 3.424-10.903 12.723-5.965 18.849.55.679 1.231 1.319 2.059 1.907.839-.51 1.687-.945 2.559-1.318 1.136-.808 2.317-1.459 3.524-1.961.603-.249 1.213-.465 1.825-.648 8.298-3.805 16.017 2.583 22.497 5.587.75.358 1.503.729 2.26 1.104 3.793 1.884 7.716 3.884 11.784 4.374.87.161 1.741.28 2.611.355.624.161 1.218.274 1.786.349 1.136.148 2.16.142 3.097-.007 2.204-.35 3.91-1.468 5.412-3.008 1.404-1.437 2.623-3.25 3.887-5.169.419-.64.844-1.293 1.283-1.944 5.256-6.995 9.676-15.48 15.312-22.718.366-.619.736-1.243 1.115-1.859 6.43-10.488 15.198-19.78 38.174-22.995 5.406-4.041 10.054-8.641 14.077-13.684 12.493 13.288 34.188 15.249 59.31 8.937 56.407-14.182 70.324-60.334 84.753-112.581 11.975-43.359 15.451-121.405 78.447-113.431 45.973 5.821 62.372 47.7 67.449 88.356 144.775-63.754-15.584-268.207-145.442-189.299zm-127.696 129.355c3.112 2.871 1.569 6.049 1.569 6.049s-.451.275-1.175.469c-.407-1.353-2.328-3.218-4.985-4.691-.979-.542-1.947-.969-2.85-1.276-.523-1.756-.569-3.177-.569-3.177s4.898-.246 8.01 2.626z" fill="#8a5e8c"/><path d="m212.979 137.814c-.382-1.494-1.533-2.124-2.717-2.123-.045 0-.089-.005-.134-.004-1.299-1.327-3.887-1.586-4.897.407-4.163 8.21-8.286 20.334-.031 27.438.578.497 1.208.723 1.825.757.78.904 2.114 1.343 3.237 1.013.446-.13.861-.37 1.192-.768 7.212-8.672 4.057-16.828 1.525-26.72z" fill="#8a5e8c"/></g></svg>