<svg height="25" viewBox="0 0 27.435356 25" width="27.435356" xmlns="http://www.w3.org/2000/svg"><g transform="matrix(.07516536 0 0 .07516536 -5.073662 -6.291341)"><path d="m236.1 337.4h-168.6v-253.7h34v225.8h134.6z"/><path d="m427.9 229.1c-1.5-23.2-12.4-47.9-32.5-61.9-18.6-15.5-43.3-20.1-66.5-17-24.7 1.5-49.5 15.5-61.9 37.1-15.5 21.7-18.6 49.5-15.5 74.2 3.1 23.2 12.4 46.4 30.9 61.9 20.1 15.5 46.4 20.1 69.6 17 24.7-1.5 46.4-13.9 60.3-32.5 15.6-23.1 18.7-50.9 15.6-78.8zm-38.7 55.7c-7.7 15.5-21.7 26.3-38.7 29.4-15.5 3.1-32.5-1.5-43.3-10.8-12.4-9.3-20.1-23.2-23.2-37.1-3.1-20.1-1.5-40.2 6.2-58.8 7.7-17 24.7-29.4 43.3-30.9 15.5-1.5 32.5 3.1 44.9 13.9 10.8 12.4 17 27.8 18.6 43.3 1.5 17-.1 35.5-7.8 51z"/><path d="m67.5 377.60001h365v38.700001h-365z" fill="#3492ff"/></g></svg>