<?xml version="1.0" encoding="UTF-8" standalone="no"?>
<!-- Generator: Adobe Illustrator 17.1.0, SVG Export Plug-In . SVG Version: 6.00 Build 0)  -->

<svg
   xmlns:dc="http://purl.org/dc/elements/1.1/"
   xmlns:cc="http://creativecommons.org/ns#"
   xmlns:rdf="http://www.w3.org/1999/02/22-rdf-syntax-ns#"
   xmlns:svg="http://www.w3.org/2000/svg"
   xmlns="http://www.w3.org/2000/svg"
   xmlns:xlink="http://www.w3.org/1999/xlink"
   xmlns:sodipodi="http://sodipodi.sourceforge.net/DTD/sodipodi-0.dtd"
   xmlns:inkscape="http://www.inkscape.org/namespaces/inkscape"
   version="1.1"
   id="Layer_1"
   x="0px"
   y="0px"
   viewBox="0 0 22.970669 25"
   enable-background="new 0 0 800 450"
   xml:space="preserve"
   inkscape:version="0.91 r13725"
   sodipodi:docname="angular-fullstack-logo.svg"
   width="22.970669"
   height="25"><metadata
     id="metadata39277"><rdf:RDF><cc:Work
         rdf:about=""><dc:format>image/svg+xml</dc:format><dc:type
           rdf:resource="http://purl.org/dc/dcmitype/StillImage" /><dc:title></dc:title></cc:Work></rdf:RDF></metadata><defs
     id="defs39275" /><sodipodi:namedview
     pagecolor="#ffffff"
     bordercolor="#666666"
     borderopacity="1"
     objecttolerance="10"
     gridtolerance="10"
     guidetolerance="10"
     inkscape:pageopacity="0"
     inkscape:pageshadow="2"
     inkscape:window-width="1640"
     inkscape:window-height="863"
     id="namedview39273"
     showgrid="false"
     fit-margin-top="0"
     fit-margin-left="0"
     fit-margin-right="0"
     fit-margin-bottom="0"
     inkscape:zoom="1.28"
     inkscape:cx="284.9711"
     inkscape:cy="124.59256"
     inkscape:window-x="0"
     inkscape:window-y="0"
     inkscape:window-maximized="0"
     inkscape:current-layer="Layer_1" /><g
     id="g39073"
     transform="matrix(0.0699888,0,0,0.0699888,-5.3398008,-3.3594624)"><path
       d="m 252,405.2 c -84.1,0 -152.5,-69 -152.5,-153.9 0,-84.8 68.4,-153.8 152.5,-153.8 84.1,0 152.5,69 152.5,153.8 0,84.9 -68.4,153.9 -152.5,153.9 z m 0,-300 c -79.9,0 -144.8,65.6 -144.8,146.2 0,80.6 65,146.2 144.8,146.2 79.9,0 144.8,-65.6 144.8,-146.2 0,-80.6 -64.9,-146.2 -144.8,-146.2 z"
       id="path39075"
       inkscape:connector-curvature="0"
       style="fill:#020202" /><g
       id="g39077"><defs
         id="defs39079"><path
           id="SVGID_687_"
           d="m 335.2,127 0,-0.4 8.7,-43.4 c 0,0 -19.3,-44.3 -83.9,-39 -64.6,5.3 -72.8,20.2 -83.4,38.1 l 6.3,28.4 -12.1,7.7 c 0,0 -4.3,-13 -11.1,-13.5 0,0 10.1,-14.5 2.9,-24.6 -7.2,-10.1 -45.8,-9.2 -60.7,41.9 0,0 -1.9,-15.4 -8.2,-15.4 -6.3,0 -29.4,8.2 -23.1,32.3 6.3,24.1 28,31.3 35.2,34.2 0,0 3.4,4.3 1.9,10.1 -0.8,3 -18.2,57.1 -3.6,107.1 10.9,37.3 45.8,69.8 45.8,69.8 26.6,25.4 62.6,41 102.1,41 82.1,0 148.7,-67.2 148.7,-150 0,-51.7 -26,-97.3 -65.5,-124.3 z"
           inkscape:connector-curvature="0" /></defs><clipPath
         id="SVGID_688_"><use
           xlink:href="#SVGID_687_"
           overflow="visible"
           id="use39083"
           style="overflow:visible"
           x="0"
           y="0"
           width="100%"
           height="100%" /></clipPath><g
         clip-path="url(#SVGID_688_)"
         id="g39085"><ellipse
           cx="260.79999"
           cy="610.5"
           rx="137.3"
           ry="11.4"
           id="ellipse39087"
           style="fill:#d0d1d1" /><path
           d="m 424.4,474.5 c 0,0 2.5,33.7 -6.7,40.4 0,0 -1.9,13.5 -14.9,13.9 0,0 -2.9,7.7 -16.3,3.8 -13.5,-3.8 -25,-43.3 -25,-43.3 0,0 40.7,-34.5 62.9,-14.8 z"
           id="path39089"
           inkscape:connector-curvature="0"
           style="fill:#f3ce8b" /><path
           d="m 304.4,306 c 0,0 108.1,17.4 120,168.5 0,0 -20.1,12.8 -41.2,13.7 0,0.1 1.8,-116.2 -78.8,-182.2 z"
           id="path39091"
           inkscape:connector-curvature="0"
           style="fill:#060606" /><g
           id="g39093"><path
             d="m 410.8,408 c -5.9,2.9 -18.4,7.8 -37.9,9.8 0.7,2.5 1.3,5 1.9,7.4 7.7,-1.2 21.6,-4 38.2,-10.7 -0.7,-2.2 -1.4,-4.4 -2.2,-6.5 z"
             id="path39095"
             inkscape:connector-curvature="0"
             style="fill:#dd1f2c" /><path
             d="m 367.6,400.5 c 0.8,2.4 1.6,4.9 2.4,7.3 7.1,-0.7 23,-3 37.1,-9.4 -1,-2.4 -2,-4.7 -3,-6.9 -5.2,2.4 -16.7,6.7 -36.5,9 z"
             id="path39097"
             inkscape:connector-curvature="0"
             style="fill:#dd1f2c" /><path
             d="m 424.4,474.5 c -1.1,-13.8 -3,-26.5 -5.5,-38.2 -8.2,5.1 -21.3,11.2 -39,13.6 3.6,22.9 3.4,38.3 3.4,38.3 21,-0.9 41.1,-13.7 41.1,-13.7 z"
             id="path39099"
             inkscape:connector-curvature="0"
             style="fill:#dd1f2c" /></g><g
           id="g39101"><g
             id="g39103"><circle
               cx="193"
               cy="191.60001"
               r="23.200001"
               id="circle39105"
               style="fill:#f3ce8b" /><circle
               cx="193"
               cy="191.60001"
               r="23.200001"
               id="circle39107"
               style="fill:#f3ce8b" /><path
               d="m 169.8,191.6 c 0,0.7 0,1.4 0.1,2.1 1.7,-0.7 3.4,-1.6 5.3,-2.8 11,-7 11.3,-15.4 8.9,-20.7 -8.4,3.5 -14.3,11.7 -14.3,21.4 z"
               id="path39109"
               inkscape:connector-curvature="0"
               style="fill:#f3ce8b" /><circle
               cx="181"
               cy="191.60001"
               r="11.2"
               id="circle39111"
               style="fill:#f3ce8b" /><g
               id="g39113"><path
                 d="m 181,180.4 c -0.5,0 -0.9,0 -1.3,0.1 4.4,0.7 7.8,5.4 7.8,11.1 0,5.7 -3.4,10.5 -7.8,11.1 0.4,0.1 0.9,0.1 1.3,0.1 6.2,0 11.2,-5 11.2,-11.2 0,-6.2 -5,-11.2 -11.2,-11.2 z"
                 id="path39115"
                 inkscape:connector-curvature="0"
                 style="fill:#d7ae6f" /><path
                 d="m 179.6,180.5 c -0.3,-0.1 -0.7,-0.1 -1.1,-0.1 -4.9,0 -8.8,5 -8.8,11.2 0.1,-5.8 4.4,-10.5 9.9,-11.1 z"
                 id="path39117"
                 inkscape:connector-curvature="0"
                 style="fill:#f3ce8b" /><path
                 d="m 169.8,191.6 c 0,6.2 3.9,11.2 8.8,11.2 0.4,0 0.7,0 1.1,-0.1 -5.6,-0.7 -9.9,-5.4 -9.9,-11.1 z"
                 id="path39119"
                 inkscape:connector-curvature="0"
                 style="fill:#f3ce8b" /></g></g><g
             id="g39121"><path
               d="m 305.4,191.6 c 0,12.8 10.4,23.2 23.2,23.2 12.8,0 23.2,-10.4 23.2,-23.2 0,-12.8 -10.4,-23.2 -23.2,-23.2 -12.8,0 -23.2,10.4 -23.2,23.2 z"
               id="path39123"
               inkscape:connector-curvature="0"
               style="fill:#f3ce8b" /><path
               d="m 305.4,191.6 c 0,12.8 10.4,23.2 23.2,23.2 12.8,0 23.2,-10.4 23.2,-23.2 0,-12.8 -10.4,-23.2 -23.2,-23.2 -12.8,0 -23.2,10.4 -23.2,23.2 z"
               id="path39125"
               inkscape:connector-curvature="0"
               style="fill:#f3ce8b" /><circle
               cx="340.60001"
               cy="191.60001"
               r="11.2"
               id="circle39127"
               style="fill:#f3ce8b" /><g
               id="g39129"><path
                 d="m 334.2,191.6 c 0,-5.7 3.4,-10.5 7.8,-11.1 -0.4,-0.1 -0.9,-0.1 -1.3,-0.1 -6.2,0 -11.2,5 -11.2,11.2 0,6.2 5,11.2 11.2,11.2 0.5,0 0.9,0 1.3,-0.1 -4.4,-0.7 -7.8,-5.4 -7.8,-11.1 z"
                 id="path39131"
                 inkscape:connector-curvature="0"
                 style="fill:#d7ae6f" /><path
                 d="m 351.8,191.6 c 0,-6.2 -3.9,-11.2 -8.8,-11.2 -0.4,0 -0.7,0 -1.1,0.1 5.6,0.6 9.9,5.3 9.9,11.1 z"
                 id="path39133"
                 inkscape:connector-curvature="0"
                 style="fill:#f3ce8b" /><path
                 d="m 341.9,202.7 c 0.3,0.1 0.7,0.1 1.1,0.1 4.9,0 8.8,-5 8.8,-11.2 0,5.7 -4.3,10.4 -9.9,11.1 z"
                 id="path39135"
                 inkscape:connector-curvature="0"
                 style="fill:#f3ce8b" /></g></g></g><g
           id="g39137"><path
             d="m 128.2,206.4 c 0,0 22.1,2.9 19.2,-19.2 0,0 7.7,12 25,1 17.3,-11.1 8.2,-25.5 3.4,-25.9 -4.8,-0.5 -11.5,-5.8 -28.4,11.5 l -9.6,-22.1 11.1,-14.4 c 0,0 1.5,20.8 17.6,15 16.1,-5.8 4,-41.4 -10.4,-41.4 -14.4,0 -25.9,14.9 -25.9,14.9 0,0 4.8,-13.5 25.9,-24.5 0,0 8.2,-4.8 3.4,-16.8 -4.8,-12 -50.5,-3.4 -57.7,55.3 0,0 -8.2,-7.7 -6.2,-19.7 1.9,-12 -23.5,-8.6 -18.7,17.3 4.8,26 29.8,31.2 29.8,31.2 0,0 8.5,13.7 2.4,29.3 -0.1,-0.2 9.5,11.8 19.1,8.5 z"
             id="path39139"
             inkscape:connector-curvature="0"
             style="fill:#f3ce8b" /><g
             id="g39141"><path
               d="m 172.4,188.1 c 17.3,-11.1 8.2,-25.5 3.4,-25.9 -3,-0.3 -6.6,-2.4 -12.9,0 l 5.7,11.7 c 0,0 -1.2,16.7 -19.8,12.4 0,0 -0.2,0.7 -0.7,1.7 2,2.4 9.8,9.4 24.3,0.1 z"
               id="path39143"
               inkscape:connector-curvature="0"
               style="fill:#f3ce8b" /><path
               d="m 147.6,188.8 c -2.9,5.2 -12.9,15.1 -36.9,2.7 -0.5,2.2 -0.9,4.1 -1.7,6.2 0,0 9.6,12 19.2,8.7 0,0 21,2.7 19.4,-17.6 z"
               id="path39145"
               inkscape:connector-curvature="0"
               style="fill:#f3ce8b" /></g><path
             d="m 148.9,137.2 c 0,0 1.5,20.8 17.6,15 6.6,-2.4 8.4,-9.8 7.4,-17.6 -4,4.1 -16.4,14.7 -21.2,-7.6 l -22.1,25.6 -17.6,10 21.7,-5.4 12.7,16.5 -9.6,-22.1 11.1,-14.4 z"
             id="path39147"
             inkscape:connector-curvature="0"
             style="fill:#f3ce8b" /><path
             d="m 133.8,119.4 c 3.6,-4.9 10.3,-12 22.3,-18.3 0,0 8.2,-4.8 3.4,-16.8 -0.1,-0.2 -0.2,-0.4 -0.3,-0.6 -1.1,3.6 -3.4,8 -7.7,11 -8.9,6.2 -40.7,28.3 -30.7,61.7 0,0 -4.1,-20.6 13,-37 z"
             id="path39149"
             inkscape:connector-curvature="0"
             style="fill:#f3ce8b" /><path
             d="m 101.3,139.1 c -1.7,-1.8 -7.4,-8.9 -5.8,-19.2 0.8,-4.7 -2.8,-7.1 -7,-6.6 -0.8,12.9 1,39.1 26.4,46.6 0.1,0 -9.6,-4.6 -13.6,-20.8 z"
             id="path39151"
             inkscape:connector-curvature="0"
             style="fill:#f3ce8b" /></g><path
           d="m 109,197.7 19.2,8.7 c 0,0 -17.3,95.2 73,99 0,0 0.6,61.2 -55.1,60.2 0,0 -73.6,-58.5 -37.1,-167.9 z"
           id="path39153"
           inkscape:connector-curvature="0"
           style="fill:#060606" /><path
           d="m 132,258.1 c -0.3,-0.9 -0.6,-1.7 -0.8,-2.6 0,0 0,0 0,-0.1 -4.3,2.2 -15.8,7.2 -32.2,7 0.1,2.1 0.2,4.2 0.4,6.3 8.3,0 21.9,-1.1 33.8,-7.5 0,0 0,0 0,-0.1 -0.3,-0.9 -0.7,-1.8 -1,-2.7 -0.1,0 -0.1,-0.1 -0.2,-0.3 z"
           id="path39155"
           inkscape:connector-curvature="0"
           style="fill:#dd1f2c" /><path
           d="m 138.1,271.8 c -0.5,-0.8 -0.9,-1.6 -1.3,-2.4 0,0 0,0 0,0 -4.9,2.3 -18.6,7.9 -36.6,7.9 0.3,2.4 0.7,4.7 1.1,7 9.8,0 24.2,-1.7 38.4,-9.9 0,0 0,0 0,-0.1 -0.5,-0.8 -1,-1.6 -1.4,-2.4 -0.1,0 -0.2,-0.1 -0.2,-0.1 z"
           id="path39157"
           inkscape:connector-curvature="0"
           style="fill:#dd1f2c" /><path
           d="m 109,197.7 c -5.2,14.3 -7.4,27.4 -9.1,39.7 9.1,1.8 18.4,1.9 27.4,-3.9 -1.2,-15.4 1,-27.2 1,-27.2 L 109,197.7 Z"
           id="path39159"
           inkscape:connector-curvature="0"
           style="fill:#dd1f2c" /><g
           id="g39161"><g
             id="g39163"><path
               d="m 136.9,441.9 117.7,151.9 c 0,0 4.6,1.6 6.6,-0.7 l 0,-151.2 -124.3,0 z"
               id="path39165"
               inkscape:connector-curvature="0"
               style="fill:#060606" /><path
               d="m 254.7,593.7 -23.7,15.5 0,3.3 30.6,0 -0.3,-19.4 c 0,0 -3.3,-3.7 -6.6,0.6 z"
               id="path39167"
               inkscape:connector-curvature="0"
               style="fill:#060606" /></g><g
             id="g39169"><path
               d="M 384.6,441.9 266.9,593.7 c 0,0 -4.6,1.6 -6.6,-0.7 l 0,-151.1 124.3,0 z"
               id="path39171"
               inkscape:connector-curvature="0"
               style="fill:#060606" /><path
               d="m 266.9,593.7 23.7,15.5 0,3.3 -30.6,0 0.3,-19.4 c 0,0 3.3,-3.7 6.6,0.6 z"
               id="path39173"
               inkscape:connector-curvature="0"
               style="fill:#060606" /></g><path
             d="m 260.8,592.6 c 0.7,-8.2 1.1,-18.7 1.1,-30.2 0,-11.5 -0.4,-22 -1.1,-30.2 -0.7,8.2 -1.1,18.7 -1.1,30.2 0,11.5 0.4,22 1.1,30.2 z"
             id="path39175"
             inkscape:connector-curvature="0"
             style="fill:#1a1919" /></g><path
           d="m 315,303 -54.2,0 -54.2,0 C 91.2,353.7 118.1,544.8 118.1,544.8 l 143.5,0 0,-87.4 7.9,87.4 134,0 c 0,-0.1 26.9,-191.2 -88.5,-241.8 z"
           id="path39177"
           inkscape:connector-curvature="0"
           style="fill:#060606" /><path
           d="m 361.5,489.4 c 0,0 11.5,39.4 25,43.3 13.5,3.8 16.3,-3.8 16.3,-3.8 3.8,-0.1 6.6,-1.4 8.8,-3.1 0.9,-13.8 1.5,-34.1 -0.1,-57 -22.1,-3.1 -50,20.6 -50,20.6 z"
           id="path39179"
           inkscape:connector-curvature="0"
           style="fill:#f3ce8b" /><path
           d="M 412.2,480.8 C 410.6,439.7 402.3,386.9 374.7,347.4 341.6,312 304.4,306 304.4,306 c 80.6,65.9 78.8,182.2 78.8,182.2 10.8,-0.4 21.3,-4 29,-7.4 z"
           id="path39181"
           inkscape:connector-curvature="0"
           style="fill:#931a26" /><path
           d="m 122.7,422 c -0.4,1.8 -0.7,3.5 -1.1,5.3 31.9,-11.7 82.4,-19.3 139.2,-19.3 56.8,0 107.2,7.6 139.1,19.3 -0.3,-1.8 -0.7,-3.5 -1.1,-5.3 -31.9,-11.5 -81.9,-18.9 -138.1,-18.9 -56.1,0 -106,7.4 -138,18.9 z"
           id="path39183"
           inkscape:connector-curvature="0"
           style="fill:#dd1f2c" /><path
           d="m 129,397.9 c -0.5,1.6 -1,3.2 -1.4,4.7 32,-10.6 79.8,-17.3 133.2,-17.3 53.4,0 101.2,6.7 133.2,17.3 -0.5,-1.6 -0.9,-3.2 -1.4,-4.7 -32,-10.3 -79.2,-16.8 -131.7,-16.8 -52.7,0 -99.9,6.5 -131.9,16.8 z"
           id="path39185"
           inkscape:connector-curvature="0"
           style="fill:#dd1f2c" /><path
           d="m 173.9,323.9 c -24.7,31.9 -22,70.6 -22,70.6 l 6.7,-3.1 c -2.1,-33.8 13.3,-60.6 23,-73.9 -2.7,2.1 -5.3,4.2 -7.7,6.4 z"
           id="path39187"
           inkscape:connector-curvature="0"
           style="fill:#dd1f2c" /><path
           d="m 340,317.6 c 9.7,13.3 25.1,40.1 23,73.9 l 6.7,3.1 c 0,0 2.7,-38.7 -22,-70.6 -2.5,-2.3 -5,-4.4 -7.7,-6.4 z"
           id="path39189"
           inkscape:connector-curvature="0"
           style="fill:#dd1f2c" /><path
           d="m 261.5,457.3 7.9,87.4 134,0 c 0,0 8.2,-58.7 -4,-119.6 l -6.9,-2.2 c 11.2,30.7 6,113.8 6,113.8 l -122,0 -11.5,-128.9 -9.4,0 -1.2,128.9 -130.1,0 c -6,-58.4 3.4,-113.4 3.4,-113.4 l -5.5,1.5 c -12.4,61.1 -4.1,120 -4.1,120 l 143.5,0 0,-87.5 z"
           id="path39191"
           inkscape:connector-curvature="0"
           style="fill:#dd1f2c" /><path
           d="m 320.7,299 c 0,0 -23,21 -60.9,21 -45.1,0 -59,-21 -59,-21 l -8,-146.8 135.9,0 -8,146.8 z"
           id="path39193"
           inkscape:connector-curvature="0"
           style="fill:#f3ce8b" /><path
           d="m 320.7,299 c 0,0 -23,21 -60.9,21 -45.1,0 -59,-21 -59,-21 l -8,-146.8 135.9,0 -8,146.8 z"
           id="path39195"
           inkscape:connector-curvature="0"
           style="fill:#f3ce8b" /><path
           d="m 320.7,299 c 0,0 -23,21 -60.9,21 -45.1,0 -59,-21 -59,-21 l -8,-146.8 135.9,0 -8,146.8 z"
           id="path39197"
           inkscape:connector-curvature="0"
           style="fill:#f3ce8b" /><path
           d="m 278,177.2 3.4,-4.3 c 0,0 12.2,-0.6 31,9.5 0,0 -13.6,-16.8 -34,-11.1 l 0.6,-3.7 -5.8,9.5 c 0,0 2.1,12.7 -0.2,21.8 l -24.4,0 c -2.3,-9.2 -0.2,-21.8 -0.2,-21.8 l -5.8,-9.5 0.6,3.7 c -20.5,-5.6 -34,11.1 -34,11.1 18.8,-10.1 31,-9.5 31,-9.5 l 3.4,4.3 c -6.6,13.1 -22,14.2 -22,14.2 16.2,1.7 22.1,-8.4 22.1,-8.4 -0.9,7.9 0.8,18.4 0.8,18.4 l 16.3,11.5 0.1,-0.1 0.1,0.1 16.3,-11.5 c 0,0 1.7,-10.4 0.8,-18.4 0,0 6,10.1 22.1,8.4 -0.2,0 -15.6,-1.1 -22.2,-14.2 z"
           id="path39199"
           inkscape:connector-curvature="0"
           style="fill:#b27e30" /><ellipse
           cx="260.79999"
           cy="224.7"
           rx="22.299999"
           ry="13.4"
           id="ellipse39201"
           style="fill:#060606" /><path
           d="m 260.8,238.8 c 5,0 9.7,-1.7 13.4,-3.4 -2.6,-2.8 -7.6,-4.7 -13.4,-4.7 -5.8,0 -10.8,1.9 -13.4,4.7 3.7,1.7 8.3,3.4 13.4,3.4 z"
           id="path39203"
           inkscape:connector-curvature="0"
           style="fill:#dd1f2c" /><path
           d="m 260.8,211.4 c -12.3,0 -22.3,6 -22.3,13.4 0,0.4 0,0.8 0.1,1.1 l 44.4,0 c 0.1,-0.4 0.1,-0.8 0.1,-1.1 0,-7.4 -10,-13.4 -22.3,-13.4 z"
           id="path39205"
           inkscape:connector-curvature="0"
           style="fill:#ffffff" /><path
           d="m 260.8,246.8 c -4.5,0 -8.7,-0.8 -12.2,-2.2 2.8,3.6 7.2,6 12.2,6 5,0 9.4,-2.4 12.2,-6 -3.5,1.4 -7.7,2.2 -12.2,2.2 z"
           id="path39207"
           inkscape:connector-curvature="0"
           style="fill:#c78b2b" /><path
           d="m 260.8,286.5 c -7.7,0 -14.9,-1.4 -20.9,-3.8 4.8,6.2 12.4,10.3 20.9,10.3 8.5,0 16.1,-4 20.9,-10.3 -6,2.4 -13.2,3.8 -20.9,3.8 z"
           id="path39209"
           inkscape:connector-curvature="0"
           style="fill:#c78b2b" /><polygon
           points="194.2,176.3 327.4,176.3 328.7,152.2 192.8,152.2 "
           id="polygon39211"
           style="fill:#ce9f62" /><path
           d="m 329,152.2 11.9,-68.9 c 0,0 -18,-35.3 -79.8,-35.3 -75.1,0 -80.5,35.3 -80.5,35.3 l 11.9,68.9 136.5,0 z"
           id="path39213"
           inkscape:connector-curvature="0"
           style="fill:#060606" /><polygon
           points="187.4,122.6 192.6,152.2 329,152.2 334.1,122.6 "
           id="polygon39215"
           style="fill:#dd1f2c" /><polygon
           points="349.6,168.6 171.9,168.6 166.5,152.2 355.1,152.2 "
           id="polygon39217"
           style="fill:#060606" /><g
           id="g39219"><circle
             cx="260.79999"
             cy="132.10001"
             r="22"
             id="circle39221"
             style="fill:#060606" /><path
             d="m 260.8,151.3 c -10.6,0 -19.3,-8.6 -19.3,-19.3 0,-10.6 8.7,-19.3 19.3,-19.3 10.6,0 19.3,8.7 19.3,19.3 0,10.7 -8.7,19.3 -19.3,19.3 z m 0,-36 c -9.2,0 -16.8,7.5 -16.8,16.8 0,9.2 7.5,16.8 16.8,16.8 9.2,0 16.8,-7.5 16.8,-16.8 0,-9.3 -7.6,-16.8 -16.8,-16.8 z"
             id="path39223"
             inkscape:connector-curvature="0"
             style="fill:#dd1f2c" /><path
             d="m 260.8,146 c -7.7,0 -13.9,-6.2 -13.9,-13.9 0,-7.7 6.2,-13.9 13.9,-13.9 7.7,0 13.9,6.2 13.9,13.9 0,7.6 -6.2,13.9 -13.9,13.9 z m 0,-26 c -6.7,0 -12.1,5.4 -12.1,12.1 0,6.7 5.4,12.1 12.1,12.1 6.7,0 12.1,-5.4 12.1,-12.1 0,-6.7 -5.4,-12.1 -12.1,-12.1 z"
             id="path39225"
             inkscape:connector-curvature="0"
             style="fill:#dd1f2c" /><polygon
             points="266.6,130.8 274.4,131.7 266.7,133 273.6,136.6 266,135.1 271.1,141 264.5,136.7 267.2,144.1 262.6,137.8 262.4,145.6 260.4,138 257.4,145.3 258.3,137.5 252.9,143.1 256.5,136.2 249.4,139.5 255.3,134.4 247.5,134.9 254.8,132.2 247.3,129.9 255.1,130 249,125.2 256.2,128.1 252.3,121.4 258,126.8 256.7,119.1 260.1,126.1 261.7,118.5 262.3,126.2 266.5,119.7 264.3,127.2 270.6,122.6 265.8,128.8 273.4,126.8 "
             id="polygon39227"
             style="fill:#dd1f2c" /><path
             d="m 264.9,132.1 c 0,2.3 -1.9,4.2 -4.2,4.2 -2.3,0 -4.2,-1.9 -4.2,-4.2 0,-2.3 1.9,-4.2 4.2,-4.2 2.4,0 4.2,1.9 4.2,4.2 z"
             id="path39229"
             inkscape:connector-curvature="0"
             style="fill:#060606" /></g><path
           d="m 259.8,320 c -45,0 -59,-21 -59,-21 l 1.6,29.8 c 0,0 13.5,20.4 57.4,20.4 36.9,0 59.3,-20.4 59.3,-20.4 l 1.6,-29.8 c 0,0 -23,21 -60.9,21 z"
           id="path39231"
           inkscape:connector-curvature="0"
           style="fill:#dd1f2c" /><path
           d="m 260.8,348.8 c 1.1,-3.9 1.8,-8.9 1.8,-14.3 0,-5.4 -0.7,-10.4 -1.8,-14.3 -1.1,3.9 -1.8,8.9 -1.8,14.3 0,5.4 0.7,10.5 1.8,14.3 z"
           id="path39233"
           inkscape:connector-curvature="0"
           style="fill:#060606" /><circle
           cx="271.39999"
           cy="335.39999"
           r="4.0999999"
           id="circle39235"
           style="fill:#931a26" /><circle
           cx="270.5"
           cy="334.5"
           r="4.0999999"
           id="circle39237"
           style="fill:#ffffff" /><path
           d="m 275.4,375.6 -29.2,0 c -4.6,0 -8.4,3.8 -8.4,8.4 l 0,20.8 c 0,4.6 3.8,8.4 8.4,8.4 l 29.2,0 c 4.6,0 8.4,-3.8 8.4,-8.4 l 0,-20.8 c 0,-4.7 -3.8,-8.4 -8.4,-8.4 z m -2.3,11.6 0,14.2 c 0,0.9 -0.7,1.5 -1.5,1.5 l -21.6,0 c -0.8,0 -1.5,-0.7 -1.5,-1.5 l 0,-14.2 c 0,-0.9 0.7,-1.5 1.5,-1.5 l 21.5,0 c 0.9,0 1.6,0.7 1.6,1.5 z"
           id="path39239"
           inkscape:connector-curvature="0"
           style="fill:#fbaf17" /><polygon
           points="277,201.5 244.6,201.5 260.7,212.8 260.8,212.8 260.9,212.8 "
           id="polygon39241"
           style="fill:#c78b2b" /><g
           id="g39243"><path
             d="m 260.8,210.3 c 0,0 -13.6,-16.2 -45.5,-8.2 -31.9,7.9 -48.2,47.5 -48.2,47.5 0,0 17.4,13 44.6,9.5 27.1,-3.6 49.2,-32.6 49.1,-48.8 z"
             id="path39245"
             inkscape:connector-curvature="0"
             style="fill:#4d1c0e" /><path
             d="m 260.8,210.3 c 0,0 13.6,-16.2 45.5,-8.2 31.9,7.9 48.2,47.5 48.2,47.5 0,0 -17.4,13 -44.6,9.5 -27.1,-3.6 -49.3,-32.6 -49.1,-48.8 z"
             id="path39247"
             inkscape:connector-curvature="0"
             style="fill:#4d1c0e" /></g><polygon
           points="322.6,349.1 322.6,346.3 311.9,346.3 311.9,349.1 316.2,349.1 323.3,357.8 323.3,363.3 319.1,363.3 319.1,366.1 330.4,366.1 330.4,363.3 326.2,363.3 326.2,357.8 333.4,349.1 337.6,349.1 337.6,346.3 326.9,346.3 326.9,349.1 329.7,349.1 324.8,355.2 319.8,349.1 "
           id="polygon39249"
           style="fill:#dd1f2c" /></g></g></g></svg>