<svg height="25" viewBox="0 0 21.864407 25" width="21.864407" xmlns="http://www.w3.org/2000/svg"><g transform="matrix(.21186441 0 0 .21186441 -2.097458 -8.940678)"><path d="m105.9 66.3-37.2-22.1c-4.4-2.6-9.9-2.6-14.4 0l-37.2 22.1c-4.4 2.6-7.2 7.5-7.2 12.8v44.2c0 5.3 2.7 10.1 7.2 12.8l37.2 22.1c2.2 1.3 4.7 2 7.2 2s5-.7 7.2-2l37.2-22.1c4.4-2.6 7.2-7.5 7.2-12.8v-44.3c0-5.2-2.7-10.1-7.2-12.7z" fill="#fff"/><path d="m105.9 66.3-37.2-22.1c-2.2-1.3-4.7-2-7.2-2s-5 .7-7.2 2l-37.2 22.1c-4.4 2.6-7.2 7.5-7.2 12.8v44.2c0 5.3 2.7 10.1 7.2 12.8l37.2 22.1c2.2 1.3 4.7 2 7.2 2s5-.7 7.2-2l37.2-22.1c4.4-2.6 7.2-7.5 7.2-12.8v-44.3c0-5.2-2.7-10.1-7.2-12.7zm-50.3 89.5-37.2-22.1c-3.6-2.2-5.9-6.2-5.9-10.5v-44.2c0-4.3 2.3-8.4 5.9-10.5l37.2-22.1c1.8-1.1 3.8-1.6 5.9-1.6s4.1.6 5.9 1.6l37.2 22.1c3.1 1.8 5.1 5 5.7 8.5-1.2-2.6-4-3.4-7.3-1.5l-35.1 21.8c-4.4 2.6-7.6 5.4-7.6 10.7v43.4c0 3.2 1.3 5.2 3.2 5.8-.6.1-1.3.2-2 .2-2 .1-4.1-.5-5.9-1.6z" fill="#2a3238"/><path d="m96.2 127.5-9.3 5.5c-.2.1-.4.3-.4.6v2.4c0 .3.2.4.4.3l9.4-5.7c.2-.1.3-.4.3-.7v-2.1c0-.3-.2-.4-.4-.3z" fill="#4da925"/><path d="m76.4 107.1c.3-.2.5 0 .6.4v3.2c1.3-.5 2.5-.7 3.6-.4.2.1.3.4.2.7l-.7 2.8c-.1.2-.2.4-.3.6-.1.1-.1.1-.2.1s-.2.1-.3 0c-.5-.1-1.6-.4-3.4.6-1.9 1-2.6 2.6-2.5 3.8 0 1.5.8 1.9 3.3 1.9 3.4.1 4.9 1.6 5 5 0 3.4-1.8 7.1-4.6 9.3l.1 3.2c0 .4-.2.8-.5 1l-1.9 1.1c-.3.2-.5 0-.6-.4v-3.1c-1.6.7-3.2.8-4.3.4-.2-.1-.3-.4-.2-.7l.7-2.9c.1-.2.2-.5.3-.6s.1-.1.2-.1c.1-.1.2-.1.3 0 1.1.4 2.6.2 3.9-.5 1.8-.9 2.9-2.7 2.9-4.5 0-1.6-.9-2.3-3-2.3-2.7 0-5.2-.5-5.3-4.5 0-3.3 1.7-6.7 4.4-8.8v-3.2c0-.4.2-.8.5-1z" fill="#fff"/></g></svg>