<svg height="25" width="25" xmlns="http://www.w3.org/2000/svg"><path d="m0 12.500391v12.499609h25v-25h-25zm20.146636-.996063c.634745.158589 1.119106.440611 1.563623.900753.230462.246086.571466.69451.5992.801537.0078.03125-1.079263.761696-1.738227 1.170667-.02344.01563-.119137-.0871-.226556-.246085-.321474-.468736-.658573-.670683-1.174572-.706229-.757789-.05157-1.249961.345301-1.242148 1.007781 0 .194525.02734.309366.107027.468736.166792.345301.476548.551545 1.448392.972625 1.789788.769508 2.55539 1.277304 3.031156 1.999938.531233.805444.650761 2.091341.289835 3.047561-.396864 1.039811-1.380817 1.746039-2.765539 1.980407-.428502.07538-1.444487.06367-1.904628-.01953-1.003875-.17851-1.956189-.674589-2.54367-1.32535-.230462-.253897-.678495-.916767-.650761-.964812.01172-.01563.115231-.07929.230461-.146872l.928487-.535139.718728-.416783.150776.222649c.21015.321474.670682.761695.948408.908565.797631.42069 1.892909.360926 2.432345-.123043.230462-.210149.325381-.428502.325381-.749976 0-.289835-.03516-.416785-.186322-.634746-.194525-.277335-.591388-.511703-1.718697-.999969-1.289803-.555451-1.845255-.900753-2.353051-1.448392-.293741-.317568-.571467-.825365-.686697-1.249961-.09531-.353114-.119137-1.238242-.04375-1.595263.265617-1.249961 1.206213-2.115168 2.563592-2.372973.440611-.0832 1.464798-.05157 1.896815.05547zm-5.868957 1.042936.0078 1.023405h-3.253805v9.245806h-2.3014901v-9.245806h-3.2538045v-1.003874l.027343-1.031218c.011718-.01563 1.9921252-.02344 4.3928315-.01953l4.3690043.01172z" fill="#007acc"/></svg>