<svg height="20.000002pt" viewBox="0 0 20.894445 20.000002" width="20.894445pt" xmlns="http://www.w3.org/2000/svg"><g transform="matrix(.03749306 0 0 .03749306 -1.586965 -1.399272)"><g fill="#9b99a6"><path d="m151.48 43.39c4.88-3.86 11.23-6.91 17.59-5.86 6.31 1.53 12.97 3.99 16.78 9.58 6.64 9.37 5.56 22.67-1.29 31.63l-.52-.52c-1.54-1.54-3.04-3.18-4.9-4.34-2.05-1.35-5.32-.2-5.88 2.24-.73 3.58.99 7 2.71 10.03-6.05 1.24-12.63 2.07-18.47-.46-8.75-3.6-15.51-12.18-16.26-21.69.48-7.85 4.77-15.13 10.24-20.61z"/><path d="m243.22 150.5c4.99-.86 9.67-3.15 14.78-3.36 11.33-.39 22.9.31 33.68 4.1 3.15 1.14 6.26 2.87 8.12 5.78-4.66.83-9 2.73-13.39 4.39-17.33 6.8-34.36 14.4-50.71 23.3-7.2 3.95-14.41 8.02-20.62 13.44-4.45 3.95-9.7 7.03-13.47 11.7-1.29-12.12 1.15-24.95 8.53-34.85 3.21-5.24 8.43-8.62 12.63-12.96 5.81-5.35 13.01-9.01 20.45-11.54z"/><path d="m564.01 220.03c4.48-4.21 10.89-6.01 16.94-5.23 7.41 1.14 13.88 6.44 16.84 13.28 3.92 9.19 1.45 20.92-6.68 27.03-7.38 5.72-18.65 5.52-25.65-.74 3.54-3.3 7.54-7.85 6.36-13.04-3.53-4.55-10.55-3.9-15.09-1.28-1.08-7.33 1.47-15.26 7.28-20.02z"/><path d="m494.25 237.33c13.91-1.36 25.98 7.37 36.26 15.62 5.12 5.05 8.71 11.69 10.08 18.75 1.69 9.86 1.16 20.08-2.29 29.52-2.86 9.37-7.64 19.53-16.96 23.86-.11-5.43-1.34-10.74-2.26-16.07-3.94-21-10.06-41.65-19.01-61.07-1.61-3.71-3.42-7.34-5.82-10.61z"/><path d="m143.13 398.18c7.38-2.74 15.44-.15 21.79 3.92 13.94 8.12 27.14 18.06 36.94 31.02 6.57 8.73 12.39 18.08 17.05 27.97 3.3 7.23 5.9 14.97 6.07 22.98.21 7.7-4.54 14.48-9.96 19.5-6.18 5.04-12.24 10.35-19.27 14.19-9.04 4.75-19.67 7.1-29.81 5.2-12.44-2.08-24.09-8.05-33.52-16.35 3.39-2.17 7.18-5.19 7.18-9.61.69-8.27-7.43-15.46-15.47-14.85-3.06 1.35-5 4.31-7.2 6.7-5.06-7.93-9.04-17.24-8.12-26.82 2.56-17.01 8.15-33.87 18.32-47.9 1.07-1.28 1.18-2.97 1.33-4.55 5.15-3.48 8.63-9.24 14.67-11.4z"/><path d="m45.51 523.4c4.86-10.49 15.96-17.62 27.49-17.68 7.54.65 14.65 3.56 21.38 6.85 4.69 2.42 7.87 7.01 9.45 11.95 3.97 11 1.74 23.78-5.47 32.94-4.49 5.43-9.96 10.53-17.02 12.21-10.49 3.1-22.05-.7-29.66-8.28-9.07-10.05-12.38-25.63-6.17-37.99z"/></g><g fill="#f79727"><path d="m173.26 76.12c.56-2.44 3.83-3.59 5.88-2.24 1.86 1.16 3.36 2.8 4.9 4.34 2.8 3.43 6.05 6.43 9.07 9.66 12.29 13.51 23.35 28.07 35.01 42.11 5.35 6.52 10.65 13.08 15.88 19.7l-.78.81c-7.44 2.53-14.64 6.19-20.45 11.54-2.5-2.57-4.2-5.72-6.1-8.72-10.33-16.49-20.36-33.18-29.69-50.26-3.29-5.88-7.63-11.09-11.01-16.91-1.72-3.03-3.44-6.45-2.71-10.03z"/><path d="m556.73 240.05c4.54-2.62 11.56-3.27 15.09 1.28 1.18 5.19-2.82 9.74-6.36 13.04-7.75 6.47-15.9 12.64-24.87 17.33-1.37-7.06-4.96-13.7-10.08-18.75 8.19-5.37 17.82-7.9 26.22-12.9z"/><path d="m116.93 488.85c2.2-2.39 4.14-5.35 7.2-6.7 8.04-.61 16.16 6.58 15.47 14.85 0 4.42-3.79 7.44-7.18 9.61-4.72 2.9-9.59 5.54-14.21 8.6-4.81 3.08-9.24 6.75-14.38 9.31-1.58-4.94-4.76-9.53-9.45-11.95 5.84-9.37 15.41-15.47 22.55-23.72z"/></g><path d="m323.07 152.65c12.44-1.99 25.07-1.46 37.62-1.26 36.85 2.51 73.61 16.68 100.27 42.67 3.75 2.58 6.04 6.6 9.35 9.64 9.42 10.11 16.61 22 23.94 33.63 2.4 3.27 4.21 6.9 5.82 10.61 8.95 19.42 15.07 40.07 19.01 61.07.92 5.33 2.15 10.64 2.26 16.07-.45 9.36 1.63 18.72.34 28.06-.63 5.06-.06 10.2-.99 15.22-1.44 9.43-5.58 18.12-9.76 26.59-2 4.22-6.4 6.33-10.08 8.83-3.75 2.44-8.72 4.67-13.08 2.43-6.89-3.92-10.21-11.76-11.78-19.18-1.73-6.88-1.13-14-1.23-21.01-1.09-19.58-2.18-39.31-6.52-58.5-2.91-12.58-7.89-25.26-17.6-34.16-6.15-5.19-13.19-9.38-20.75-12.14-11.31-3.36-23.1-5.31-34.92-5.06-14.27-.32-28.33 2.67-42.06 6.26-13.89 3.61-27.01 9.53-39.97 15.6-10.29 4.36-20.02 9.85-29.91 15.02-5.54 2.99-11.02 6.13-16.01 9.98-9.03 6.89-18.74 13.14-26.14 21.89-7.42 8.75-14.01 18.75-16.26 30.18-2.83 16.82.39 34.12 6.38 49.92 6.85 17.44 17.08 33.49 29.75 47.28 8.76 10.98 20.42 19.02 31.73 27.14 6.19 4.06 10.25 11.24 10.3 18.67-.58 6.2-5.31 11.06-10.19 14.45-5.26 3.25-11.41 5.36-17.64 5.17-14.59-.13-29.3-1.87-43.15-6.59-5.84-1.96-11.21-4.99-16.78-7.56 5.42-5.02 10.17-11.8 9.96-19.5-.17-8.01-2.77-15.75-6.07-22.98-4.66-9.89-10.48-19.24-17.05-27.97-9.8-12.96-23-22.9-36.94-31.02-6.35-4.07-14.41-6.66-21.79-3.92-6.04 2.16-9.52 7.92-14.67 11.4-1.51-4.39-.8-9.12-1.41-13.65-.76-5.29-.34-10.64-.85-15.94-.81-7.31-.42-14.68-.55-22.02-.21-14.35.06-28.78 2.27-42.99 2.14-13.19 7.56-25.57 13.7-37.34 6.66-12.46 15.16-23.9 24.76-34.26 5.25-6.04 10.85-11.81 17.09-16.83 5.61-6.05 12.89-10.32 18.14-16.7 3.77-4.67 9.02-7.75 13.47-11.7 6.21-5.42 13.42-9.49 20.62-13.44 16.35-8.9 33.38-16.5 50.71-23.3 4.39-1.66 8.73-3.56 13.39-4.39 7.91-.59 15.37-3.67 23.27-4.37z" fill="#787880"/></g></svg>