<svg height="25" preserveAspectRatio="xMidYMid" viewBox="0 0 2.56 2.56" width="25" xmlns="http://www.w3.org/2000/svg"><path d="m1.28 0c-.14144 0-.256.11456-.256.256v.896c0 .14128.11456.256.256.256s.256-.11472.256-.256v-.59616c.29824.1056.512.38976.512.72416 0 .424-.344.768-.768.768s-.768-.344-.768-.768c0-.21216.08592-.40416.22496-.54304.1-.1.1-.26208 0-.36208s-.26208-.1-.36208 0c-.23152.23152-.37488.55152-.37488.90512 0 .70688.57312 1.28 1.28 1.28s1.28-.57312 1.28-1.28-.57312-1.28-1.28-1.28" fill="#1e8cbe"/></svg>