<svg height="25.000044" viewBox="-18.458 6.58 1.9439204 1.9112844" width="25.423885" xmlns="http://www.w3.org/2000/svg"><path d="m-16.66764 8.0591717c-.105824-.00245-.187755.00736-.256516.037041-.01987.00736-.05142.00736-.05419.033116.01079.00981.01202.027719.02134.042438.01595.026493.04349.062062.06874.08046.02772.022077.05554.042192.0847.060835.05142.03189.1097.050287.159816.081932.02919.019624.05821.042192.08745.062062.01447.00981.02355.027719.04222.034343v-.00491c-.0093-.012265-.01202-.029191-.0211-.042438l-.03971-.038267c-.03837-.051514-.08603-.096405-.137469-.1334454-.04232-.029191-.134917-.068931-.152064-.1175007l-.0027-.00245c.02909-.00245.06361-.012265.09125-.022077.04499-.012265.086-.00981.132145-.022077.02134-.00491.04229-.012265.06361-.019624v-.012265c-.02404-.02453-.04099-.055439-.06616-.078007-.06731-.058137-.141491-.1150476-.218149-.1626366-.04106-.026493-.09385-.043664-.137566-.065987-.0157-.00736-.04229-.012265-.05156-.025021-.02379-.029191-.03707-.067459-.05426-.1018012-.03822-.07261-.07536-.153315-.108326-.2300952-.02379-.051514-.03837-.1030277-.06746-.1506167-.136267-.2246985-.284229-.3608423-.511656-.4944594-.04886-.027719-.107026-.039739-.169137-.054212l-.0992-.00491c-.0211-.00981-.04236-.034342-.06084-.046362-.07546-.047589-.269717-.1506167-.325212-.014718-.03574.086102.05286.1704864.08331.2141505.02257.030172.05159.06476.06731.099103.0093.022077.01202.046362.02134.070157.0211.058137.04094.1228973.06876.1771095.01447.027719.03032.056665.04889.081932.01055.014718.02909.022077.03312.044891-.0184.026248-.01987.065987-.03047.099103-.04756.1493901-.02899.3344475.03844.4442456.0211.033116.07143.1057261.138744.078007.05961-.02453.04639-.099103.06353-.1650896.0039-.017171.0013-.026493.0093-.037041v.00245c.0184.037041.03706.07261.05414.1096509.04102.06476.112448.1322189.171934.1771096.03167.02453.05676.06476.09645.079479v-.00491h-.0027c-.0081-.012265-.01987-.017171-.03032-.026493-.02379-.02453-.05026-.052986-.06876-.079233-.05541-.074082-.104475-.1560133-.148017-.2406432-.02134-.040966-.03966-.085857-.05684-.1268222-.0081-.014718-.0081-.039739-.02134-.047589-.01987.029191-.04889.054212-.06339.089781-.02517.05691-.02779.1270675-.03714.1999228l-.0052.00245c-.04212-.00981-.05676-.054212-.07276-.091008-.03959-.093952-.04627-.2448135-.01178-.3530661.0093-.027719.04901-.1150476.03312-.1412952-.0079-.025266-.03444-.039739-.04894-.059609-.01717-.025021-.03574-.056665-.04764-.08463-.03172-.074082-.04766-.1560134-.08183-.2298499-.01594-.034343-.04367-.070157-.06611-.1018012-.02519-.035569-.05291-.060835-.07283-.1030277-.0066-.014718-.0157-.038267-.0052-.054212.0027-.00981.0079-.014718.0184-.017171.01717-.014718.06609.00491.08323.012265.04901.019624.09.038267.130919.065987.0184.012265.03837.038513.06211.044891h.02782c.04222.00981.08983.00245.129569.014718.07003.022077.133495.055439.190405.091253.17316.1098963.315974.2658606.412381.4522426.0157.030418.02257.058137.03699.089781.02784.06476.06228.1309924.08993.1945261.02779.062062.05426.1255957.09393.1771096.01987.027719.09927.042192.134917.05691.02637.012265.06741.022077.0912.037041.04499.027719.08978.059609.132072.090027.0211.014718.08723.048815.09118.075308m-1.348626-1.1489552" fill="#5d87a1"/></svg>