<svg height="25" viewBox="0 0 25 25" width="25" xmlns="http://www.w3.org/2000/svg"><g transform="matrix(.06849315 0 0 .06849315 -4.623288 -4.623288)"><path d="m250 432.5c100.8 0 182.5-81.7 182.5-182.5s-81.7-182.5-182.5-182.5-182.5 81.7-182.5 182.5 81.7 182.5 182.5 182.5zm0-27.4c-85.7 0-155.1-69.5-155.1-155.1 0-85.7 69.5-155.1 155.1-155.1 85.7 0 155.1 69.5 155.1 155.1 0 85.7-69.4 155.1-155.1 155.1z" fill="#376660"/><path d="m250 104c-80.6 0-146 65.4-146 146s65.4 146 146 146 146-65.4 146-146-65.4-146-146-146zm9 155h-82c-4.9 0-9.1-4-9.1-9 0-5.1 4.1-9 9.1-9h64v-118.7c0-5.1 4-9.2 9-9.2 5.1 0 9 4.1 9 9.1z" fill="#529990"/></g></svg>