<svg height="25.000002" preserveAspectRatio="xMidYMid" viewBox="0 0 13.196526 12.500001" width="26.393051" xmlns="http://www.w3.org/2000/svg" xmlns:xlink="http://www.w3.org/1999/xlink"><linearGradient id="a"><stop offset="0" stop-color="#f9a03c"/><stop offset="1" stop-color="#f7974e"/></linearGradient><linearGradient id="b" gradientTransform="scale(1.0064334 .99360772)" gradientUnits="userSpaceOnUse" x1="8787.4004" x2="21388.795" xlink:href="#a" y1="1637.0316" y2="14907.733"/><linearGradient id="c" gradientTransform="scale(.9976284 1.0023772)" gradientUnits="userSpaceOnUse" x1="-781.21576" x2="4997.4712" xlink:href="#a" y1="2097.3113" y2="7761.5288"/><linearGradient id="d" gradientTransform="scale(1.0137695 .98641753)" gradientUnits="userSpaceOnUse" x1="1947.171" x2="7217.0674" xlink:href="#a" y1="4150.77" y2="10029.69"/><linearGradient id="e" gradientTransform="scale(1.0281535 .97261746)" gradientUnits="userSpaceOnUse" x1="7218.2979" x2="52516.48" y1="-1097.3384" y2="55467.598"><stop offset="0" stop-color="#f26d58"/><stop offset="1" stop-color="#f9a03c"/></linearGradient><linearGradient id="f" gradientTransform="scale(.95884432 1.0429222)" gradientUnits="userSpaceOnUse" x1="20322.941" x2="48417.973" y1="1130.4188" y2="21208.764"><stop offset="0" stop-color="#b84e51"/><stop offset="1" stop-color="#f68e48"/></linearGradient><linearGradient id="g" gradientTransform="scale(1.3814165 .72389462)" gradientUnits="userSpaceOnUse" x1="10627.143" x2="11734.757" xlink:href="#a" y1="22154.207" y2="36842.773"/><g transform="scale(.05156766)"><path d="m255.52 175.62.26-3.37c.078-1.34-80.562-77.85-80.562-77.85h-1.918s81.736 86.215 82.23 81.22z" fill="url(#b)"/><path d="m83.472 149.077-.323.704-.35.734c-2.57 5.36 35.987 43.053 39.088 38.474l.424-.618.467-.7c2.48-3.765-38.206-41.032-39.307-38.584z" fill="url(#c)"/><path d="m137.957 202.083c-.1.24-.885 1.552-1.594 2.245-.12.24 37.64 37.688 37.64 37.688h3.4c.002 0-35.446-38.35-39.446-39.933z" fill="url(#d)"/><path d="m255.835 171.568c-1.766 39.147-34.152 70.448-73.72 70.448h-5.35l-39.514-38.928c3.25-4.584 6.272-9.333 8.962-14.285h35.902c11.354 0 20.594-9.235 20.594-20.595 0-11.355-9.24-20.595-20.594-20.595h-21.245c1.62-8.557 2.504-17.38 2.504-26.408 0-9.165-.9-18.114-2.578-26.808h13.197l81.6 80.414a91.25 91.25 0 0 0 .233-3.243zm-234.368-171.568h-21.467v53.213h21.467c37.493 0 68 30.5 68 67.992a67.6 67.6 0 0 1 -6.318 28.576l39.163 38.6a120.48 120.48 0 0 0 20.376-67.166c0-66.842-54.381-121.215-121.221-121.215z" fill="url(#e)"/><path d="m182.115 0h-86.928c21.233 12.963 38.813 31.344 50.793 53.213h36.136c11.354 0 20.594 9.235 20.594 20.595s-9.24 20.592-20.595 20.592h-8.12l81.6 80.413c.192-2.18.312-4.376.312-6.605 0-17.94-6.437-34.395-17.125-47.203 10.688-12.802 17.125-29.26 17.125-47.197.01-40.696-33.094-73.808-73.792-73.808z" fill="url(#f)"/><path d="m176.765 242.016h-80.957c16.296-10.064 30.384-23.35 41.443-38.928zm-54.453-53.645-39.16-38.6c-10.82 23.25-34.395 39.422-61.685 39.422h-21.467v53.207h21.467c42 0 79.1-21.488 100.845-54.04z" fill="url(#g)"/></g></svg>