<svg enable-background="new 0 0 960 489" height="25" viewBox="0 0 13.988289 25" width="13.988289" xmlns="http://www.w3.org/2000/svg" xmlns:xlink="http://www.w3.org/1999/xlink"><linearGradient id="a" gradientTransform="matrix(.9138 -.4062 .4062 .9138 -56.6658 215.7002)" gradientUnits="userSpaceOnUse" x1="724.5791" x2="787.73462" y1="335.69629" y2="398.85181"><stop offset="0" stop-color="#919191"/><stop offset="1" stop-color="#fff"/></linearGradient><linearGradient id="b" gradientTransform="matrix(.9138 -.4062 .4062 .9138 -56.6658 215.7002)" gradientUnits="userSpaceOnUse" x1="700.83197" x2="739.06622" y1="383.875" y2="422.10919"><stop offset="0" stop-color="#900"/><stop offset="1" stop-color="#e80000"/></linearGradient><g transform="matrix(.074024 0 0 .074024 -51.609684 -5.451746)"><path d="m802.411 80.363c-.151.607-.155 1.259-.027 1.948 0 0 2.065 13.708-.279 19.809l-99.675 259.171.008.003c-7.113 19.036 2.419 40.289 21.429 47.601 19.009 7.311 40.325-2.079 47.801-20.976l.009.004 99.675-259.172c1.949-5.07 13.064-14.892 13.064-14.892.558-.425.99-.913 1.285-1.464l.049-.101c.054-.108.116-.212.159-.325 2.57-6.683-14.008-19.279-37.028-28.132-23.021-8.854-43.767-10.613-46.337-3.93-.044.113-.068.231-.101.348z" opacity=".3"/><path d="m799.53 78.16c-.152.607-.156 1.259-.027 1.948 0 0 2.065 13.708-.28 19.809l-99.675 259.171.009.003c-7.113 19.036 2.419 40.289 21.429 47.601 19.008 7.311 40.325-2.079 47.801-20.976l.009.004 99.675-259.172c1.948-5.07 13.064-14.892 13.064-14.892.558-.425.99-.912 1.285-1.464l.048-.101c.054-.108.116-.212.159-.325 2.57-6.683-14.008-19.279-37.027-28.132-23.021-8.854-43.767-10.613-46.337-3.93-.044.113-.068.231-.101.348z" fill="url(#a)"/><path d="m830.797 195.407-71.88 186.9.047.018c-5.302 13.396-20.729 20.365-34.416 15.102s-21.094-21.015-16.053-34.512l45.93-119.426s5.736-9.253 16.999-15.836 20.551-5.193 33.058-10.752c12.505-5.56 26.315-21.494 26.315-21.494z" fill="url(#b)"/><ellipse cx="841.08502" cy="94.406998" fill="#333" rx="27.716999" ry="7.29" transform="matrix(.9334 .359 -.359 .9334 89.9472 -295.6295)"/><g fill="#fff"><path d="m799.503 80.107s2.035 13.787-.28 19.809l-99.675 259.171.009.003c-7.113 19.036 2.419 40.289 21.429 47.601 3.299 1.269 6.666 2.022 10.02 2.324-12.813-9.64-18.312-26.88-12.433-42.611l-.009-.003 97.697-254.031c0 .001-13.299-12.486-16.758-32.263z" opacity=".3"/><circle cx="767.41199" cy="247.29401" opacity=".5" r="2.888"/><circle cx="786.34399" cy="268.23499" opacity=".5" r="4.354"/><circle cx="757.44299" cy="293.138" opacity=".5" r="8.167"/><circle cx="744.21899" cy="308.241" opacity=".5" r="4.354"/><circle cx="761.56299" cy="340.54199" opacity=".5" r="2.888"/></g></g></svg>